<svg width="16" height="16" viewBox="0 0 16 16" fill="none" xmlns="http://www.w3.org/2000/svg">
<path d="M7.9998 0.799999C4.02373 0.799999 0.799805 4.02393 0.799805 8C0.799805 11.9761 4.02373 15.2 7.9998 15.2C11.9759 15.2 15.1998 11.9761 15.1998 8C15.1998 4.02393 11.9759 0.799999 7.9998 0.799999ZM11.1096 5.64875L7.72498 10.3416C7.67768 10.4076 7.61531 10.4614 7.54307 10.4985C7.47082 10.5357 7.39076 10.555 7.30954 10.555C7.22831 10.555 7.14826 10.5357 7.07601 10.4985C7.00376 10.4614 6.9414 10.4076 6.89409 10.3416L4.88998 7.56446C4.82891 7.47928 4.88998 7.36036 4.99445 7.36036H5.7482C5.91213 7.36036 6.06802 7.43911 6.16445 7.57411L7.30873 9.16196L9.83516 5.65839C9.93159 5.525 10.0859 5.44464 10.2514 5.44464H11.0052C11.1096 5.44464 11.1707 5.56357 11.1096 5.64875Z" fill="#52C41A"/>
</svg>
