<svg width="18" height="18" viewBox="0 0 18 18" fill="none" xmlns="http://www.w3.org/2000/svg">
<g clip-path="url(#clip0_395_9309)">
<path d="M8.9998 1.8C5.02373 1.8 1.7998 5.02393 1.7998 9C1.7998 12.9761 5.02373 16.2 8.9998 16.2C12.9759 16.2 16.1998 12.9761 16.1998 9C16.1998 5.02393 12.9759 1.8 8.9998 1.8ZM12.1096 6.64875L8.72498 11.3416C8.67768 11.4076 8.61531 11.4614 8.54307 11.4986C8.47082 11.5357 8.39076 11.555 8.30954 11.555C8.22831 11.555 8.14826 11.5357 8.07601 11.4986C8.00376 11.4614 7.9414 11.4076 7.89409 11.3416L5.88998 8.56447C5.82891 8.47929 5.88998 8.36036 5.99445 8.36036H6.7482C6.91213 8.36036 7.06802 8.43911 7.16445 8.57411L8.30873 10.162L10.8352 6.6584C10.9316 6.525 11.0859 6.44465 11.2514 6.44465H12.0052C12.1096 6.44465 12.1707 6.56357 12.1096 6.64875Z" fill="#FF4D4F"/>
</g>
<defs>
<clipPath id="clip0_395_9309">
<rect width="14.4" height="14.4" fill="white" transform="translate(1.7998 1.8)"/>
</clipPath>
</defs>
</svg>
