<svg width="18" height="18" viewBox="0 0 18 18" fill="none" xmlns="http://www.w3.org/2000/svg">
<circle cx="9" cy="9" r="9" fill="#00AE31"/>
<path d="M7.94242 10.2975C7.80939 7.97207 10.4834 8.14804 10.4834 6.5014C10.4834 5.73464 9.89804 5.2067 9.02001 5.2067C7.99564 5.2067 7.35707 5.8352 7.39698 6.81564L6.00011 6.6648C5.98681 5.06844 7.18412 4 9.02001 4C10.816 4 12 4.99302 12 6.47626C12 8.82682 9.31269 8.55028 9.3659 10.2975H7.94242ZM8.72733 13C8.18189 13 7.78278 12.6229 7.78278 12.1201C7.78278 11.6173 8.18189 11.2402 8.72733 11.2402C9.25947 11.2402 9.67188 11.6173 9.67188 12.1201C9.67188 12.6229 9.25947 13 8.72733 13Z" fill="white"/>
</svg>
