<svg width="17" height="15" viewBox="0 0 17 15" fill="none" xmlns="http://www.w3.org/2000/svg">
<path d="M14.0979 1.21039H12.5466V0.664831C12.5466 0.289798 12.2568 0 11.8817 0C11.5067 0 11.2169 0.289783 11.2169 0.664831V1.21039H4.97771V0.664831C4.97771 0.289798 4.68792 0 4.31288 0C3.93784 0 3.64805 0.289783 3.64805 0.664831V1.21039H2.09674C0.937612 1.21039 0 2.14801 0 3.30726V12.7001C0 13.8593 0.937612 14.7969 2.09674 14.7969H14.0807C15.2399 14.7969 16.1775 13.8593 16.1775 12.7001L16.1776 3.30726C16.1946 2.14801 15.257 1.21039 14.0979 1.21039ZM2.0968 2.54006H14.0808C14.507 2.54006 14.8479 2.88096 14.8479 3.30714V3.86969H1.32966V3.30723C1.32966 2.88105 1.67063 2.54006 2.0968 2.54006ZM14.0979 13.4671H2.0968C1.67063 13.4671 1.32972 13.1262 1.32972 12.7001V5.19941H14.865V12.7001C14.865 13.1262 14.524 13.4671 14.0979 13.4671Z" fill="white"/>
<path d="M4.82411 6.66504H3.28994C3.05129 6.66504 2.86377 6.85256 2.86377 7.09121V8.11409C2.86377 8.35274 3.05129 8.54026 3.28994 8.54026H4.82411C5.06276 8.54026 5.25028 8.35274 5.25028 8.11409V7.09121C5.25028 6.85244 5.06276 6.66504 4.82411 6.66504Z" fill="white"/>
<path d="M8.86463 6.66504H7.33047C7.09182 6.66504 6.9043 6.85256 6.9043 7.09121V8.11409C6.9043 8.35274 7.09182 8.54026 7.33047 8.54026H8.86463C9.10329 8.54026 9.29081 8.35274 9.29081 8.11409V7.09121C9.29081 6.85244 9.10329 6.66504 8.86463 6.66504Z" fill="white"/>
<path d="M12.9047 6.66504H11.3705C11.1319 6.66504 10.9443 6.85256 10.9443 7.09121V8.11409C10.9443 8.35274 11.1319 8.54026 11.3705 8.54026H12.9047C13.1433 8.54026 13.3308 8.35274 13.3308 8.11409V7.09121C13.3308 6.85244 13.1433 6.66504 12.9047 6.66504Z" fill="white"/>
<path d="M4.82411 10.1938H3.28994C3.05129 10.1938 2.86377 10.3814 2.86377 10.62V11.6429C2.86377 11.8815 3.05129 12.0691 3.28994 12.0691H4.82411C5.06276 12.0691 5.25028 11.8815 5.25028 11.6429V10.62C5.25028 10.3814 5.06276 10.1938 4.82411 10.1938Z" fill="white"/>
<path d="M8.86463 10.1938H7.33047C7.09182 10.1938 6.9043 10.3814 6.9043 10.62V11.6429C6.9043 11.8815 7.09182 12.0691 7.33047 12.0691H8.86463C9.10329 12.0691 9.29081 11.8815 9.29081 11.6429V10.62C9.29081 10.3814 9.10329 10.1938 8.86463 10.1938Z" fill="white"/>
<path d="M12.9047 10.1938H11.3705C11.1319 10.1938 10.9443 10.3814 10.9443 10.62V11.6429C10.9443 11.8815 11.1319 12.0691 11.3705 12.0691H12.9047C13.1433 12.0691 13.3308 11.8815 13.3308 11.6429V10.62C13.3308 10.3814 13.1433 10.1938 12.9047 10.1938Z" fill="white"/>
</svg>
