<svg width="59" height="36" viewBox="0 0 59 36" fill="none" xmlns="http://www.w3.org/2000/svg">
<g clip-path="url(#clip0_1017_2422)">
<path d="M58.6891 13.4L0.299062 13.46V5.43L58.6791 5.37V2.62C58.6791 1.17 57.5091 0 56.0591 0L2.90906 0.05C1.45906 0.05 0.289062 1.23 0.289062 2.68L0.319062 32.45C0.319062 33.9 1.49906 35.07 2.94906 35.07L56.0891 35.02C57.5391 35.02 58.7091 33.84 58.7091 32.39L58.6891 13.4ZM3.83906 19.82V16.38L28.8791 16.36V19.8L3.83906 19.82Z" fill="#FFD600"/>
<path d="M0.299062 13.4601L58.6891 13.4001V11.2001V5.37012H58.6791L0.289062 5.43012L0.299062 13.4601Z" fill="#0E0F11"/>
<path d="M28.8681 16.3552L3.82812 16.3857L3.83233 19.8257L28.8723 19.7951L28.8681 16.3552Z" fill="white" fill-opacity="0.85"/>
</g>
<defs>
<clipPath id="clip0_1017_2422">
<rect width="58.42" height="35.07" fill="white" transform="translate(0.289062)"/>
</clipPath>
</defs>
</svg>
