<svg width="16" height="16" viewBox="0 0 16 16" fill="none" xmlns="http://www.w3.org/2000/svg">
<path d="M12.4705 4.89321L12.7408 3.94269C12.7655 3.85599 12.8059 3.77535 12.8597 3.70539C12.9135 3.63544 12.9796 3.57752 13.0542 3.53496C13.1288 3.4924 13.2105 3.46602 13.2947 3.45734C13.3788 3.44865 13.4637 3.45783 13.5446 3.48435C13.6254 3.51086 13.7006 3.55419 13.7658 3.61187C13.831 3.66955 13.885 3.74044 13.9247 3.8205C13.9644 3.90056 13.9889 3.98822 13.997 4.07847C14.0051 4.16872 13.9966 4.2598 13.9719 4.34651L13.2189 6.98683C13.169 7.1618 13.0564 7.30837 12.9058 7.39431C12.7552 7.48026 12.579 7.49855 12.4158 7.44517L9.95435 6.63754C9.87183 6.61263 9.79478 6.57028 9.72773 6.51298C9.66068 6.45568 9.60498 6.38458 9.5639 6.30387C9.52282 6.22316 9.49718 6.13446 9.4885 6.04297C9.47982 5.95149 9.48827 5.85906 9.51336 5.77113C9.53844 5.68319 9.57965 5.60152 9.63456 5.53091C9.68948 5.46029 9.75699 5.40216 9.83315 5.35993C9.9093 5.31769 9.99255 5.2922 10.078 5.28495C10.1635 5.27771 10.2494 5.28885 10.3308 5.31773L11.4068 5.67046C10.9311 4.89659 10.2677 4.27657 9.48784 3.87717C8.70802 3.47778 7.8414 3.31415 6.98132 3.40391C6.12123 3.49367 5.30027 3.83341 4.60685 4.38655C3.91343 4.93969 3.37382 5.68527 3.04615 6.54298L2.87883 6.97992C2.8484 7.06618 2.80217 7.14502 2.74286 7.21178C2.68355 7.27855 2.61237 7.33189 2.53352 7.36866C2.45468 7.40543 2.36976 7.42487 2.28379 7.42585C2.19782 7.42683 2.11253 7.40932 2.03298 7.37436C1.95342 7.33939 1.8812 7.28768 1.82059 7.22228C1.75997 7.15687 1.71219 7.0791 1.68006 6.99356C1.64793 6.90802 1.63211 6.81644 1.63353 6.72423C1.63494 6.63202 1.65357 6.54105 1.68831 6.45669L1.85563 6.01974C2.27149 4.93136 2.95587 3.98504 3.83528 3.28239C4.71469 2.57973 5.75592 2.14728 6.84716 2.03147C7.93841 1.91565 9.03845 2.12086 10.0292 2.62504C11.0199 3.12922 11.8639 3.91334 12.4705 4.89321ZM2.48178 12.2191L2.27134 13.1241C2.25252 13.2139 2.21715 13.2987 2.16734 13.3735C2.11752 13.4484 2.05425 13.5119 1.98124 13.5601C1.90824 13.6084 1.82698 13.6406 1.74223 13.6547C1.65748 13.6688 1.57096 13.6646 1.48775 13.6423C1.40454 13.62 1.32631 13.5802 1.25768 13.525C1.18904 13.4698 1.13137 13.4005 1.08807 13.3211C1.04476 13.2417 1.01669 13.1538 1.0055 13.0626C0.994311 12.9714 1.00023 12.8787 1.02291 12.79L1.6452 10.1117C1.66619 10.0205 1.70432 9.9349 1.75724 9.86006C1.81016 9.78522 1.87676 9.72276 1.95297 9.67649C2.02917 9.63022 2.11338 9.60113 2.20044 9.59098C2.28749 9.58083 2.37556 9.58985 2.45925 9.61748L4.92266 10.276C5.08829 10.3203 5.23074 10.4334 5.31866 10.5903C5.40658 10.7473 5.43276 10.9353 5.39146 11.113C5.35016 11.2906 5.24475 11.4434 5.09842 11.5377C4.95209 11.6321 4.77683 11.6601 4.61119 11.6158L3.46186 11.3087C3.9532 12.1155 4.64772 12.7564 5.46485 13.157C6.28198 13.5576 7.18825 13.7015 8.07854 13.572C8.96883 13.4425 9.80665 13.0449 10.4948 12.4254C11.183 11.8058 11.6933 10.9897 11.9666 10.0717C12.0185 9.89722 12.1329 9.752 12.2846 9.66799C12.3597 9.62639 12.4417 9.60107 12.526 9.59347C12.6102 9.58587 12.695 9.59614 12.7756 9.62369C12.8561 9.65125 12.9308 9.69555 12.9954 9.75407C13.0599 9.81259 13.1131 9.88418 13.1519 9.96475C13.1907 10.0453 13.2143 10.1333 13.2214 10.2237C13.2285 10.314 13.2189 10.405 13.1932 10.4914C12.9253 11.3929 12.4765 12.2204 11.8783 12.9158C11.2802 13.6112 10.5472 14.1575 9.73105 14.5164C8.45934 15.0752 7.04797 15.1522 5.72999 14.7345C4.412 14.3169 3.26621 13.4296 2.48178 12.2191Z" fill="#151515"/>
</svg>
