<svg width="16" height="19" viewBox="0 0 16 19" fill="none" xmlns="http://www.w3.org/2000/svg">
<path d="M2.60623 18.1303H13.3938C14.8306 18.1303 16 16.9609 16 15.5241V3.43569C16 3.43569 16 3.4221 16 3.4153C16 3.40623 16 3.39943 15.9977 3.39037C15.9955 3.3677 15.9909 3.34731 15.9819 3.32465C15.9819 3.32011 15.9796 3.31331 15.9773 3.30878C15.9683 3.28385 15.9547 3.25892 15.9388 3.23853C15.9388 3.23626 15.9365 3.23399 15.9343 3.23173C14.9915 1.97847 13.9241 0.913314 12.7637 0.0657224C12.7637 0.0657224 12.7592 0.0657225 12.7569 0.0611899C12.7343 0.0453259 12.7116 0.0339944 12.6867 0.022663C12.6799 0.0203967 12.6708 0.0181302 12.664 0.015864C12.6436 0.00906509 12.6255 0.00453263 12.6051 0.00226634C12.596 0.00226634 12.5892 0.00226629 12.5802 0C12.5734 0 12.5688 0 12.562 0H2.60623C1.16941 0 0 1.1694 0 2.60623V15.5241C0 16.9609 1.16941 18.1303 2.60623 18.1303ZM12.902 1.03116C13.634 1.6272 14.3229 2.31841 14.962 3.09575H13.4686C13.1558 3.09575 12.902 2.84193 12.902 2.53144V1.03116ZM0.679887 2.60623C0.679887 1.54334 1.54334 0.679887 2.60623 0.679887H12.2221V2.53144C12.2221 3.21813 12.7819 3.7779 13.4686 3.7779H15.3201V15.5241C15.3201 16.587 14.4567 17.4504 13.3938 17.4504H2.60623C1.54334 17.4504 0.679887 16.587 0.679887 15.5241V2.60623Z" fill="white"/>
<path d="M12.8993 14.5391H9.57237C9.38426 14.5391 9.23242 14.6909 9.23242 14.879C9.23242 15.0671 9.38426 15.2189 9.57237 15.2189H12.8993C13.0874 15.2189 13.2392 15.0671 13.2392 14.879C13.2392 14.6909 13.0874 14.5391 12.8993 14.5391Z" fill="white"/>
<path d="M3.10166 12.3166H12.8943C13.0824 12.3166 13.2342 12.1648 13.2342 11.9767C13.2342 11.7886 13.0824 11.6367 12.8943 11.6367H3.10166C2.91356 11.6367 2.76172 11.7886 2.76172 11.9767C2.76172 12.1648 2.91356 12.3166 3.10166 12.3166Z" fill="white"/>
<path d="M3.10166 9.40645H12.8943C13.0824 9.40645 13.2342 9.25461 13.2342 9.06651C13.2342 8.8784 13.0824 8.72656 12.8943 8.72656H3.10166C2.91356 8.72656 2.76172 8.8784 2.76172 9.06651C2.76172 9.25461 2.91356 9.40645 3.10166 9.40645Z" fill="white"/>
<path d="M3.10166 6.49239H12.8943C13.0824 6.49239 13.2342 6.34055 13.2342 6.15244C13.2342 5.96434 13.0824 5.8125 12.8943 5.8125H3.10166C2.91356 5.8125 2.76172 5.96434 2.76172 6.15244C2.76172 6.34055 2.91356 6.49239 3.10166 6.49239Z" fill="white"/>
<path d="M3.10166 3.59004H7.99911C8.18721 3.59004 8.33906 3.4382 8.33906 3.2501C8.33906 3.062 8.18721 2.91016 7.99911 2.91016H3.10166C2.91356 2.91016 2.76172 3.062 2.76172 3.2501C2.76172 3.4382 2.91356 3.59004 3.10166 3.59004Z" fill="white"/>
</svg>
