<svg width="12" height="13" viewBox="0 0 12 13" fill="none" xmlns="http://www.w3.org/2000/svg">
<path d="M11.52 1.58H9V0.62C9 0.554 8.946 0.5 8.88 0.5H8.04C7.974 0.5 7.92 0.554 7.92 0.62V1.58H4.08V0.62C4.08 0.554 4.026 0.5 3.96 0.5H3.12C3.054 0.5 3 0.554 3 0.62V1.58H0.48C0.2145 1.58 0 1.7945 0 2.06V12.02C0 12.2855 0.2145 12.5 0.48 12.5H11.52C11.7855 12.5 12 12.2855 12 12.02V2.06C12 1.7945 11.7855 1.58 11.52 1.58ZM8.7375 5.3105L5.5485 9.701C5.52608 9.73169 5.49674 9.75665 5.46285 9.77386C5.42897 9.79106 5.3915 9.80003 5.3535 9.80003C5.3155 9.80003 5.27803 9.79106 5.24415 9.77386C5.21026 9.75665 5.18092 9.73169 5.1585 9.701L3.2625 7.091C3.2055 7.0115 3.2625 6.9005 3.36 6.9005H4.188C4.2645 6.9005 4.338 6.938 4.383 6.9995L5.3535 8.3345L7.617 5.2175C7.662 5.156 7.734 5.1185 7.812 5.1185H8.64C8.7375 5.12 8.7945 5.231 8.7375 5.3105Z" fill="#FCD704"/>
</svg>
