<svg width="29" height="17" viewBox="0 0 29 17" fill="none" xmlns="http://www.w3.org/2000/svg">
<path d="M5.9369 3.3215C10.6662 -1.10717 18.3339 -1.10717 23.0631 3.3215L23.6323 3.8545C23.8688 4.07593 23.8688 4.43495 23.6323 4.65638L21.6853 6.47966C21.567 6.59038 21.3753 6.59038 21.2571 6.47966L20.4739 5.74619C17.1746 2.65664 11.8254 2.65664 8.52617 5.74619L7.68737 6.53168C7.56914 6.64239 7.37745 6.64239 7.25922 6.53168L5.31218 4.7084C5.07572 4.48696 5.07572 4.12795 5.31218 3.90652L5.9369 3.3215ZM27.0898 7.09224L28.8227 8.71496C29.0591 8.9364 29.0591 9.29541 28.8227 9.51684L21.009 16.8339C20.7726 17.0554 20.3892 17.0554 20.1527 16.8339C20.1527 16.8339 20.1527 16.8339 20.1527 16.8339L14.6071 11.6408C14.548 11.5854 14.4521 11.5854 14.393 11.6408C14.393 11.6408 14.393 11.6408 14.393 11.6408L8.8475 16.8339C8.61104 17.0554 8.22765 17.0554 7.99119 16.8339C7.99119 16.8339 7.99119 16.8339 7.99119 16.8339L0.177348 9.51675C-0.0591159 9.29532 -0.0591159 8.9363 0.177348 8.71487L1.91022 7.09214C2.14668 6.87071 2.53007 6.87071 2.76653 7.09214L8.31224 12.2854C8.37136 12.3407 8.4672 12.3407 8.52632 12.2854C8.52632 12.2854 8.52632 12.2854 8.52632 12.2854L14.0718 7.09214C14.3082 6.8707 14.6916 6.8707 14.9281 7.09213C14.9281 7.09212 14.9281 7.09213 14.9281 7.09213L20.4738 12.2854C20.5329 12.3407 20.6287 12.3407 20.6879 12.2854L26.2335 7.09224C26.4699 6.8708 26.8533 6.8708 27.0898 7.09224Z" fill="#3B99FC"/>
</svg>
