<svg width="19" height="19" viewBox="0 0 19 19" fill="none" xmlns="http://www.w3.org/2000/svg">
<path d="M2.375 4.15625C2.375 3.68383 2.56267 3.23077 2.89672 2.89672C3.23077 2.56267 3.68383 2.375 4.15625 2.375H13.0625C13.6924 2.375 14.2965 2.62522 14.7419 3.07062C15.1873 3.51602 15.4375 4.12011 15.4375 4.75V5.06825C15.7985 5.27669 16.0983 5.5765 16.3068 5.93753C16.5152 6.29857 16.625 6.70811 16.625 7.125V14.25C16.625 14.8799 16.3748 15.484 15.9294 15.9294C15.484 16.3748 14.8799 16.625 14.25 16.625H5.34375C4.55639 16.625 3.80128 16.3122 3.24453 15.7555C2.68778 15.1987 2.375 14.4436 2.375 13.6562V4.15625ZM3.5625 4.15625C3.5625 4.31372 3.62506 4.46474 3.73641 4.57609C3.84776 4.68744 3.99878 4.75 4.15625 4.75H14.25C14.25 4.43506 14.1249 4.13301 13.9022 3.91031C13.6795 3.68761 13.3774 3.5625 13.0625 3.5625H4.15625C3.99878 3.5625 3.84776 3.62506 3.73641 3.73641C3.62506 3.84776 3.5625 3.99878 3.5625 4.15625ZM12.4688 9.5C12.3113 9.5 12.1603 9.56256 12.0489 9.6739C11.9376 9.78525 11.875 9.93628 11.875 10.0938C11.875 10.2512 11.9376 10.4022 12.0489 10.5136C12.1603 10.6249 12.3113 10.6875 12.4688 10.6875H13.6562C13.8137 10.6875 13.9647 10.6249 14.0761 10.5136C14.1874 10.4022 14.25 10.2512 14.25 10.0938C14.25 9.93628 14.1874 9.78525 14.0761 9.6739C13.9647 9.56256 13.8137 9.5 13.6562 9.5H12.4688Z" fill="#FFD600"/>
</svg>
