<svg width="108" height="11" viewBox="0 0 108 11" fill="none" xmlns="http://www.w3.org/2000/svg">
<path fill-rule="evenodd" clip-rule="evenodd" d="M7.42623 3.55124L5.26387 10.8158H3.01469L0 0.184193H2.47015L4.2616 7.88346H4.32473L6.45554 0.184193H8.46796L10.5988 7.88346H10.6619L12.4612 0.184193H14.9314L11.9088 10.8158H9.65963L7.49726 3.55124H7.42623ZM18.2144 9.38647C19.2167 9.38647 20.0453 8.77495 20.0453 7.9203V7.34561L18.2617 7.44876C17.4015 7.5077 16.9122 7.86872 16.9122 8.42867C16.9122 9.01808 17.4331 9.38647 18.2144 9.38647ZM17.4568 10.9411C15.8468 10.9411 14.6236 9.96852 14.6236 8.54655C14.6236 7.10985 15.8074 6.27729 17.9145 6.15941L20.0453 6.04153V5.51842C20.0453 4.78165 19.4929 4.35432 18.6248 4.35432C17.7646 4.35432 17.22 4.75218 17.1095 5.33423H15.0024C15.0892 3.80174 16.4861 2.74816 18.7274 2.74816C20.8976 2.74816 22.3103 3.79437 22.3103 5.3858V10.8158H20.0848V9.6075H20.0374C19.5639 10.4474 18.5143 10.9411 17.4568 10.9411ZM23.8492 10.8158V0.184193H26.1536V10.8158H23.8492ZM27.7635 10.8158V0.184193H30.068V10.8158H27.7635ZM35.4186 4.33958C34.4085 4.33958 33.6824 5.05425 33.6035 6.04153H37.1943C37.1469 5.03215 36.4446 4.33958 35.4186 4.33958ZM37.2259 8.3992H39.3409C39.0883 9.94642 37.5731 10.9853 35.4818 10.9853C32.8775 10.9853 31.3149 9.43068 31.3149 6.90355C31.3149 4.38379 32.8932 2.74816 35.395 2.74816C37.8572 2.74816 39.4119 4.30275 39.4119 6.70462V7.36035H33.5798V7.49297C33.5798 8.62023 34.3453 9.39384 35.5212 9.39384C36.3657 9.39384 37.0128 9.00335 37.2259 8.3992ZM41.2113 1.09779H43.5157V2.91762H45.0783V4.53851H43.5157V8.31815C43.5157 8.9223 43.8313 9.20964 44.51 9.20964C44.7152 9.20964 44.9283 9.19491 45.0704 9.17281V10.7569C44.8336 10.8084 44.439 10.8453 43.9734 10.8453C41.9847 10.8453 41.2113 10.2264 41.2113 8.68654V4.53851H40.0196V2.91762H41.2113V1.09779ZM51.5733 11C48.2587 11 46.1831 8.92967 46.1831 5.49632C46.1831 2.07033 48.2745 0 51.5733 0C54.3117 0 56.3952 1.6209 56.5767 4.00067H54.2565C54.0355 2.69658 52.9622 1.84193 51.5733 1.84193C49.7739 1.84193 48.6138 3.24916 48.6138 5.48895C48.6138 7.75821 49.7581 9.15807 51.5811 9.15807C52.9938 9.15807 54.0118 8.38446 54.2644 7.12458H56.5846C56.3163 9.49699 54.367 11 51.5733 11ZM61.738 10.9853C59.181 10.9853 57.5474 9.45278 57.5474 6.85934C57.5474 4.30275 59.2047 2.74816 61.738 2.74816C64.2712 2.74816 65.9285 4.29538 65.9285 6.85934C65.9285 9.46015 64.2949 10.9853 61.738 10.9853ZM61.738 9.34226C62.8665 9.34226 63.5847 8.45077 63.5847 6.86671C63.5847 5.29739 62.8586 4.39116 61.738 4.39116C60.6173 4.39116 59.8834 5.29739 59.8834 6.86671C59.8834 8.45077 60.6015 9.34226 61.738 9.34226ZM67.1123 10.8158V2.91762H69.3378V4.32485H69.3852C69.835 3.34494 70.7268 2.77026 72.0289 2.77026C73.9072 2.77026 74.9647 3.87542 74.9647 5.72472V10.8158H72.6603V6.17415C72.6603 5.14267 72.1394 4.55325 71.1056 4.55325C70.0718 4.55325 69.4167 5.26055 69.4167 6.28466V10.8158H67.1123ZM76.4247 10.8158V2.91762H78.6502V4.32485H78.6976C79.1474 3.34494 80.0392 2.77026 81.3413 2.77026C83.2196 2.77026 84.2771 3.87542 84.2771 5.72472V10.8158H81.9727V6.17415C81.9727 5.14267 81.4518 4.55325 80.418 4.55325C79.3841 4.55325 78.7291 5.26055 78.7291 6.28466V10.8158H76.4247ZM89.5331 4.33958C88.5229 4.33958 87.7969 5.05425 87.7179 6.04153H91.3087C91.2614 5.03215 90.559 4.33958 89.5331 4.33958ZM91.3403 8.3992H93.4553C93.2028 9.94642 91.6875 10.9853 89.5962 10.9853C86.9919 10.9853 85.4293 9.43068 85.4293 6.90355C85.4293 4.38379 87.0077 2.74816 89.5094 2.74816C91.9716 2.74816 93.5263 4.30275 93.5263 6.70462V7.36035H87.6943V7.49297C87.6943 8.62023 88.4598 9.39384 89.6357 9.39384C90.4801 9.39384 91.1272 9.00335 91.3403 8.3992ZM102.397 5.85733H100.258C100.124 5.02478 99.532 4.43537 98.585 4.43537C97.4486 4.43537 96.7383 5.33423 96.7383 6.85934C96.7383 8.41393 97.4486 9.29806 98.5929 9.29806C99.5163 9.29806 100.116 8.78232 100.258 7.9203H102.405C102.286 9.78433 100.795 10.9853 98.5692 10.9853C96.0202 10.9853 94.4023 9.43804 94.4023 6.85934C94.4023 4.32485 96.0202 2.74816 98.5535 2.74816C100.842 2.74816 102.294 4.06698 102.397 5.85733ZM104.133 1.09779H106.437V2.91762H108V4.53851H106.437V8.31815C106.437 8.9223 106.753 9.20964 107.432 9.20964C107.637 9.20964 107.85 9.19491 107.992 9.17281V10.7569C107.755 10.8084 107.361 10.8453 106.895 10.8453C104.906 10.8453 104.133 10.2264 104.133 8.68654V4.53851H102.941V2.91762H104.133V1.09779Z" fill="#3B99FC"/>
</svg>
