<svg width="17" height="17" viewBox="0 0 17 17" fill="none" xmlns="http://www.w3.org/2000/svg">
<g opacity="0.7">
<path d="M15.7915 0H6.43966C5.77315 0 5.23096 0.542229 5.23096 1.2087V4.04559H6.33432V1.2087C6.33432 1.15062 6.38158 1.10336 6.43966 1.10336H15.7915C15.8496 1.10336 15.8968 1.15062 15.8968 1.2087V10.5605C15.8968 10.6186 15.8496 10.6659 15.7915 10.6659H13.043V11.7692H15.7915C16.458 11.7692 17.0002 11.227 17.0002 10.5605V1.2087C17.0002 0.542229 16.458 0 15.7915 0Z" fill="#151515"/>
<path d="M10.5605 5.23071H1.20873C0.542227 5.23071 0 5.77294 0 6.43944V15.7912C3.67786e-05 16.4577 0.542227 16.9999 1.20873 16.9999H10.5605C11.227 16.9999 11.7692 16.4577 11.7692 15.7912V6.43944C11.7693 5.77294 11.227 5.23071 10.5605 5.23071ZM10.5605 15.8966H1.20873C1.15062 15.8966 1.10336 15.8493 1.10336 15.7912V6.43944C1.10336 6.38133 1.15062 6.33407 1.20873 6.33407H10.5605C10.6186 6.33407 10.6659 6.38133 10.6659 6.43944V15.7912H10.6659C10.6659 15.8493 10.6186 15.8966 10.5605 15.8966Z" fill="#151515"/>
</g>
</svg>
