<svg width="11" height="14" viewBox="0 0 11 14" fill="none" xmlns="http://www.w3.org/2000/svg">
<path d="M10.3017 0.0302734H2.18769C2.12109 0.0302734 2.06659 0.086281 2.06659 0.154735V1.02596C2.06659 1.09442 2.12109 1.15042 2.18769 1.15042H9.69621V11.8541C9.69621 11.9225 9.75071 11.9785 9.81731 11.9785H10.6651C10.7317 11.9785 10.7862 11.9225 10.7862 11.8541V0.528118C10.7862 0.252748 10.5697 0.0302734 10.3017 0.0302734ZM8.36405 2.02165H0.613327C0.345382 2.02165 0.128906 2.24413 0.128906 2.5195V10.7759C0.128906 10.9082 0.180376 11.0342 0.271205 11.1275L2.89464 13.8237C2.92795 13.8579 2.96579 13.8859 3.00667 13.9093V13.9388H3.07025C3.12323 13.959 3.17924 13.9699 3.23677 13.9699H8.36405C8.632 13.9699 8.84847 13.7475 8.84847 13.4721V2.5195C8.84847 2.24413 8.632 2.02165 8.36405 2.02165ZM3.48957 12.9742H3.48655L1.21885 10.6437V10.6406H3.48957V12.9742Z" fill="#FFD600"/>
</svg>
