<?xml version="1.0" encoding="UTF-8" standalone="no" ?>
<!DOCTYPE svg PUBLIC "-//W3C//DTD SVG 1.1//EN" "http://www.w3.org/Graphics/SVG/1.1/DTD/svg11.dtd">
<svg xmlns="http://www.w3.org/2000/svg" xmlns:xlink="http://www.w3.org/1999/xlink" version="1.1" width="640" height="480" viewBox="0 0 640 480" xml:space="preserve">
<desc>Created with Fabric.js 3.6.6</desc>
<defs>
</defs>
<g transform="matrix(35.61 0 0 33.82 318.51 236.96)"  >
<path style="stroke: none; stroke-width: 15; stroke-dasharray: none; stroke-linecap: butt; stroke-dashoffset: 0; stroke-linejoin: miter; stroke-miterlimit: 4; fill: rgb(164,164,164); fill-rule: nonzero; opacity: 1;" vector-effect="non-scaling-stroke"  transform=" translate(-8, -7.5)" d="M 15.3714 5.13 C 14.9698 4.13195 14.3877 3.2252 13.6571 2.46 C 12.9284 1.69295 12.0648 1.08166 11.1143 0.66 C 10.1268 0.22125 9.08036 0 8 0 C 6.91964 0 5.87321 0.22125 4.88571 0.66 C 3.93519 1.08166 3.07162 1.69295 2.34286 2.46 C 1.61234 3.2252 1.03015 4.13195 0.628571 5.13 C 0.210714 6.16688 0 7.26563 0 8.4 C 0 10.8881 1.04107 13.2319 2.85536 14.8331 L 2.88571 14.8594 C 2.98929 14.9494 3.11964 15 3.25357 15 H 12.7482 C 12.8821 15 13.0125 14.9494 13.1161 14.8594 L 13.1464 14.8331 C 14.9589 13.2319 16 10.8881 16 8.4 C 16 7.26563 15.7875 6.16688 15.3714 5.13 Z M 7.46429 2.25 C 7.46429 2.1675 7.52857 2.1 7.60714 2.1 H 8.39286 C 8.47143 2.1 8.53572 2.1675 8.53572 2.25 V 3.75 C 8.53572 3.8325 8.47143 3.9 8.39286 3.9 H 7.60714 C 7.52857 3.9 7.46429 3.8325 7.46429 3.75 V 2.25 Z M 3.67857 8.8125 C 3.67857 8.895 3.61429 8.9625 3.53571 8.9625 H 2.10714 C 2.02857 8.9625 1.96429 8.895 1.96429 8.8125 V 7.9875 C 1.96429 7.905 2.02857 7.8375 2.10714 7.8375 H 3.53571 C 3.61429 7.8375 3.67857 7.905 3.67857 7.9875 V 8.8125 Z M 5.29821 4.97813 L 4.74286 5.56125 C 4.71601 5.58917 4.67975 5.60483 4.64196 5.60483 C 4.60418 5.60483 4.56792 5.58917 4.54107 5.56125 L 3.53036 4.5 C 3.50377 4.47181 3.48886 4.43374 3.48886 4.39406 C 3.48886 4.35439 3.50377 4.31632 3.53036 4.28813 L 4.08571 3.705 C 4.14107 3.64688 4.23214 3.64688 4.2875 3.705 L 5.29821 4.76625 C 5.35357 4.82438 5.35357 4.92 5.29821 4.97813 Z M 10.4964 6.54563 L 8.9875 8.13 C 9.07679 8.48063 8.99107 8.86875 8.72857 9.14438 C 8.63577 9.242 8.52555 9.31945 8.40421 9.3723 C 8.28287 9.42514 8.15279 9.45234 8.02143 9.45234 C 7.89007 9.45234 7.75999 9.42514 7.63865 9.3723 C 7.51731 9.31945 7.40709 9.242 7.31429 9.14438 C 7.22131 9.04694 7.14755 8.9312 7.09722 8.80379 C 7.04689 8.67638 7.02099 8.53981 7.02099 8.40187 C 7.02099 8.26394 7.04689 8.12737 7.09722 7.99996 C 7.14755 7.87255 7.22131 7.75682 7.31429 7.65938 C 7.43828 7.52879 7.5929 7.43488 7.76253 7.38715 C 7.93216 7.33941 8.11079 7.33953 8.28036 7.3875 L 9.78929 5.80313 C 9.84464 5.745 9.93571 5.745 9.99107 5.80313 L 10.4964 6.33375 C 10.5518 6.39187 10.5518 6.48563 10.4964 6.54563 Z M 11.2643 5.56313 L 10.7089 4.98 C 10.6823 4.95181 10.6674 4.91374 10.6674 4.87406 C 10.6674 4.83439 10.6823 4.79632 10.7089 4.76813 L 11.7196 3.70688 C 11.775 3.64875 11.8661 3.64875 11.9214 3.70688 L 12.4768 4.29 C 12.5321 4.34812 12.5321 4.44375 12.4768 4.50188 L 11.4661 5.56313 C 11.4392 5.59104 11.403 5.6067 11.3652 5.6067 C 11.3274 5.6067 11.2911 5.59104 11.2643 5.56313 Z M 13.9643 8.8125 C 13.9643 8.895 13.9 8.9625 13.8214 8.9625 H 12.3929 C 12.3143 8.9625 12.25 8.895 12.25 8.8125 V 7.9875 C 12.25 7.905 12.3143 7.8375 12.3929 7.8375 H 13.8214 C 13.9 7.8375 13.9643 7.905 13.9643 7.9875 V 8.8125 Z" stroke-linecap="round" />
</g>
</svg>