<svg width="20" height="15" viewBox="0 0 20 15" fill="none" xmlns="http://www.w3.org/2000/svg">
<path d="M16.7714 1.24659C15.516 0.665494 14.1568 0.243729 12.741 4.3112e-05C12.7286 -0.0003511 12.7162 0.00196212 12.7048 0.00682017C12.6934 0.0116782 12.6832 0.0189631 12.6749 0.0281609C12.505 0.337455 12.3068 0.740474 12.1746 1.04977C10.6729 0.824827 9.14564 0.824827 7.64389 1.04977C7.51174 0.731102 7.31352 0.337455 7.13418 0.0281609C7.12474 0.00941585 7.09642 4.3112e-05 7.0681 4.3112e-05C5.65225 0.243729 4.30247 0.665494 3.03764 1.24659C3.0282 1.24659 3.01876 1.25596 3.00932 1.26534C0.441902 5.07996 -0.266026 8.79149 0.0832184 12.4655C0.0832184 12.4843 0.0926574 12.503 0.111535 12.5124C1.81056 13.7496 3.44351 14.4994 5.05759 14.9961C5.08591 15.0055 5.11422 14.9961 5.12366 14.9774C5.50122 14.4619 5.84103 13.9183 6.13364 13.3465C6.15252 13.3091 6.13364 13.2716 6.09588 13.2622C5.55786 13.056 5.04815 12.8123 4.54788 12.5311C4.51013 12.5124 4.51013 12.4562 4.53844 12.428C4.64227 12.3531 4.7461 12.2687 4.84993 12.1937C4.86881 12.175 4.89713 12.175 4.916 12.1844C8.16303 13.6558 11.6649 13.6558 14.8742 12.1844C14.8931 12.175 14.9214 12.175 14.9403 12.1937C15.0441 12.2781 15.1479 12.3531 15.2517 12.4374C15.2895 12.4655 15.2895 12.5218 15.2423 12.5405C14.7515 12.8311 14.2323 13.0654 13.6943 13.2716C13.6566 13.2809 13.6471 13.3278 13.6566 13.3559C13.9586 13.9276 14.2984 14.4713 14.6665 14.9867C14.6948 14.9961 14.7232 15.0055 14.7515 14.9961C16.375 14.4994 18.0079 13.7496 19.707 12.5124C19.7258 12.503 19.7353 12.4843 19.7353 12.4655C20.1506 8.21977 19.0462 4.53636 16.8092 1.26534C16.7997 1.25596 16.7903 1.24659 16.7714 1.24659ZM6.62447 10.2255C5.65225 10.2255 4.84049 9.3351 4.84049 8.23851C4.84049 7.14192 5.63337 6.25153 6.62447 6.25153C7.62501 6.25153 8.41789 7.1513 8.40845 8.23851C8.40845 9.3351 7.61557 10.2255 6.62447 10.2255ZM13.2035 10.2255C12.2313 10.2255 11.4195 9.3351 11.4195 8.23851C11.4195 7.14192 12.2124 6.25153 13.2035 6.25153C14.204 6.25153 14.9969 7.1513 14.9875 8.23851C14.9875 9.3351 14.204 10.2255 13.2035 10.2255Z" fill="#FFD600"/>
</svg>
