<svg width="9" height="15" viewBox="0 0 9 15" fill="none" xmlns="http://www.w3.org/2000/svg">
<path d="M8.45888 9.944C8.45888 10.8613 8.12821 11.5973 7.46688 12.152C6.81621 12.7067 5.95221 13.0267 4.87488 13.112V14.52L3.69088 14.504V13.096C2.63488 12.968 1.78688 12.5733 1.14688 11.912C0.517542 11.24 0.170875 10.3813 0.106875 9.336H1.41888C1.49354 10.1253 1.78688 10.7493 2.29888 11.208C2.81088 11.6667 3.49888 11.896 4.36288 11.896C5.17354 11.896 5.81888 11.736 6.29888 11.416C6.78954 11.0853 7.03488 10.5947 7.03488 9.944C7.03488 9.496 6.86954 9.12267 6.53888 8.824C6.21888 8.52533 5.81888 8.312 5.33888 8.184C4.85888 8.04533 4.33088 7.89067 3.75488 7.72C3.18954 7.53867 2.66688 7.352 2.18688 7.16C1.70688 6.968 1.30154 6.65867 0.970875 6.232C0.650875 5.80533 0.490875 5.27733 0.490875 4.648C0.490875 3.848 0.778875 3.18133 1.35488 2.648C1.94154 2.11467 2.72021 1.8 3.69088 1.704V0.36H4.87488V1.704C5.83488 1.81067 6.61354 2.15733 7.21088 2.744C7.81888 3.32 8.16021 4.06667 8.23488 4.984H6.95488C6.89088 4.35467 6.61354 3.85333 6.12288 3.48C5.64288 3.096 5.02954 2.904 4.28288 2.904C3.52554 2.904 2.93354 3.05867 2.50688 3.368C2.08021 3.67733 1.86688 4.104 1.86688 4.648C1.86688 5.032 1.98421 5.35733 2.21888 5.624C2.46421 5.88 2.77888 6.08267 3.16288 6.232C3.55754 6.37067 3.98954 6.49867 4.45888 6.616C4.92821 6.72267 5.39754 6.85067 5.86688 7C6.33621 7.14933 6.76288 7.336 7.14688 7.56C7.54154 7.77333 7.85621 8.08267 8.09088 8.488C8.33621 8.89333 8.45888 9.37867 8.45888 9.944Z" fill="#FFD600"/>
</svg>
