<svg width="42" height="42" viewBox="0 0 42 42" fill="none" xmlns="http://www.w3.org/2000/svg">
<rect width="42" height="42" rx="8" fill="#FFD600"/>
<path d="M32.04 9H9.96C9.429 9 9 9.429 9 9.96V32.04C9 32.571 9.429 33 9.96 33H32.04C32.571 33 33 32.571 33 32.04V9.96C33 9.429 32.571 9 32.04 9ZM29.268 16.005H27.351C25.848 16.005 25.557 16.719 25.557 17.769V20.082H29.145L28.677 23.703H25.557V33H21.816V23.706H18.687V20.082H21.816V17.412C21.816 14.313 23.709 12.624 26.475 12.624C27.801 12.624 28.938 12.723 29.271 12.768V16.005H29.268Z" fill="#0E0F11"/>
</svg>
