<svg width="513" height="499" viewBox="0 0 513 499" fill="none" xmlns="http://www.w3.org/2000/svg">
<path d="M237.189 8.21795e-06V1.00001C344.499 1.00001 444.197 61.5227 482.136 165C521.325 271.888 479.638 393.816 385.189 456.667C362.128 472.012 333.024 487.249 305.189 491C310.372 493.023 317.922 490.156 323.189 488.87C339.303 484.937 355.189 479.304 370.189 472.219C436.237 441.022 484.285 382.079 503.765 312C535.436 198.06 476.698 71.6664 369.189 22.3087C325.734 2.35813 283.938 -0.00509178 237.189 8.21795e-06Z" fill="#BF9101"/>
<path d="M460.189 378H459.189C443.008 407.064 417.565 433.018 390.189 451.656C346.077 481.688 292.913 499.313 239.189 496.961C89.8843 490.423 -22.8458 347.143 6.38848 201C12.5772 170.062 25.0503 140.256 42.5219 114C64.0333 81.6737 92.3835 54.5418 126.189 35.2809C165.416 12.9307 209.153 1.92774 254.189 2.00001C291.737 2.06025 331.308 13.5234 364.189 31.3087C378.672 39.1424 391.301 49.351 405.189 58C400.096 47.9711 383.725 40.3246 374.189 34.8503C341.679 16.187 305.61 4.65431 268.189 1.91126C130.535 -8.17919 6.32675 98.722 0.227985 238C-6.10924 382.723 120.575 511.358 267.189 497.17C326.837 491.398 382.341 467.901 425.189 425C437.063 413.111 456.223 394.877 460.189 378Z" fill="#D9A509"/>
<path d="M234.189 2.4244C175.684 10.1061 123.335 27.9663 79.1886 69.0895C57.6197 89.1814 40.0761 113.667 26.9417 140C-42.4663 279.156 38.4944 451.951 189.189 489.625C219.338 497.162 250.443 498.761 281.189 494.718C398.469 479.297 490.973 378.201 496.15 260C501.374 140.7 415.33 30.6324 298.189 7.19982C277.775 3.11632 255.001 -0.308242 234.189 2.4244Z" fill="#E9C34F"/>
<path d="M233.189 36.4244C187.15 42.4693 144.74 55.9919 108.613 86.7137C89.2178 103.208 73.6631 123.887 61.3283 146C13.2754 232.146 33.1004 348.07 108.613 412.286C153.792 450.706 215.479 468.759 274.189 461.715C306.437 457.845 337.843 446.912 365.189 429.308C468.21 362.986 494.674 212.566 417.14 116.196C389.871 82.3032 352.634 57.7217 311.189 44.9753C286.971 37.527 258.511 33.0997 233.189 36.4244Z" fill="#D7A301"/>
<path d="M240.189 44.4244C198.702 49.8743 160.552 61.3984 126.779 87.3411C106.668 102.789 89.9744 122.539 76.6138 144C23.2202 229.765 44.6566 345.528 122.613 409.28C167.845 446.27 227.704 461.865 285.189 453.715C313.697 449.673 340.726 438.735 365.189 423.796C384.716 411.872 401.865 395.925 415.978 378C486.228 288.777 469.938 151.691 377.189 84.4252C357.568 70.195 335.516 58.9883 312.189 52.2909C289.67 45.8256 263.635 41.3445 240.189 44.4244Z" fill="#E9C34F"/>
<path d="M460.189 121C468.648 144.238 481.893 164.583 488.305 189C500.649 236.008 497.74 285.221 481.845 331C476.144 347.418 466.05 361.899 460.189 378C472.217 367.696 478.94 344.693 483.856 330C500.644 279.817 501.98 224.503 485.519 174C480.261 157.866 473.418 132.332 460.189 121Z" fill="#D9A505"/>
<path d="M249.189 146C252.492 160.062 264.68 174.995 272.079 187.425C280.352 201.322 286.794 217.584 297.189 230C298.586 222.77 291.962 214.998 288.39 209C279.543 194.146 271.401 178.875 262.586 164C259.214 158.311 255.837 148.079 249.189 146Z" fill="#BF8F01"/>
<path d="M248.189 147L216.329 204L203.189 229L201.189 227C195.072 230.358 184.397 224.785 178.189 222.974C160.603 217.843 138.401 208.529 120.189 208V211C127.946 215.402 131.542 230.211 135.436 238L167.436 302C170.755 308.638 174.683 322.683 180.826 326.972C184.56 329.579 192.82 328 197.189 328C211.246 328 225.154 326.995 239.189 327C258.459 327.007 277.844 328 297.189 328C303.414 328 314.117 330.069 319.799 327.397C326.872 324.069 332.502 304.88 335.942 298C345.911 278.061 355.223 257.809 365.447 238C370.377 228.448 378.272 217.622 380.189 207C376.648 207.464 370.723 208.071 370.189 212C360.657 210.31 350.272 215.197 341.189 217.975C326.343 222.516 311.15 225.812 296.189 230C293.058 219.356 284.756 209.458 279.295 199.844C269.794 183.117 261.483 160.892 248.189 147Z" fill="#D7A301"/>
<path d="M117.189 204C120.932 209.94 133.249 211.193 139.765 213.08C159.699 218.852 180.633 225.978 201.189 229C197.32 223.895 185.265 222.589 179.189 220.86C159.727 215.32 137.414 204.924 117.189 204Z" fill="#BF8F01"/>
<path d="M381.189 206C367.127 235.538 352.073 264.726 337.436 294C333.251 302.37 327.738 321.908 319.799 326.972C311.903 332.009 290.523 328 281.189 328H179.189V329C214.238 329 249.186 330 284.189 330H311.189C314.474 330 319.704 330.96 322.552 328.972C330.578 323.369 336.065 303.743 340.436 295C354.988 265.897 371.686 237.032 384.189 207L381.189 206Z" fill="#BF9101"/>
<path d="M120.189 211C136.615 250.453 157.65 291.097 179.189 328H180.189C177.096 317.265 170.427 306.981 165.436 297L136.436 239C132.822 231.773 128.132 213.713 120.189 211Z" fill="#DFB123"/>
<path d="M221.189 327V328H249.189L221.189 327Z" fill="#E3B735"/>
</svg>
