<svg width="121" height="61" viewBox="0 0 121 61" fill="none" xmlns="http://www.w3.org/2000/svg">
<path d="M51.9394 24.7532C51.767 24.7532 51.6017 24.8217 51.4798 24.9436C51.3579 25.0655 51.2894 25.2309 51.2894 25.4032V29.8872H44.7254V25.4032C44.7273 25.2895 44.6989 25.1773 44.643 25.0782C44.5872 24.9791 44.5059 24.8967 44.4076 24.8395C44.3093 24.7822 44.1975 24.7522 44.0838 24.7525C43.97 24.7528 43.8584 24.7835 43.7604 24.8412C43.6624 24.8983 43.5812 24.9804 43.5254 25.0792C43.4695 25.178 43.4409 25.2898 43.4424 25.4032V35.6392C43.4405 35.753 43.469 35.8652 43.5248 35.9643C43.5807 36.0633 43.662 36.1458 43.7603 36.203C43.8586 36.2602 43.9703 36.2903 44.0841 36.29C44.1978 36.2896 44.3094 36.259 44.4074 36.2012C44.5055 36.1442 44.5866 36.062 44.6425 35.9633C44.6984 35.8645 44.727 35.7527 44.7254 35.6392V31.0892H51.2994V35.6392C51.2975 35.753 51.326 35.8652 51.3818 35.9643C51.4377 36.0633 51.519 36.1458 51.6173 36.203C51.7156 36.2602 51.8273 36.2903 51.9411 36.29C52.0548 36.2896 52.1664 36.259 52.2644 36.2012C52.3625 36.1442 52.4436 36.062 52.4995 35.9633C52.5554 35.8645 52.584 35.7527 52.5824 35.6392V25.4032C52.5825 25.2336 52.5162 25.0706 52.3977 24.9492C52.2793 24.8277 52.118 24.7574 51.9484 24.7532H51.9394ZM60.8754 25.2732C60.8215 25.1055 60.715 24.9595 60.5716 24.857C60.4282 24.7545 60.2556 24.701 60.0794 24.7042H60.0144C59.6084 24.7042 59.3644 24.9042 59.2024 25.2742L54.5884 35.3742C54.5345 35.4798 54.5067 35.5967 54.5074 35.7152C54.5069 35.7921 54.5217 35.8682 54.5509 35.9393C54.5801 36.0104 54.6231 36.0749 54.6774 36.1292C54.7774 36.2292 54.9374 36.2992 55.0914 36.2992C55.3714 36.3022 55.6214 36.1252 55.7094 35.8592L56.8954 33.2112H63.1354L64.3214 35.8272C64.3674 35.9604 64.4525 36.0767 64.5657 36.1607C64.6788 36.2447 64.8146 36.2927 64.9554 36.2982C65.1194 36.2982 65.2754 36.2332 65.3924 36.1182C65.45 36.061 65.4956 35.9929 65.5265 35.9179C65.5574 35.8428 65.573 35.7624 65.5724 35.6812C65.5666 35.5688 65.5394 35.4585 65.4924 35.3562L60.8754 25.2732ZM57.3984 32.0332L60.0144 26.2172L62.6304 32.0332H57.3984Z" fill="#4A00D8"/>
<path d="M72.4116 24.835H68.1556C67.986 24.8391 67.8247 24.9095 67.7063 25.0309C67.5878 25.1524 67.5215 25.3153 67.5216 25.485V35.639C67.5197 35.7527 67.5481 35.8649 67.604 35.964C67.6598 36.0631 67.7411 36.1455 67.8394 36.2027C67.9377 36.26 68.0495 36.29 68.1632 36.2897C68.277 36.2894 68.3886 36.2587 68.4866 36.201C68.5846 36.1439 68.6658 36.0618 68.7216 35.963C68.7775 35.8643 68.8061 35.7524 68.8046 35.639V31.789H72.0706L75.2706 35.949C75.3361 36.0498 75.4249 36.1335 75.5295 36.1928C75.6341 36.2521 75.7514 36.2855 75.8716 36.29C76.0397 36.2852 76.1999 36.2173 76.3203 36.0999C76.4408 35.9824 76.5126 35.8239 76.5216 35.656C76.5138 35.4778 76.4383 35.3094 76.3106 35.185L73.4836 31.545C75.2536 31.205 76.5216 30.115 76.5216 28.247V28.215C76.5301 27.8019 76.457 27.3913 76.3065 27.0066C76.156 26.6219 75.931 26.2706 75.6446 25.973C74.9296 25.258 73.8086 24.836 72.4116 24.836V24.835ZM75.2116 28.295C75.2116 29.757 73.9936 30.635 72.2876 30.635H68.7946V26.021H72.2946C74.1306 26.021 75.2026 26.866 75.2026 28.263L75.2116 28.295Z" fill="#4A00D8"/>
<path d="M85.5076 30.3266C86.4006 29.9266 87.3106 29.1736 87.3106 27.6946V27.6626C87.3206 26.9826 87.0586 26.3266 86.5806 25.8426C85.9306 25.2086 84.9076 24.8356 83.6076 24.8356H79.3996C79.23 24.8398 79.0688 24.9101 78.9503 25.0316C78.8319 25.153 78.7656 25.316 78.7656 25.4856V35.5596C78.7656 35.7293 78.8319 35.8923 78.9503 36.0137C79.0688 36.1352 79.23 36.2055 79.3996 36.2096H83.8196C86.3056 36.2096 87.9466 35.0556 87.9466 33.1066V33.0736C87.9466 31.5136 86.8466 30.7336 85.5096 30.3276L85.5076 30.3266ZM80.0326 25.9896H83.4926C85.1176 25.9896 86.0106 26.7196 86.0106 27.8416V27.8736C86.0106 29.2056 84.9386 29.9036 83.3946 29.9036H80.0316L80.0326 25.9896ZM86.6446 33.0246C86.6446 34.2916 85.5726 35.0546 83.8506 35.0546H80.0326V31.0416H83.6326C85.6146 31.0416 86.6546 31.7566 86.6546 32.9916L86.6446 33.0246ZM95.3046 24.6396C91.8446 24.6396 89.4886 27.3856 89.4886 30.5196V30.5516C89.4886 33.6876 91.8116 36.4016 95.2726 36.4016C98.7336 36.4016 101.09 33.6556 101.09 30.5196V30.4896C101.09 27.3536 98.7656 24.6396 95.3046 24.6396ZM99.7566 30.5536C99.7566 33.1366 97.9046 35.2166 95.3046 35.2166C92.7046 35.2166 90.8206 33.1046 90.8206 30.5216V30.4896C90.8206 27.9066 92.6726 25.8266 95.2726 25.8266C97.8726 25.8266 99.7566 27.9386 99.7566 30.5216V30.5536Z" fill="#4A00D8"/>
<path d="M108.19 24.835H103.934C103.764 24.8391 103.603 24.9095 103.485 25.0309C103.366 25.1524 103.3 25.3153 103.3 25.485V35.639C103.298 35.7527 103.326 35.8649 103.382 35.964C103.438 36.0631 103.519 36.1455 103.618 36.2027C103.716 36.26 103.828 36.29 103.942 36.2897C104.055 36.2894 104.167 36.2587 104.265 36.201C104.363 36.1439 104.444 36.0618 104.5 35.963C104.556 35.8643 104.584 35.7524 104.583 35.639V31.789H107.849L111.049 35.949C111.114 36.0498 111.203 36.1335 111.308 36.1928C111.412 36.2521 111.53 36.2855 111.65 36.29C111.818 36.2852 111.978 36.2173 112.099 36.0999C112.219 35.9824 112.291 35.8239 112.3 35.656C112.292 35.4778 112.217 35.3094 112.089 35.185L109.262 31.545C111.032 31.205 112.3 30.115 112.3 28.247V28.215C112.308 27.8019 112.235 27.3913 112.085 27.0066C111.934 26.6219 111.709 26.2706 111.423 25.973C110.708 25.258 109.587 24.836 108.19 24.836V24.835ZM110.99 28.295C110.99 29.757 109.772 30.635 108.066 30.635H104.573V26.021H108.073C109.909 26.021 110.981 26.866 110.981 28.263L110.99 28.295Z" fill="#4A00D8"/>
<path d="M16.8924 38.0416L16.6924 40.1886C18.47 41.3301 20.5265 41.9627 22.6384 42.0176L22.5164 40.5246L16.8924 38.0416ZM17.3624 32.7196L22.0564 34.7896L21.7324 30.8296H22.3464V29.5066H21.8904V26.8066H22.3464V26.0306L19.8144 23.5536V23.3896C19.8139 23.3265 19.7885 23.2661 19.7437 23.2215C19.699 23.177 19.6385 23.1519 19.5754 23.1516C19.5122 23.1519 19.4518 23.177 19.407 23.2215C19.3623 23.2661 19.3369 23.3265 19.3364 23.3896V23.5636L16.8044 26.0406V26.8166H17.2604V29.5166H16.8044V30.8396H17.5284L17.3624 32.7196ZM17.9944 26.8076H21.1584V29.5076H20.4084V28.3546C20.4084 28.1342 20.3208 27.9228 20.165 27.767C20.0091 27.6111 19.7978 27.5236 19.5774 27.5236C19.357 27.5236 19.1456 27.6111 18.9898 27.767C18.8339 27.9228 18.7464 28.1342 18.7464 28.3546V29.5076H17.9964L17.9944 26.8076ZM17.1674 34.9346L17.0874 35.8266L22.3304 38.1266L22.2504 37.1646L17.1674 34.9346ZM22.3994 38.8496L17.0294 36.4896L16.9494 37.3816L22.4664 39.8116L22.3994 38.8496ZM22.1944 36.4636L22.1144 35.5016L17.3144 33.3816L17.2344 34.2746L22.1944 36.4636ZM33.7344 24.6136L35.7074 23.9796L35.6814 23.9246C35.2527 23.088 34.7429 22.2955 34.1594 21.5586L32.3094 22.5166C32.8564 23.1643 33.3346 23.8671 33.7364 24.6136H33.7344Z" fill="#4A00D8"/>
<path d="M33.1455 24.7516L33.1685 24.7946L33.7345 24.6126C33.3327 23.8661 32.8545 23.1633 32.3075 22.5156L31.7725 22.7926C32.2958 23.397 32.7559 24.0535 33.1455 24.7516ZM35.1575 29.6396L37.2135 29.7866C37.1835 29.0816 37.1135 28.3796 36.9705 27.6866L34.8965 27.7566C35.0325 28.3762 35.1201 29.0054 35.1585 29.6386L35.1575 29.6396Z" fill="#4A00D8"/>
<path d="M34.3026 27.7894C34.4398 28.388 34.5291 28.9966 34.5696 29.6094L35.1576 29.6514C35.1193 29.0182 35.0317 28.389 34.8956 27.7694L34.3026 27.7894ZM22.9656 42.6034C22.8656 42.6034 22.7856 42.5984 22.6956 42.5964L22.7736 43.5564L16.5776 41.5884L16.6436 40.8434C14.7882 39.7217 13.2645 38.1266 12.2291 36.2216C11.1937 34.3167 10.6838 32.1705 10.7516 30.0034C10.8896 25.5904 13.3986 21.5964 17.3116 19.5554C21.2246 17.5144 25.9366 17.7434 29.6346 20.1554L31.0746 18.6574C25.9306 15.1014 19.0706 15.3094 14.1526 19.1704C11.7564 21.0512 10.0255 23.6499 9.2134 26.5858C8.40127 29.5217 8.55064 32.6406 9.63961 35.4854C10.7284 38.3307 12.6992 40.7528 15.2636 42.3974C17.8281 44.042 20.8515 44.8228 23.8916 44.6254C30.1336 44.2194 35.3796 39.7954 36.8366 33.7254L34.8906 33.0504C34.2866 35.763 32.7761 38.1886 30.6082 39.9273C28.4403 41.6659 25.7446 42.6138 22.9656 42.6144V42.6034Z" fill="#4A00D8"/>
<path d="M22.9655 42.025C22.8595 42.025 22.7535 42.02 22.6485 42.017L22.6955 42.597L22.9655 42.604C25.7444 42.6033 28.4402 41.6555 30.6081 39.9168C32.7759 38.1782 34.2865 35.7525 34.8905 33.04L34.3405 32.84C33.7745 35.4369 32.3382 37.7626 30.2696 39.4316C28.2011 41.1006 25.6244 42.0127 22.9665 42.017L22.9655 42.025ZM11.3255 30.385C11.3239 28.2978 11.8841 26.2486 12.9472 24.4525C14.0104 22.6564 15.5373 21.1794 17.3678 20.1766C19.1983 19.1738 21.2649 18.6821 23.3509 18.7531C25.4369 18.8241 27.4654 19.4551 29.2235 20.58L29.6235 20.152C27.8066 18.9708 25.7087 18.2931 23.5442 18.1882C21.3796 18.0833 19.226 18.555 17.3035 19.555C15.3817 20.558 13.7613 22.0541 12.6085 23.89C11.4557 25.7258 10.812 27.8353 10.7435 30.002C10.6035 34.414 12.8555 38.557 16.6435 40.842L16.7015 40.188C15.0548 39.1366 13.6992 37.6876 12.7597 35.9746C11.8202 34.2616 11.3269 32.3387 11.3255 30.385ZM16.5795 41.587L22.7755 43.555L22.6975 42.595C20.5615 42.552 18.4745 41.947 16.6475 40.841L16.5795 41.587Z" fill="#4A00D8"/>
<path d="M16.6445 40.8421C18.4723 41.9475 20.5589 42.5525 22.6945 42.5961L22.6475 42.0161C20.5356 41.9612 18.4792 41.3286 16.7015 40.1871L16.6445 40.8421ZM32.3075 22.5161L34.1575 21.5581L33.9105 21.2441C33.1921 20.3825 32.3729 19.6104 31.4705 18.9441L31.0775 18.6641L29.6375 20.1621C30.6381 20.8156 31.5379 21.6116 32.3085 22.5251L32.3075 22.5161Z" fill="#4A00D8"/>
<path d="M22.4678 27.6093L32.3078 22.5173C31.5372 21.6039 30.6373 20.8078 29.6368 20.1543L29.2368 20.5823L22.4678 27.6093Z" fill="#4A00D8"/>
<path d="M37.2135 29.7866L35.1575 29.6386L35.1825 30.3846C35.182 31.2769 35.0841 32.1665 34.8905 33.0376L36.8365 33.7126L36.8595 33.6126C37.108 32.5508 37.2338 31.4641 37.2345 30.3736L37.2315 30.2606L37.2135 29.7746V29.7866Z" fill="#4A00D8"/>
<path d="M35.158 29.6395L22.458 28.7395L34.88 33.0395C35.0737 32.1684 35.1716 31.2788 35.172 30.3865L35.147 29.6405L35.158 29.6395ZM34.896 27.7575L36.97 27.6875L36.842 27.0735C36.5854 26.0015 36.2045 24.9631 35.707 23.9795L33.734 24.6135C34.2651 25.603 34.6561 26.6604 34.896 27.7575Z" fill="#4A00D8"/>
<path d="M22.6514 28.1743L34.8964 27.7573C34.6565 26.6602 34.2654 25.6018 33.7344 24.6123L33.1684 24.7943L22.6514 28.1743Z" fill="#4A00D8"/>
</svg>
