<svg width="24" height="24" viewBox="0 0 24 24" fill="none" xmlns="http://www.w3.org/2000/svg">
<path d="M17.811 18.873L15.6795 16.74C14.6279 17.5586 13.3327 18.0021 12 18C10.6673 18.0021 9.37214 17.5586 8.3205 16.74L6.189 18.873C7.81212 20.2493 9.87193 21.0032 12 21C14.2155 21 16.245 20.199 17.811 18.873ZM18.873 17.811C20.2493 16.1879 21.0032 14.1281 21 12C21 9.7845 20.199 7.755 18.873 6.189L16.74 8.3205C17.529 9.3375 18 10.614 18 12C18 13.386 17.529 14.6625 16.74 15.6795L18.873 17.811ZM17.811 5.127C16.1879 3.75071 14.1281 2.99675 12 3C9.7845 3 7.755 3.801 6.189 5.127L8.3205 7.26C9.37214 6.44137 10.6673 5.99786 12 6C13.386 6 14.6625 6.471 15.6795 7.26L17.811 5.127ZM5.127 6.189C3.75071 7.81212 2.99675 9.87193 3 12C3 14.2155 3.801 16.245 5.127 17.811L7.26 15.6795C6.44137 14.6279 5.99786 13.3327 6 12C6 10.614 6.471 9.3375 7.26 8.3205L5.127 6.189ZM14.907 15.435C15.0971 15.2737 15.2737 15.0971 15.435 14.907C16.0995 14.1225 16.5 13.107 16.5 12C16.5012 11.3459 16.3592 10.6994 16.084 10.106C15.8088 9.51261 15.4071 8.98663 14.907 8.565C14.0952 7.87609 13.0647 7.49857 12 7.5C11.3459 7.49878 10.6994 7.64076 10.106 7.91595C9.51261 8.19115 8.98663 8.5929 8.565 9.093C7.9005 9.8775 7.5 10.893 7.5 12C7.49878 12.6541 7.64076 13.3006 7.91595 13.894C8.19115 14.4874 8.5929 15.0134 9.093 15.435C9.8775 16.0995 10.893 16.5 12 16.5C13.1085 16.5 14.1225 16.0995 14.907 15.435ZM12 22.5C9.21523 22.5 6.54451 21.3938 4.57538 19.4246C2.60625 17.4555 1.5 14.7848 1.5 12C1.5 9.21523 2.60625 6.54451 4.57538 4.57538C6.54451 2.60625 9.21523 1.5 12 1.5C14.7848 1.5 17.4555 2.60625 19.4246 4.57538C21.3938 6.54451 22.5 9.21523 22.5 12C22.5 14.7848 21.3938 17.4555 19.4246 19.4246C17.4555 21.3938 14.7848 22.5 12 22.5Z" fill="#151515"/>
</svg>
