<svg width="18" height="18" viewBox="0 0 18 18" fill="none" xmlns="http://www.w3.org/2000/svg">
<path d="M17.7288 8.85941L9.45405 0.590664C9.39447 0.530967 9.3237 0.483606 9.24579 0.451291C9.16788 0.418977 9.08437 0.402344 9.00003 0.402344C8.91569 0.402344 8.83217 0.418977 8.75427 0.451291C8.67636 0.483606 8.60559 0.530967 8.54601 0.590664L0.271233 8.85941C0.0301618 9.10049 -0.106445 9.42794 -0.106445 9.76946C-0.106445 10.4786 0.470117 11.0552 1.17927 11.0552H2.05114V16.9554C2.05114 17.311 2.33842 17.5983 2.694 17.5983H7.71431V13.0983H9.96431V17.5983H15.3061C15.6616 17.5983 15.9489 17.311 15.9489 16.9554V11.0552H16.8208C17.1623 11.0552 17.4898 10.9206 17.7308 10.6775C18.2311 10.1753 18.2311 9.36165 17.7288 8.85941Z" fill="black" fill-opacity="0.45"/>
</svg>
