<svg width="42" height="42" viewBox="0 0 42 42" fill="none" xmlns="http://www.w3.org/2000/svg">
<rect width="42" height="42" rx="8" fill="#FFD600"/>
<path d="M20.9968 16.9981C18.7933 16.9981 16.9951 18.7963 16.9951 20.9998C16.9951 23.2032 18.7933 25.0014 20.9968 25.0014C23.2002 25.0014 24.9984 23.2032 24.9984 20.9998C24.9984 18.7963 23.2002 16.9981 20.9968 16.9981ZM32.9987 20.9998C32.9987 19.3427 33.0137 17.7006 32.9206 16.0465C32.8275 14.1253 32.3893 12.4201 30.9843 11.0152C29.5764 9.60729 27.8743 9.17201 25.953 9.07894C24.2959 8.98588 22.6539 9.00089 20.9998 9.00089C19.3427 9.00089 17.7006 8.98588 16.0465 9.07894C14.1253 9.17201 12.4201 9.61029 11.0152 11.0152C9.60729 12.4231 9.17201 14.1253 9.07894 16.0465C8.98588 17.7036 9.00089 19.3457 9.00089 20.9998C9.00089 22.6539 8.98588 24.2989 9.07894 25.953C9.17201 27.8743 9.61029 29.5794 11.0152 30.9843C12.4231 32.3923 14.1253 32.8275 16.0465 32.9206C17.7036 33.0137 19.3457 32.9987 20.9998 32.9987C22.6569 32.9987 24.2989 33.0137 25.953 32.9206C27.8743 32.8275 29.5794 32.3893 30.9843 30.9843C32.3923 29.5764 32.8275 27.8743 32.9206 25.953C33.0167 24.2989 32.9987 22.6569 32.9987 20.9998ZM20.9968 27.1568C17.5895 27.1568 14.8397 24.407 14.8397 20.9998C14.8397 17.5925 17.5895 14.8427 20.9968 14.8427C24.404 14.8427 27.1538 17.5925 27.1538 20.9998C27.1538 24.407 24.404 27.1568 20.9968 27.1568ZM27.406 16.0285C26.6105 16.0285 25.968 15.3861 25.968 14.5906C25.968 13.795 26.6105 13.1526 27.406 13.1526C28.2015 13.1526 28.8439 13.795 28.8439 14.5906C28.8442 14.7795 28.8071 14.9666 28.735 15.1411C28.6628 15.3157 28.5569 15.4743 28.4233 15.6079C28.2897 15.7414 28.1311 15.8474 27.9565 15.9195C27.782 15.9917 27.5949 16.0287 27.406 16.0285Z" fill="#0E0F11"/>
</svg>
