<svg width="20" height="20" viewBox="0 0 20 20" fill="none" xmlns="http://www.w3.org/2000/svg">
<path d="M14.1133 0.5C17.3338 0.5 19.4998 2.76097 19.4998 6.11444V13.8758C19.4998 17.2388 17.3338 19.4998 14.1133 19.4998H5.87694C2.65743 19.4998 0.5 17.2388 0.5 13.8758V6.11444C0.5 2.76097 2.65743 0.5 5.87694 0.5H14.1133ZM9.99989 5.41144C9.6009 5.41144 9.2874 5.72494 9.2874 6.12394V12.1564L6.94093 9.8004C6.80793 9.6674 6.61793 9.5914 6.43743 9.5914C6.25789 9.5914 6.07644 9.6674 5.93394 9.8004C5.65844 10.0759 5.65844 10.5319 5.93394 10.8074L9.4964 14.3888C9.7624 14.6548 10.2374 14.6548 10.5034 14.3888L14.0658 10.8074C14.3413 10.5319 14.3413 10.0759 14.0658 9.8004C13.7809 9.5249 13.3344 9.5249 13.0494 9.8004L10.7124 12.1564V6.12394C10.7124 5.72494 10.3894 5.41144 9.99989 5.41144Z" fill="#1B193F"/>
</svg>
