<svg width="121" height="61" viewBox="0 0 121 61" fill="none" xmlns="http://www.w3.org/2000/svg">
<path d="M108.755 31.2393C108.4 29.9371 107.25 29.1082 105.914 29.1082C104.696 29.1082 103.53 30.0552 103.276 31.2393H108.755ZM110.328 33.9113C109.618 35.6362 107.944 36.803 106.067 36.803C103.428 36.803 101.314 34.7398 101.314 32.0845C101.314 29.4125 103.327 27.2648 106.016 27.2648C107.267 27.2648 108.519 27.8229 109.398 28.7193C110.295 29.6662 110.667 30.8163 110.667 32.1014L110.599 32.8287H103.293C103.564 34.0803 104.714 34.9931 105.999 34.9931C106.895 34.9931 107.673 34.6551 108.18 33.911L110.328 33.9113ZM91.7264 29.4631H90.5595V27.5353H93.7896V28.8205C94.3309 27.8228 95.3454 27.3322 96.4614 27.3322C97.4424 27.3322 98.4062 27.7382 99.0659 28.4485C99.8099 29.2772 99.8269 30.0721 99.8269 31.1036V34.6382H100.994V36.566H96.597V34.6382H97.7637V31.7124C97.7637 31.1542 97.7637 30.5793 97.4085 30.0887C97.0365 29.5985 96.4277 29.3618 95.8189 29.3618C95.1931 29.3618 94.5505 29.6154 94.1786 30.1226C93.7896 30.6298 93.7896 31.4078 93.7896 32.0169V34.6382H94.9563V36.566H90.5595V34.6382H91.7264V29.4631ZM88.767 26.6728H86.7038V24.4912H88.767V26.6728ZM88.767 34.6382H89.9339V36.566H85.5199V34.6382H86.7038V29.4631H85.5369V27.5352H88.767V34.6382ZM70.1304 29.4629H68.9637V27.535H72.0077V28.8879C72.5827 27.9409 73.4621 27.3152 74.612 27.3152C75.8634 27.3152 76.912 28.0761 77.4192 29.2093C77.9098 28.0593 79.1274 27.3152 80.3788 27.3152C81.3598 27.3152 82.3238 27.7209 82.9831 28.4651C83.6935 29.2939 83.6935 30.1901 83.6935 31.2216V34.638H84.8604V36.5658H80.4632V34.638H81.6303V31.7291C81.6303 31.1371 81.6303 30.6128 81.3598 30.0885C81.0215 29.5983 80.4632 29.3444 79.8886 29.3444C79.3305 29.3444 78.7215 29.5813 78.3665 30.0208C77.9436 30.5622 77.9436 31.0695 77.9436 31.7291V34.638H79.1105V36.5658H74.7135V34.638H75.8805V31.8645C75.8805 31.3232 75.8805 30.6469 75.61 30.1733C75.3224 29.6323 74.7304 29.3446 74.1216 29.3446C73.5466 29.3446 73.0562 29.5476 72.6842 30.0044C72.2273 30.5623 72.1936 31.1542 72.1936 31.8476V34.638H73.3605V36.5659H68.9637V34.638H70.1304V29.4629ZM63.3876 33.9451C63.4553 34.7569 63.9964 35.2979 64.842 35.2979C65.4678 35.2979 66.0764 34.8585 66.0764 34.182C66.0764 33.2855 65.231 33.1334 64.5375 32.9474C62.9647 32.5416 61.2397 32.051 61.2397 30.0725C61.2397 28.3474 62.6942 27.3498 64.3009 27.3498C65.1124 27.3498 65.8396 27.519 66.347 28.1614V27.5358H67.8691V29.988H65.8734C65.8396 29.3451 65.3492 28.9224 64.7067 28.9224C64.1486 28.9224 63.5567 29.2437 63.5567 29.8694C63.5567 30.715 64.3854 30.901 65.0449 31.0531C66.6683 31.4252 68.4102 31.9328 68.4102 33.9621C68.4102 35.7885 66.8713 36.8031 65.1803 36.8031C64.2668 36.8031 63.4381 36.5157 62.8463 35.8223V36.5663H61.2737V33.945L63.3876 33.9451ZM57.4674 32.0005C57.4674 30.5121 56.2328 29.3114 54.7447 29.3114C53.2058 29.3114 52.0219 30.5799 52.0219 32.1018C52.0219 33.5733 53.2565 34.7908 54.7109 34.7908C56.2666 34.7908 57.4674 33.5394 57.4674 32.0005ZM57.4337 35.3489C56.774 36.3466 55.7087 36.8033 54.5248 36.8033C51.9373 36.8033 49.8912 34.6556 49.8912 32.1018C49.8912 29.4805 51.9882 27.299 54.6263 27.299C55.7932 27.299 56.8079 27.8401 57.4337 28.821V27.5358H60.6638V29.4636H59.5306V34.6387H60.6638V36.5666H57.4337V35.3489ZM43.4981 33.1675C43.5151 33.9117 43.9718 34.6725 44.8174 34.6725C45.3247 34.6725 45.6967 34.4359 45.9505 34.0131C46.1871 33.5902 46.1871 32.9646 46.1871 32.4911V26.42H44.8681V24.492H49.7892V26.42H48.4872V32.7786C48.4872 33.861 48.4193 34.7064 47.6585 35.586C46.982 36.3639 45.8828 36.8036 44.8342 36.8036C42.6695 36.8036 41.012 35.3661 41.0969 33.1677L43.4981 33.1675Z" fill="#8A4182"/>
<path d="M22.8838 28.0512H24.9916L25.5152 27.3304V21.6836H22.3604V27.3308L22.8838 28.0512Z" fill="#8A4182"/>
<path d="M23.4737 39.063H24.348V34.7704H23.4737V39.063ZM15.679 33.3601L15.409 32.5285L19.4912 31.2026L19.7611 32.0341L15.679 33.3601ZM20.9464 26.8261L18.4237 23.3533L19.1313 22.8393L21.6539 26.3123L20.9464 26.8261ZM26.9733 26.8579L26.2659 26.3441L28.7888 22.871L29.4963 23.3848L26.9733 26.8579ZM32.1799 33.4123L28.0974 32.0856L28.3675 31.2539L32.4498 32.5806L32.1799 33.4123ZM25.6988 28.5649L26.3504 30.5698L27.1978 30.8447L32.5682 29.1001L31.5934 26.0997L26.2226 27.8449L25.6988 28.5649ZM26.0824 31.4012L24.3769 32.6401L24.3771 33.5308L27.6961 38.0994L30.2487 36.2452L26.929 31.6764L26.0824 31.4012ZM23.5027 32.6405L21.7976 31.4012L20.9501 31.677L17.6311 36.2453L20.1832 38.0995L23.5027 33.5309L23.5027 32.6405ZM21.5272 30.5699L22.1785 28.5653L21.6547 27.8444L16.2843 26.0995L15.3094 29.0998L20.6807 30.845L21.5272 30.5699ZM23.9408 16.7822C16.4376 16.7822 10.333 22.8856 10.333 30.3877C10.333 37.8925 16.4376 43.9978 23.9408 43.9978C31.4433 43.9978 37.547 37.8925 37.547 30.3877C37.547 22.8856 31.4433 16.7822 23.9408 16.7822ZM23.9408 19.5371C29.9325 19.5371 34.7919 24.3944 34.7919 30.3877C34.7919 36.3831 29.9325 41.2425 23.9408 41.2425C17.9468 41.2425 13.0883 36.3831 13.0883 30.3877C13.0883 24.3944 17.9468 19.5371 23.9408 19.5371Z" fill="#8A4182"/>
</svg>
