<svg width="20" height="20" viewBox="0 0 20 20" fill="none" xmlns="http://www.w3.org/2000/svg">
<path d="M9.99995 6.67495C9.18865 6.67495 8.4638 7.04545 7.985 7.62495C7.68955 7.98301 7.49484 8.41333 7.42091 8.87163C7.34698 9.32992 7.3965 9.79964 7.56438 10.2324C7.73225 10.6652 8.01242 11.0455 8.37605 11.3341C8.73968 11.6226 9.17363 11.8091 9.63325 11.8743C10.258 10.6691 11.326 9.75331 12.6125 9.31975V9.28745C12.6125 8.6557 12.3883 8.0762 12.0149 7.62495C11.5361 7.04545 10.8113 6.67495 9.99995 6.67495ZM18.2431 10.8759C17.6742 10.21 16.9467 9.69828 16.1278 9.3878C15.3089 9.07731 14.425 8.97811 13.5577 9.09935C13.5314 8.58421 13.393 8.08102 13.1521 7.62495H17.125C17.5029 7.62495 17.8653 7.77508 18.1326 8.04232C18.3998 8.30956 18.55 8.67202 18.55 9.04995V9.52495C18.55 9.98095 18.4455 10.4408 18.2431 10.8759ZM9.2466 12.85C9.11567 13.3136 9.04949 13.7932 9.04995 14.275C9.04995 15.9821 9.8679 17.4974 11.1343 18.4502C10.7599 18.5174 10.3803 18.5508 9.99995 18.55C7.01695 18.55 5.24995 16.6224 5.24995 14.75V14.275C5.24945 14.0877 5.28597 13.9021 5.3574 13.729C5.42884 13.5559 5.53378 13.3986 5.66621 13.2662C5.79863 13.1338 5.95592 13.0288 6.12903 12.9574C6.30215 12.886 6.48768 12.8494 6.67495 12.85H9.2466ZM4.5992 13.1198C2.5947 12.5773 1.44995 11.0326 1.44995 9.52495V9.04995C1.44995 8.67202 1.60008 8.30956 1.86732 8.04232C2.13456 7.77508 2.49702 7.62495 2.87495 7.62495H6.8488C6.57796 8.1372 6.43673 8.70801 6.43745 9.28745C6.43682 9.77802 6.53778 10.2634 6.73398 10.713C6.93018 11.1627 7.21737 11.5668 7.57745 11.9H6.67495C6.25165 11.8998 5.83601 12.0129 5.47105 12.2273C5.1061 12.4418 4.8051 12.7499 4.5992 13.1198ZM6.19995 1.44995C6.89283 1.44995 7.55733 1.7252 8.04727 2.21513C8.53721 2.70507 8.81245 3.36957 8.81245 4.06245C8.81245 4.75533 8.53721 5.41983 8.04727 5.90977C7.55733 6.39971 6.89283 6.67495 6.19995 6.67495C5.50707 6.67495 4.84257 6.39971 4.35263 5.90977C3.8627 5.41983 3.58745 4.75533 3.58745 4.06245C3.58745 3.36957 3.8627 2.70507 4.35263 2.21513C4.84257 1.7252 5.50707 1.44995 6.19995 1.44995ZM13.8 1.44995C14.4928 1.44995 15.1573 1.7252 15.6473 2.21513C16.1372 2.70507 16.4125 3.36957 16.4125 4.06245C16.4125 4.75533 16.1372 5.41983 15.6473 5.90977C15.1573 6.39971 14.4928 6.67495 13.8 6.67495C13.1071 6.67495 12.4426 6.39971 11.9526 5.90977C11.4627 5.41983 11.1875 4.75533 11.1875 4.06245C11.1875 3.36957 11.4627 2.70507 11.9526 2.21513C12.4426 1.7252 13.1071 1.44995 13.8 1.44995Z" fill="white"/>
<path opacity="0.4" d="M14.275 18.55C15.4088 18.55 16.4962 18.0996 17.2979 17.2979C18.0996 16.4962 18.55 15.4088 18.55 14.275C18.55 13.1412 18.0996 12.0538 17.2979 11.2521C16.4962 10.4504 15.4088 10 14.275 10C13.1412 10 12.0538 10.4504 11.2521 11.2521C10.4504 12.0538 10 13.1412 10 14.275C10 15.4088 10.4504 16.4962 11.2521 17.2979C12.0538 18.0996 13.1412 18.55 14.275 18.55ZM14.275 11.9C14.401 11.9 14.5218 11.95 14.6109 12.0391C14.7 12.1282 14.75 12.249 14.75 12.375V13.8H16.175C16.301 13.8 16.4218 13.85 16.5109 13.9391C16.6 14.0282 16.65 14.149 16.65 14.275C16.65 14.401 16.6 14.5218 16.5109 14.6109C16.4218 14.7 16.301 14.75 16.175 14.75H14.75V16.175C14.75 16.301 14.7 16.4218 14.6109 16.5109C14.5218 16.6 14.401 16.65 14.275 16.65C14.149 16.65 14.0282 16.6 13.9391 16.5109C13.85 16.4218 13.8 16.301 13.8 16.175V14.75H12.375C12.249 14.75 12.1282 14.7 12.0391 14.6109C11.95 14.5218 11.9 14.401 11.9 14.275C11.9 14.149 11.95 14.0282 12.0391 13.9391C12.1282 13.85 12.249 13.8 12.375 13.8H13.8V12.375C13.8 12.249 13.85 12.1282 13.9391 12.0391C14.0282 11.95 14.149 11.9 14.275 11.9Z" fill="white"/>
</svg>
