<svg width="24" height="25" viewBox="0 0 24 25" fill="none" xmlns="http://www.w3.org/2000/svg">
<path d="M21.6128 10.5551L13.5387 2.48105C12.6889 1.63127 11.3111 1.63127 10.4613 2.48105L2.38724 10.5551C1.53746 11.4049 1.53746 12.7827 2.38724 13.6325L10.4613 21.7066C11.3111 22.5564 12.6889 22.5564 13.5387 21.7066L21.6128 13.6325C22.4625 12.7827 22.4625 11.4049 21.6128 10.5551Z" stroke="#FF0000" stroke-width="0.5" stroke-linecap="round" stroke-linejoin="round"/>
<path d="M12 14.2732V12.0938" stroke="#FF0000" stroke-width="0.5" stroke-linecap="round" stroke-linejoin="round"/>
<path d="M3.9295 14.2731C5.1332 14.2731 6.109 13.2973 6.109 12.0936C6.109 10.8899 5.1332 9.91406 3.9295 9.91406C2.7258 9.91406 1.75 10.8899 1.75 12.0936C1.75 13.2973 2.7258 14.2731 3.9295 14.2731Z" stroke="#FF0000" stroke-width="0.5" stroke-linecap="round" stroke-linejoin="round"/>
<path d="M14.2454 12.0938H6.10889" stroke="#FF0000" stroke-width="0.5" stroke-linecap="round" stroke-linejoin="round"/>
</svg>
