<svg width="24" height="24" viewBox="0 0 24 24" fill="none" xmlns="http://www.w3.org/2000/svg">
<path d="M21.6128 10.4614L13.5387 2.3873C12.6889 1.53752 11.3111 1.53752 10.4613 2.3873L2.38724 10.4614C1.53746 11.3112 1.53746 12.6889 2.38724 13.5387L10.4613 21.6128C11.3111 22.4626 12.6889 22.4626 13.5387 21.6128L21.6128 13.5387C22.4625 12.6889 22.4625 11.3112 21.6128 10.4614Z" stroke="#24DF6F" stroke-width="0.5" stroke-linecap="round" stroke-linejoin="round"/>
<path d="M12 14.1795V12" stroke="#24DF6F" stroke-width="0.5" stroke-linecap="round" stroke-linejoin="round"/>
<path d="M3.9295 14.1793C5.1332 14.1793 6.109 13.2035 6.109 11.9998C6.109 10.7961 5.1332 9.82031 3.9295 9.82031C2.7258 9.82031 1.75 10.7961 1.75 11.9998C1.75 13.2035 2.7258 14.1793 3.9295 14.1793Z" stroke="#24DF6F" stroke-width="0.5" stroke-linecap="round" stroke-linejoin="round"/>
<path d="M14.2459 12H6.10938" stroke="#24DF6F" stroke-width="0.5" stroke-linecap="round" stroke-linejoin="round"/>
</svg>
