<svg width="12" height="13" viewBox="0 0 12 13" fill="none" xmlns="http://www.w3.org/2000/svg">
<path d="M11.52 0.5H0.48C0.2145 0.5 0 0.7145 0 0.98V12.02C0 12.2855 0.2145 12.5 0.48 12.5H11.52C11.7855 12.5 12 12.2855 12 12.02V0.98C12 0.7145 11.7855 0.5 11.52 0.5ZM3.84 9.98C3.84 10.046 3.786 10.1 3.72 10.1H2.52C2.454 10.1 2.4 10.046 2.4 9.98V3.02C2.4 2.954 2.454 2.9 2.52 2.9H3.72C3.786 2.9 3.84 2.954 3.84 3.02V9.98ZM6.72 5.78C6.72 5.846 6.666 5.9 6.6 5.9H5.4C5.334 5.9 5.28 5.846 5.28 5.78V3.02C5.28 2.954 5.334 2.9 5.4 2.9H6.6C6.666 2.9 6.72 2.954 6.72 3.02V5.78ZM9.6 6.86C9.6 6.926 9.546 6.98 9.48 6.98H8.28C8.214 6.98 8.16 6.926 8.16 6.86V3.02C8.16 2.954 8.214 2.9 8.28 2.9H9.48C9.546 2.9 9.6 2.954 9.6 3.02V6.86Z" fill="#04FCA3"/>
</svg>
