<svg width="121" height="61" viewBox="0 0 121 61" fill="none" xmlns="http://www.w3.org/2000/svg">
<path fill-rule="evenodd" clip-rule="evenodd" d="M55.605 21.567C55.605 21.342 55.785 21.139 56.032 21.139H58.706C58.93 21.139 59.133 21.342 59.133 21.567V35.137H65.213C65.461 35.137 65.64 35.34 65.64 35.564V38.016C65.64 38.241 65.46 38.444 65.213 38.444H56.033C55.785 38.444 55.606 38.241 55.606 38.016L55.605 21.567ZM67.537 28.319C67.537 28.026 67.762 27.824 68.032 27.824H70.459C70.729 27.824 70.953 28.026 70.953 28.319V37.949C70.9517 38.0797 70.8993 38.2047 70.8069 38.2972C70.7146 38.3897 70.5897 38.4424 70.459 38.444H68.032C67.9011 38.4427 67.776 38.3901 67.6834 38.2976C67.5909 38.205 67.5383 38.0799 67.537 37.949V28.319ZM67.29 23.119C67.29 22.039 68.144 21.139 69.223 21.139C70.302 21.139 71.178 22.039 71.178 23.119C71.178 24.176 70.301 25.054 69.223 25.054C68.145 25.054 67.3 24.177 67.3 23.12L67.29 23.119ZM72.857 28.544C72.857 28.251 73.082 28.049 73.351 28.049H74.351C74.508 28.049 74.711 28.161 74.823 28.364L75.205 29.399C75.765 28.769 76.553 27.824 78.44 27.824C81.676 27.824 82.777 30.119 82.777 32.976V37.948C82.777 38.218 82.552 38.443 82.305 38.443H79.855C79.563 38.443 79.36 38.218 79.36 37.948V32.93C79.36 31.93 79.023 31.018 77.855 31.018C76.822 31.018 76.282 31.738 76.282 32.796V37.948C76.282 38.173 76.17 38.443 75.812 38.443H73.35C73.2193 38.4414 73.0944 38.3887 73.0021 38.2962C72.9097 38.2037 72.8573 38.0787 72.856 37.948L72.857 28.544ZM89.797 35.474C88.561 35.474 87.595 34.506 87.595 33.247C87.595 32.01 88.561 31.02 89.797 31.02C91.077 31.02 91.999 32.02 91.999 33.247C91.999 34.507 91.079 35.474 89.797 35.474ZM95.122 38.106C95.122 41.863 92.695 43.641 89.572 43.641C88.022 43.641 86.224 42.943 85.707 42.516C85.549 42.381 85.505 42.156 85.595 41.931L86.382 40.031C86.482 39.828 86.764 39.694 86.988 39.828C87.483 40.121 88.338 40.661 89.505 40.661C90.785 40.661 91.707 40.166 91.707 38.591V38.051C91.37 38.321 90.269 38.681 89.303 38.681C86.539 38.681 84.158 36.881 84.158 33.214C84.158 30.244 86.36 27.814 89.28 27.814C91.572 27.814 92.785 29.412 92.785 29.412L93.077 28.557C93.177 28.287 93.369 28.04 93.617 28.04H94.617C94.887 28.04 95.112 28.287 95.112 28.535L95.122 38.106ZM101.907 35.474C100.693 35.474 99.727 34.439 99.727 33.224C99.727 32.032 100.693 31.019 101.907 31.019C103.107 31.019 104.064 32.031 104.064 33.224C104.064 34.439 103.098 35.474 101.907 35.474ZM101.907 27.824C104.873 27.824 107.299 30.299 107.299 33.224C107.299 36.194 104.873 38.691 101.907 38.691C98.941 38.691 96.492 36.194 96.492 33.224C96.492 30.299 98.942 27.824 101.907 27.824ZM32.867 17.324C32.8665 17.7367 32.7024 18.1324 32.4108 18.4244C32.1192 18.7164 31.7237 18.8809 31.311 18.882C30.8983 18.8809 30.5028 18.7164 30.2112 18.4244C29.9196 18.1324 29.7555 17.7367 29.755 17.324C29.755 16.464 30.451 15.766 31.311 15.766C32.171 15.766 32.867 16.464 32.867 17.324ZM44.469 17.324C44.4685 17.7367 44.3044 18.1324 44.0128 18.4244C43.7212 18.7164 43.3257 18.8809 42.913 18.882C42.5003 18.8809 42.1048 18.7164 41.8132 18.4244C41.5216 18.1324 41.3575 17.7367 41.357 17.324C41.357 16.464 42.053 15.766 42.913 15.766C43.773 15.766 44.469 16.464 44.469 17.324ZM44.469 30.388C44.4685 30.8007 44.3044 31.1964 44.0128 31.4884C43.7212 31.7804 43.3257 31.9449 42.913 31.946C42.053 31.946 41.357 31.249 41.357 30.389C41.357 29.529 42.053 28.831 42.913 28.831C43.773 28.831 44.47 29.53 44.47 30.39L44.469 30.388ZM44.469 43.453C44.4685 43.8657 44.3044 44.2614 44.0128 44.5534C43.7212 44.8454 43.3257 45.0099 42.913 45.011C42.5003 45.0099 42.1048 44.8454 41.8132 44.5534C41.5216 44.2614 41.3575 43.8657 41.357 43.453C41.357 42.593 42.053 41.895 42.913 41.895C43.773 41.895 44.469 42.593 44.469 43.453ZM32.868 30.39C32.8675 30.8027 32.7034 31.1984 32.4118 31.4904C32.1202 31.7824 31.7247 31.9469 31.312 31.948C30.8993 31.9469 30.5038 31.7824 30.2122 31.4904C29.9206 31.1984 29.7565 30.8027 29.756 30.39C29.756 29.53 30.452 28.832 31.312 28.832C32.172 28.832 32.868 29.53 32.868 30.39ZM13.708 43.49C13.708 41.383 15.374 39.626 17.478 39.626C19.582 39.626 21.292 41.383 21.292 43.49C21.292 45.553 19.592 47.266 17.478 47.266C15.364 47.266 13.708 45.553 13.708 43.49ZM13.708 30.425C13.708 28.318 15.374 26.561 17.478 26.561C19.582 26.561 21.292 28.318 21.292 30.425C21.292 32.488 19.592 34.201 17.478 34.201C15.364 34.201 13.708 32.488 13.708 30.425ZM13.78 16.59C14.214 14.528 16.206 13.153 18.265 13.587C20.324 14.021 21.635 16.093 21.203 18.154C20.779 20.174 18.753 21.496 16.703 21.062C14.653 20.628 13.365 18.61 13.79 16.59H13.78ZM27.517 43.49C27.517 41.383 29.183 39.626 31.287 39.626C33.391 39.626 35.1 41.394 35.1 43.5C35.1 45.563 33.4 47.276 31.286 47.276C29.172 47.276 27.516 45.563 27.516 43.5L27.517 43.49Z" fill="#FF6161"/>
</svg>
