<svg width="10" height="11" viewBox="0 0 10 11" fill="none" xmlns="http://www.w3.org/2000/svg">
<path d="M9.19803 10.0451L9.81338 0.994368C9.81899 0.91251 9.80693 0.830303 9.77802 0.753317C9.74911 0.67633 9.70402 0.606363 9.64581 0.548156C9.58761 0.489949 9.51764 0.444863 9.44065 0.415952C9.36367 0.38704 9.28146 0.374979 9.1996 0.380587L4.67488 0.6889L0.150157 0.997213C0.122848 0.999039 0.0966845 1.00868 0.0747828 1.02499C0.052881 1.04129 0.0361646 1.06358 0.0266238 1.08919C0.0170831 1.1148 0.0151202 1.14265 0.0209697 1.16943C0.0268192 1.19622 0.0402334 1.2208 0.0596159 1.24025L1.08894 2.26957C1.14739 2.32802 1.22858 2.35867 1.3122 2.35384L7.28181 1.94764L0.16683 9.06262C0.111235 9.11822 0.111494 9.20946 0.167408 9.26537L0.929869 10.0278C0.985782 10.0837 1.07702 10.084 1.13261 10.0284L8.2476 2.91342L7.8414 8.88304C7.8353 8.96539 7.86594 9.04657 7.92567 9.1063L8.95499 10.1356C9.04141 10.222 9.18951 10.168 9.19803 10.0451Z" fill="#626262"/>
</svg>
