<svg xmlns="http://www.w3.org/2000/svg" width="168" height="25" viewBox="0 0 168 25" fill="none">
  <path d="M7.68148 15V25H0V0H7.68148V5H10.242V10H15.363V5H17.9235V0H25.6049V25H17.9235V15H15.363V20H10.242V15H7.68148Z" fill="white"/>
  <path d="M29.2556 25V0H36.9371V25H29.2556Z" fill="white"/>
  <path d="M48.2607 15V25H40.5792V0H48.2607V5H50.8212V10H53.3817V0H61.0632V25H53.3817V20H50.8212V15H48.2607Z" fill="white"/>
  <path d="M77.5292 5V25H69.8477V5H64.7268V0H82.6502V5H77.5292Z" fill="white"/>
  <path d="M85.3498 25V0H103.273V15H93.0313V25H85.3498ZM95.5918 10V5H93.0313V10H95.5918Z" fill="#22EE5B"/>
  <path d="M106.925 25V0H124.849V25H117.167V15H114.607V25H106.925ZM117.167 10V5H114.607V10H117.167Z" fill="#22EE5B"/>
  <path d="M128.501 15V0H146.424V5H136.182V10H146.424V25H128.501V20H138.743V15H128.501Z" fill="#22EE5B"/>
  <path d="M150.077 15V0H168V5H157.758V10H168V25H150.077V20H160.319V15H150.077Z" fill="#22EE5B"/>
</svg>