<svg width="55" height="38" viewBox="0 0 55 38" fill="none" xmlns="http://www.w3.org/2000/svg">
<path d="M16.7502 21.8798L0.720156 6.09983C0.600156 5.98983 0.410156 6.06983 0.410156 6.23983V37.0498C0.410156 37.2198 0.600156 37.3098 0.710156 37.1998L16.7302 22.5398C16.9202 22.3698 16.9202 22.0598 16.7402 21.8798H16.7502Z" fill="#FFD600"/>
<path d="M47.5903 37.62L31.8403 23.21L31.7303 23.32L27.9903 27C27.1603 27.82 26.0803 28.26 24.9303 28.26C23.7803 28.26 22.7803 27.84 22.0003 27.07L18.1903 23.32L18.0803 23.21L2.34034 37.62C2.27034 37.68 2.31034 37.81 2.40034 37.81H47.5203C47.6103 37.81 47.6503 37.69 47.5803 37.62H47.5903Z" fill="#FFD600"/>
<path d="M49.4896 37.02V14.67C52.4496 13.65 54.5896 10.84 54.5896 7.54C54.5896 3.38 51.2096 0 47.0496 0C43.9196 0 41.2396 1.91 40.0896 4.63H1.46962C1.37962 4.63 1.33962 4.75 1.39962 4.81L18.1196 21.27L19.1196 22.26L22.9296 26.01C23.0696 26.15 23.2196 26.27 23.3796 26.37L23.5496 26.46C23.6596 26.52 23.7596 26.58 23.8696 26.62L24.0896 26.68C24.1896 26.71 24.2996 26.75 24.3996 26.77L24.6396 26.79C24.7396 26.79 24.8496 26.82 24.9496 26.81C25.0596 26.81 25.1596 26.79 25.2696 26.78L25.5196 26.75C25.6296 26.73 25.7396 26.69 25.8496 26.65L26.0696 26.58C26.1896 26.53 26.2996 26.46 26.4096 26.4L26.5896 26.31C26.7596 26.2 26.9096 26.08 27.0596 25.93L30.7996 22.25L31.7996 21.26L41.0696 12.13C41.3596 12.5 41.6796 12.84 42.0296 13.16L33.1796 21.87C32.9996 22.05 32.9996 22.36 33.1896 22.53L49.1796 37.16C49.2996 37.27 49.4796 37.18 49.4796 37.01L49.4896 37.02ZM41.4196 7.54C41.4196 4.44 43.9396 1.92 47.0396 1.92C50.1396 1.92 52.6596 4.44 52.6596 7.54C52.6596 10.64 50.1396 13.16 47.0396 13.16C43.9396 13.16 41.4196 10.64 41.4196 7.54Z" fill="#FFD600"/>
<path d="M48.35 3H45.87V5.86H43V8.35H45.87V11.22H48.35V8.35H51.22V5.86H48.35V3Z" fill="white"/>
</svg>
