<svg width="54" height="38" viewBox="0 0 54 38" fill="none" xmlns="http://www.w3.org/2000/svg">
<path d="M16.34 21.8803L0.31 6.10032C0.19 5.99032 0 6.07032 0 6.24032V37.0503C0 37.2203 0.19 37.3103 0.3 37.2003L16.32 22.5403C16.51 22.3703 16.51 22.0603 16.33 21.8803H16.34Z" fill="#FFD600"/>
<path d="M47.1802 37.62L31.4302 23.21L31.3202 23.32L27.5802 27C26.7502 27.82 25.6702 28.26 24.5202 28.26C23.3702 28.26 22.3702 27.84 21.5902 27.07L17.7802 23.32L17.6702 23.21L1.93018 37.62C1.86018 37.68 1.90018 37.81 1.99018 37.81H47.1102C47.2002 37.81 47.2402 37.69 47.1702 37.62H47.1802Z" fill="#FFD600"/>
<path d="M48.7084 37.02V14.67C51.6684 13.65 53.8084 10.84 53.8084 7.54C53.8084 3.38 50.4284 0 46.2684 0C43.1384 0 40.4584 1.91 39.3084 4.63H0.688373C0.598373 4.63 0.558373 4.75 0.618373 4.81L17.3384 21.27L18.3384 22.26L22.1484 26.01C22.2884 26.15 22.4384 26.27 22.5984 26.37L22.7684 26.46C22.8784 26.52 22.9784 26.58 23.0884 26.62L23.3084 26.68C23.4084 26.71 23.5184 26.75 23.6184 26.77L23.8584 26.79C23.9584 26.79 24.0684 26.82 24.1684 26.81C24.2784 26.81 24.3784 26.79 24.4884 26.78L24.7384 26.75C24.8484 26.73 24.9584 26.69 25.0684 26.65L25.2884 26.58C25.4084 26.53 25.5184 26.46 25.6284 26.4L25.8084 26.31C25.9784 26.2 26.1284 26.08 26.2784 25.93L30.0184 22.25L31.0184 21.26L40.2884 12.13C40.5784 12.5 40.8984 12.84 41.2484 13.16L32.3984 21.87C32.2184 22.05 32.2184 22.36 32.4084 22.53L48.3984 37.16C48.5184 37.27 48.6984 37.18 48.6984 37.01L48.7084 37.02ZM40.6384 7.54C40.6384 4.44 43.1584 1.92 46.2584 1.92C49.3584 1.92 51.8784 4.44 51.8784 7.54C51.8784 10.64 49.3584 13.16 46.2584 13.16C43.1584 13.16 40.6384 10.64 40.6384 7.54Z" fill="#FFD600"/>
<path d="M47.9398 3H45.4598V5.86H42.5898V8.35H45.4598V11.22H47.9398V8.35H50.8098V5.86H47.9398V3Z" fill="#0E0F11"/>
</svg>
