<svg width="32" height="33" viewBox="0 0 32 33" fill="none" xmlns="http://www.w3.org/2000/svg">
<ellipse cx="15.9565" cy="16.724" rx="15.5015" ry="15.931" fill="#FFD3A2"/>
<g clip-path="url(#clip0_835_2512)">
<path d="M25.364 8.03467L16.8984 14.4109L18.4727 10.6532L25.364 8.03467Z" fill="#E17726"/>
<path d="M6.56969 8.04199L13.4426 10.6535L14.9374 14.4604L6.56969 8.04199ZM21.9576 21.5949L25.6992 21.6674L24.3916 26.1893L19.8259 24.9097L21.9576 21.5949ZM9.95662 21.5949L12.0804 24.9097L7.52239 26.1894L6.22266 21.6674L9.95662 21.5949Z" fill="#E27625"/>
<path d="M14.7332 13.4907L14.8861 18.5179L10.3105 18.306L11.6121 16.3073L11.6285 16.288L14.7332 13.4907ZM17.1317 13.4346L20.2838 16.2882L20.3001 16.3073L21.6016 18.3061L17.0271 18.5179L17.1317 13.4346ZM12.2134 21.6094L14.7118 23.591L11.8096 25.0172L12.2134 21.6094ZM19.6994 21.6091L20.0948 25.0173L17.2007 23.5908L19.6994 21.6091Z" fill="#E27625"/>
<path d="M17.2648 23.4043L20.2016 24.8518L17.4698 26.1734L17.4982 25.2999L17.2648 23.4043ZM14.6471 23.4049L14.4229 25.2856L14.4413 26.1723L11.7031 24.8518L14.6471 23.4049Z" fill="#D5BFB2"/>
<path d="M13.7985 19.1743L14.5659 20.8161L11.9531 20.0369L13.7985 19.1743ZM18.1131 19.1745L19.9672 20.0369L17.3458 20.8158L18.1131 19.1745Z" fill="#233447"/>
<path d="M12.4126 21.5929L11.9902 25.1262L9.72656 21.6702L12.4126 21.5929ZM19.4989 21.593L22.185 21.6702L19.9128 25.1264L19.4989 21.593ZM21.6672 18.1064L19.7124 20.1344L18.2052 19.4333L17.4837 20.9775L17.0106 18.3221L21.6672 18.1064ZM10.2431 18.1064L14.9006 18.3221L14.4275 20.9775L13.7058 19.4336L12.2066 20.1345L10.2431 18.1064Z" fill="#CC6228"/>
<path d="M10.1113 17.6901L12.323 19.9746L12.3996 22.2299L10.1113 17.6901ZM21.8021 17.686L19.5097 22.2339L19.596 19.9746L21.8021 17.686ZM14.7924 17.8293L14.8815 18.3996L15.1014 19.8204L14.96 24.1841L14.2914 20.6786L14.2912 20.6424L14.7924 17.8293ZM17.1176 17.8214L17.6202 20.6424L17.62 20.6786L16.9497 24.1928L16.9232 23.3138L16.8186 19.7945L17.1176 17.8214Z" fill="#E27525"/>
<path d="M19.7929 19.8838L19.718 21.8433L17.3849 23.6936L16.9133 23.3544L17.4419 20.5824L19.7929 19.8838ZM12.127 19.8838L14.4697 20.5824L14.9984 23.3544L14.5267 23.6936L12.1935 21.8431L12.127 19.8838Z" fill="#F5841F"/>
<path d="M11.2559 24.4194L14.2408 25.8591L14.2282 25.2443L14.4779 25.0211H17.4322L17.691 25.2435L17.6719 25.8579L20.638 24.423L19.1947 25.6371L17.4495 26.8572H14.454L12.71 25.6321L11.2559 24.4194Z" fill="#C0AC9D"/>
<path d="M17.052 23.2129L17.474 23.5164L17.7213 25.525L17.3634 25.2174H14.5523L14.2012 25.5312L14.4404 23.5166L14.8626 23.2129H17.052Z" fill="#161616"/>
<path d="M24.8047 8.21094L25.8209 11.3141L25.1863 14.4518L25.6382 14.8066L25.0267 15.2816L25.4863 15.6429L24.8777 16.207L25.2513 16.4824L24.2598 17.6612L20.193 16.4559L20.1577 16.4366L17.2271 13.9202L24.8047 8.21094ZM7.108 8.21094L14.6857 13.9202L11.755 16.4366L11.7198 16.4559L7.65294 17.6612L6.6614 16.4824L7.03471 16.2072L6.4265 15.6429L6.8852 15.282L6.2645 14.8057L6.73346 14.4506L6.0918 11.3143L7.108 8.21094Z" fill="#763E1A"/>
<path d="M19.9934 16.1926L24.3024 17.4696L25.7023 21.8616H22.009L19.4642 21.8943L21.3149 18.2223L19.9934 16.1926ZM11.918 16.1926L10.5962 18.2223L12.4471 21.8943L9.90352 21.8616H6.2168L7.60886 17.4697L11.918 16.1926ZM18.6826 10.6323L17.4773 13.9459L17.2216 18.4222L17.1237 19.8252L17.1159 23.4094H14.7953L14.7878 19.832L14.6896 18.421L14.4337 13.9459L13.2287 10.6323H18.6826Z" fill="#F5841F"/>
</g>
<defs>
<clipPath id="clip0_835_2512">
<rect width="19.7291" height="18.8276" fill="white" transform="translate(6.0918 8.03467)"/>
</clipPath>
</defs>
</svg>
