<svg width="24" height="21" viewBox="0 0 24 21" fill="none" xmlns="http://www.w3.org/2000/svg">
<path fill-rule="evenodd" clip-rule="evenodd" d="M6.87695 19.25L9.9973 20.0626V19L10.252 18.75H12.035V20V20.875H10.1247L7.76846 19.875L6.87695 19.25Z" fill="#CDBDB2"/>
<path fill-rule="evenodd" clip-rule="evenodd" d="M17.0654 19.25L14.0088 20.0626V19L13.7541 18.75H11.9711V20V20.875H13.8815L16.2375 19.875L17.0654 19.25Z" fill="#CDBDB2"/>
<path fill-rule="evenodd" clip-rule="evenodd" d="M10.2518 16.9376L9.99707 19L10.3154 18.75H13.6267L14.0088 19L13.7541 16.9376L13.2446 16.625L10.6975 16.6876L10.2518 16.9376Z" fill="#393939"/>
<path fill-rule="evenodd" clip-rule="evenodd" d="M8.53223 3L10.0605 6.5L10.7611 16.6876H13.2445L14.0086 6.5L15.4096 3H8.53223Z" fill="#F89C35"/>
<path fill-rule="evenodd" clip-rule="evenodd" d="M1.84649 10.6875L0.0634766 15.7499L4.52102 15.4999H7.38653V13.3125L7.25917 8.8125L6.62238 9.3125L1.84649 10.6875Z" fill="#F89D35"/>
<path fill-rule="evenodd" clip-rule="evenodd" d="M5.2207 11.25L10.4424 11.375L9.86934 14L7.3858 13.375L5.2207 11.25Z" fill="#D87C30"/>
<path fill-rule="evenodd" clip-rule="evenodd" d="M5.2207 11.3125L7.3858 13.3125V15.3125L5.2207 11.3125Z" fill="#EA8D3A"/>
<path fill-rule="evenodd" clip-rule="evenodd" d="M7.38672 13.375L9.93389 14L10.7618 16.6876L10.1886 17L7.38672 15.375V13.375Z" fill="#F89D35"/>
<path fill-rule="evenodd" clip-rule="evenodd" d="M7.38639 15.375L6.87695 19.25L10.252 16.9376L7.38639 15.375Z" fill="#EB8F35"/>
<path fill-rule="evenodd" clip-rule="evenodd" d="M10.4434 11.375L10.7619 16.6876L9.80664 13.9688L10.4434 11.375Z" fill="#EA8E3A"/>
<path fill-rule="evenodd" clip-rule="evenodd" d="M4.45703 15.4376L7.38628 15.375L6.87684 19.25L4.45703 15.4376Z" fill="#D87C30"/>
<path fill-rule="evenodd" clip-rule="evenodd" d="M1.46442 20.9375L6.8771 19.2499L4.45729 15.4375L0.0634766 15.7499L1.46442 20.9375Z" fill="#EB8F35"/>
<path fill-rule="evenodd" clip-rule="evenodd" d="M10.0603 6.5L7.32218 8.75L5.2207 11.25L10.4424 11.4376L10.0603 6.5Z" fill="#E8821E"/>
<path fill-rule="evenodd" clip-rule="evenodd" d="M6.87695 19.2499L10.252 16.9375L9.99729 18.9375V20.0625L7.70484 19.6249L6.87695 19.2499Z" fill="#DFCEC3"/>
<path fill-rule="evenodd" clip-rule="evenodd" d="M17.0654 19.2499L13.7541 16.9375L14.0088 18.9375V20.0625L16.3013 19.6249L17.0654 19.2499Z" fill="#DFCEC3"/>
<path fill-rule="evenodd" clip-rule="evenodd" d="M9.04166 12.5L9.74219 13.9376L7.25864 13.3126L9.04166 12.5Z" fill="#393939"/>
<path fill-rule="evenodd" clip-rule="evenodd" d="M1.40039 0.0625L10.0608 6.49994L8.5962 2.99994L1.40039 0.0625Z" fill="#E88F35"/>
<path fill-rule="evenodd" clip-rule="evenodd" d="M1.40111 0.0625L0.254883 3.5L0.891675 7.25L0.445921 7.5L1.08271 8.0625L0.573279 8.5L1.27375 9.125L0.827996 9.5L1.84686 10.75L6.62281 9.3125C8.95771 7.47917 10.1039 6.54167 10.0615 6.5C10.019 6.45833 7.13224 4.3125 1.40111 0.0625Z" fill="#8E5A30"/>
<path fill-rule="evenodd" clip-rule="evenodd" d="M22.0969 10.6875L23.8799 15.7499L19.4223 15.4999H16.5568V13.3125L16.6842 8.8125L17.321 9.3125L22.0969 10.6875Z" fill="#F89D35"/>
<path fill-rule="evenodd" clip-rule="evenodd" d="M18.7227 11.25L13.501 11.375L14.074 14L16.5576 13.375L18.7227 11.25Z" fill="#D87C30"/>
<path fill-rule="evenodd" clip-rule="evenodd" d="M18.7227 11.3125L16.5576 13.3125V15.3125L18.7227 11.3125Z" fill="#EA8D3A"/>
<path fill-rule="evenodd" clip-rule="evenodd" d="M16.5566 13.375L14.0095 14L13.1816 16.6876L13.7548 17L16.5566 15.375V13.375Z" fill="#F89D35"/>
<path fill-rule="evenodd" clip-rule="evenodd" d="M16.557 15.375L17.0664 19.25L13.7551 17L16.557 15.375Z" fill="#EB8F35"/>
<path fill-rule="evenodd" clip-rule="evenodd" d="M13.4999 11.375L13.1815 16.6876L14.1367 13.9688L13.4999 11.375Z" fill="#EA8E3A"/>
<path fill-rule="evenodd" clip-rule="evenodd" d="M19.4863 15.4376L16.5571 15.375L17.0665 19.25L19.4863 15.4376Z" fill="#D87C30"/>
<path fill-rule="evenodd" clip-rule="evenodd" d="M22.4789 20.9375L17.0663 19.2499L19.4861 15.4375L23.8799 15.7499L22.4789 20.9375Z" fill="#EB8F35"/>
<path fill-rule="evenodd" clip-rule="evenodd" d="M13.883 6.5L16.6212 8.75L18.7227 11.25L13.501 11.4376L13.883 6.5Z" fill="#E8821E"/>
<path fill-rule="evenodd" clip-rule="evenodd" d="M14.9017 12.5L14.2012 13.9376L16.6847 13.3126L14.9017 12.5Z" fill="#393939"/>
<path fill-rule="evenodd" clip-rule="evenodd" d="M22.543 0.0625L13.8826 6.49994L15.3471 2.99994L22.543 0.0625Z" fill="#E88F35"/>
<path fill-rule="evenodd" clip-rule="evenodd" d="M22.5423 0.0625L23.6885 3.5L23.0517 7.25L23.4974 7.5L22.8606 8.0625L23.3701 8.5L22.6696 9.125L23.1154 9.5L22.0965 10.75L17.3206 9.3125C14.9856 7.47917 13.8394 6.54167 13.8819 6.5C13.9243 6.45833 16.8111 4.3125 22.5423 0.0625Z" fill="#8E5A30"/>
</svg>
