<svg width="95" height="12" viewBox="0 0 95 12" fill="none" xmlns="http://www.w3.org/2000/svg">
<path d="M79.7114 6.08886C79.0258 5.64069 78.2786 5.31616 77.5699 4.91436C77.1077 4.65937 76.6148 4.42756 76.2142 4.0953C75.5363 3.53896 75.675 2.434 76.3837 1.95493C77.4082 1.27495 79.0951 1.65357 79.28 3.04443C79.28 3.07534 79.3108 3.09852 79.3416 3.09852H80.8823C80.9208 3.09852 80.9516 3.06761 80.9362 3.02125C80.9225 2.58375 80.815 2.15434 80.6209 1.7623C80.4268 1.37027 80.1508 1.02482 79.8115 0.749516C79.1847 0.264526 78.4155 0.00101686 77.6239 0C73.5566 0 73.1792 4.31938 75.3746 5.67933C75.6288 5.83387 77.7779 6.91565 78.5328 7.38699C79.3031 7.85834 79.5342 8.72376 79.2107 9.39601C78.9026 10.0219 78.1323 10.4546 77.3465 10.4005C76.4992 10.3542 75.8367 9.89053 75.6056 9.17192C75.5671 9.04057 75.544 8.78558 75.544 8.68513C75.5424 8.66931 75.5353 8.65454 75.5241 8.64329C75.5129 8.63204 75.4982 8.62499 75.4824 8.62331H73.8108C73.7877 8.62331 73.7569 8.65422 73.7569 8.68513C73.7569 9.89053 74.0573 10.5628 74.8739 11.1732C75.6442 11.7527 76.4915 12 77.3542 12C79.6421 12 80.8206 10.7019 81.0517 9.3651C81.2674 8.05151 80.8823 6.86928 79.7114 6.08886ZM7.14845 0.224082H5.59243C5.58094 0.225495 5.56999 0.229771 5.56057 0.236519C5.55115 0.243268 5.54357 0.252274 5.53851 0.262717L4.16736 4.79073C4.16736 4.80712 4.16087 4.82284 4.14931 4.83444C4.13776 4.84603 4.12208 4.85254 4.10574 4.85254C4.08939 4.85254 4.07372 4.84603 4.06216 4.83444C4.05061 4.82284 4.04411 4.80712 4.04411 4.79073L2.67297 0.262717C2.66526 0.23181 2.64215 0.224082 2.61134 0.224082H0.061626C0.0308137 0.224082 0 0.25499 0 0.278171V11.8377C0 11.8686 0.0308137 11.8995 0.061626 11.8995H1.73319C1.764 11.8995 1.79482 11.8686 1.79482 11.8377V3.04443C1.79482 2.97489 1.89496 2.96716 1.91036 3.02898L3.29692 7.58789L3.39705 7.89697C3.39705 7.93561 3.42016 7.94334 3.45098 7.94334H4.73739C4.7682 7.94334 4.78361 7.92015 4.79131 7.9047L4.89145 7.58017L6.278 3.02125C6.29341 2.95943 6.39355 2.97489 6.39355 3.04443V11.83C6.39355 11.8609 6.42436 11.8918 6.45517 11.8918H8.12674C8.15756 11.8918 8.18837 11.8609 8.18837 11.83V0.278171C8.18837 0.25499 8.15756 0.224082 8.12674 0.224082H7.14845ZM54.1218 0.224082C54.109 0.224172 54.0964 0.22783 54.0855 0.234651C54.0746 0.241472 54.0659 0.251188 54.0602 0.262717L52.689 4.79073C52.689 4.80712 52.6825 4.82284 52.671 4.83444C52.6594 4.84603 52.6437 4.85254 52.6274 4.85254C52.611 4.85254 52.5954 4.84603 52.5838 4.83444C52.5723 4.82284 52.5658 4.80712 52.5658 4.79073L51.1946 0.262717C51.1946 0.23181 51.1715 0.224082 51.1407 0.224082H48.5987C48.5679 0.224082 48.5371 0.25499 48.5371 0.278171V11.8377C48.5371 11.8686 48.5679 11.8995 48.5987 11.8995H50.2702C50.2934 11.8995 50.3242 11.8686 50.3242 11.8377V3.04443C50.3242 2.97489 50.4243 2.96716 50.4474 3.02898L51.834 7.58789L51.9264 7.89697C51.9418 7.93561 51.9572 7.94334 51.988 7.94334H53.2667C53.2794 7.94248 53.2916 7.9385 53.3024 7.93177C53.3131 7.92503 53.3221 7.91573 53.3284 7.9047L53.4285 7.58017L54.8151 3.02125C54.8305 2.95943 54.9306 2.97489 54.9306 3.04443V11.83C54.9306 11.8609 54.9614 11.8918 54.9922 11.8918H56.6638C56.6946 11.8918 56.7254 11.8609 56.7254 11.83V0.278171C56.7254 0.25499 56.6946 0.224082 56.6638 0.224082H54.1218ZM32.5609 0.224082H24.6652C24.6421 0.224082 24.6113 0.25499 24.6113 0.278171V1.73084C24.6113 1.76175 24.6421 1.79266 24.6652 1.79266H27.7234V11.8377C27.7234 11.8764 27.7542 11.9073 27.7773 11.9073H29.4488C29.4797 11.9073 29.5105 11.8764 29.5105 11.8455V1.78493H32.5609C32.5917 1.78493 32.6225 1.75402 32.6225 1.72312V0.278171C32.6225 0.25499 32.6071 0.224082 32.5609 0.224082ZM42.4208 11.8995H43.946C43.9845 11.8995 44.0154 11.8532 43.9999 11.8223L40.8571 0.224082C40.8571 0.193174 40.834 0.17772 40.8032 0.17772H38.6078C38.5955 0.179853 38.584 0.185288 38.5745 0.193449C38.565 0.201611 38.5579 0.212196 38.5539 0.224082L35.411 11.8146C35.3956 11.8532 35.4264 11.8918 35.4649 11.8918H36.9902C37.021 11.8918 37.0364 11.8764 37.0518 11.8532L37.9607 8.48422C37.9684 8.45332 37.9915 8.44559 38.0224 8.44559H41.3809C41.4117 8.44559 41.4348 8.46104 41.4425 8.48422L42.3515 11.8532C42.3669 11.8764 42.3977 11.8995 42.4131 11.8995H42.4208ZM38.4306 6.79201L39.6477 2.27173C39.6477 2.25534 39.6542 2.23961 39.6658 2.22802C39.6773 2.21643 39.693 2.20992 39.7093 2.20992C39.7257 2.20992 39.7414 2.21643 39.7529 2.22802C39.7645 2.23961 39.771 2.25534 39.771 2.27173L40.988 6.79201C41.0035 6.83065 40.9726 6.86928 40.9341 6.86928H38.4923C38.446 6.86928 38.4152 6.83065 38.4306 6.79201ZM68.3571 11.8995H69.8823C69.9208 11.8995 69.9516 11.8532 69.9439 11.8223L66.801 0.216355C66.7856 0.185447 66.7702 0.169993 66.7394 0.169993H64.5594C64.5457 0.170742 64.5326 0.175547 64.5216 0.183799C64.5107 0.192051 64.5024 0.203381 64.4978 0.216355L61.355 11.8068C61.3473 11.8455 61.3781 11.8841 61.4166 11.8841H62.9341C62.9649 11.8841 62.988 11.8686 62.9957 11.8455L63.9047 8.4765C63.9201 8.44559 63.9355 8.43786 63.9663 8.43786H67.3326C67.3557 8.43786 67.3788 8.45332 67.3865 8.4765L68.3031 11.8455C68.3031 11.8686 68.334 11.8918 68.3571 11.8918V11.8995ZM64.3669 6.79201L65.5917 2.27173C65.596 2.2599 65.6039 2.2497 65.6142 2.24249C65.6246 2.23529 65.6369 2.23143 65.6494 2.23143C65.662 2.23143 65.6743 2.23529 65.6846 2.24249C65.6949 2.2497 65.7028 2.2599 65.7072 2.27173L66.932 6.79201C66.932 6.83065 66.9089 6.86928 66.8704 6.86928H64.4285C64.39 6.86928 64.3515 6.83065 64.3669 6.79201ZM14.9748 10.1842V6.59884C14.9748 6.56793 14.9979 6.53702 15.0287 6.53702H19.4811C19.5119 6.53702 19.5427 6.50612 19.5427 6.48294V5.03799C19.541 5.02217 19.534 5.0074 19.5228 4.99616C19.5116 4.98491 19.4968 4.97785 19.4811 4.97617H15.0364C15.0056 4.97617 14.9825 4.94527 14.9825 4.91436V1.85447C14.9825 1.82357 15.0056 1.79266 15.0364 1.79266H20.105C20.1358 1.79266 20.1666 1.76175 20.1666 1.73084V0.293625C20.165 0.277805 20.1579 0.263038 20.1467 0.251789C20.1355 0.24054 20.1208 0.233488 20.105 0.23181H13.2493C13.2335 0.233488 13.2188 0.24054 13.2076 0.251789C13.1964 0.263038 13.1893 0.277805 13.1877 0.293625V11.8377C13.1877 11.8686 13.2185 11.8995 13.2493 11.8995H20.313C20.3438 11.8995 20.3746 11.8686 20.3746 11.8377V10.3078C20.373 10.292 20.3659 10.2772 20.3547 10.266C20.3435 10.2547 20.3288 10.2477 20.313 10.246H15.0287C14.9979 10.2382 14.9825 10.2151 14.9825 10.1764L14.9748 10.1842ZM94.9789 11.7991L89.2016 5.81842C89.1928 5.80745 89.1881 5.79383 89.1881 5.77978C89.1881 5.76574 89.1928 5.75211 89.2016 5.74115L94.4011 0.33226C94.4144 0.326112 94.4247 0.314924 94.4298 0.301158C94.4348 0.287392 94.4342 0.272174 94.4281 0.258854C94.422 0.245533 94.4108 0.2352 94.3971 0.230129C94.3834 0.225057 94.3682 0.225662 94.3549 0.23181H92.2289C92.2058 0.23181 92.1981 0.239536 92.1904 0.25499L87.7765 4.83709C87.7681 4.84405 87.758 4.84864 87.7472 4.8504C87.7364 4.85215 87.7254 4.851 87.7152 4.84707C87.705 4.84314 87.6961 4.83657 87.6892 4.82803C87.6824 4.81949 87.678 4.80928 87.6764 4.79845V0.293625C87.6747 0.277805 87.6677 0.263038 87.6564 0.251789C87.6452 0.24054 87.6305 0.233488 87.6147 0.23181H85.9432C85.9274 0.233488 85.9127 0.24054 85.9015 0.251789C85.8903 0.263038 85.8832 0.277805 85.8816 0.293625V11.8455C85.8816 11.8764 85.9124 11.9073 85.9432 11.9073H87.6147C87.6456 11.9073 87.6764 11.8764 87.6764 11.8455V6.76111C87.6764 6.70702 87.7457 6.68384 87.7765 6.72247L92.7835 11.8841C92.7916 11.8943 92.8023 11.9023 92.8143 11.9073H94.9481C94.9866 11.8995 95.0251 11.83 94.9789 11.7991Z" fill="#151515"/>
</svg>
