<svg width="67" height="16" viewBox="0 0 67 16" fill="none" xmlns="http://www.w3.org/2000/svg">
<path d="M0.8 12V0.799999H8.64V7.52H4.16V12H0.8ZM5.28 5.28V3.04H4.16V5.28H5.28ZM10.2375 12V0.799999H18.0775V12H14.7175V7.52H13.5975V12H10.2375ZM14.7175 5.28V3.04H13.5975V5.28H14.7175ZM19.675 7.52V0.799999H27.515V3.04H23.035V5.28H27.515V12H19.675V9.76H24.155V7.52H19.675ZM29.1125 7.52V0.799999H36.9525V3.04H32.4725V5.28H36.9525V12H29.1125V9.76H33.5925V7.52H29.1125Z" fill="#0E0F11"/>
<path d="M38.55 12V0.799999H46.39V7.52H41.91V12H38.55ZM43.03 5.28V3.04H41.91V5.28H43.03ZM47.9875 12V0.799999H55.8275V12H52.4675V7.52H51.3475V12H47.9875ZM52.4675 5.28V3.04H51.3475V5.28H52.4675ZM57.425 12V0.799999H64.145V1.92H65.265V10.88H64.145V12H57.425ZM61.905 9.76V3.04H60.785V9.76H61.905Z" fill="#FFD600"/>
</svg>
