<svg width="53" height="44" viewBox="0 0 53 44" fill="none" xmlns="http://www.w3.org/2000/svg">
<g clip-path="url(#clip0_1017_1949)">
<path d="M47.7954 18.46V0H0.0253906V24.32H1.38539L0.0253906 28.5L45.4454 43.28L52.9754 20.15L47.7954 18.46ZM2.01539 17.18H1.68539V7.14H2.01539C3.45539 7.14 4.76539 6.56 5.70539 5.61C6.64539 4.66 7.23539 3.36 7.23539 1.92V1.59H40.5754V1.92C40.5754 3.36 41.1554 4.67 42.1054 5.61C43.0554 6.56 44.3554 7.14 45.7954 7.14H46.1254V17.17H45.7954C44.3554 17.17 43.0454 17.75 42.1054 18.7C41.1554 19.65 40.5754 20.95 40.5754 22.39V22.72H7.24539V22.39C7.24539 20.95 6.66539 19.64 5.71539 18.7C4.76539 17.75 3.46539 17.17 2.02539 17.17L2.01539 17.18ZM27.6754 26.95C27.5354 27.36 27.2454 27.62 26.7954 27.73C26.7154 27.75 26.6354 27.76 26.5454 27.77L27.1954 25.78C27.6654 26.11 27.8254 26.5 27.6754 26.95ZM45.7654 35.9C45.2254 35.72 44.6854 35.64 44.1454 35.64C41.9454 35.64 39.8954 37.04 39.1754 39.25L39.0754 39.57L7.38539 29.25L7.48539 28.93C7.65539 28.39 7.74539 27.85 7.74539 27.31C7.74539 26.23 7.40539 25.19 6.79539 24.32H24.3454C24.6154 24.52 24.9154 24.71 25.2554 24.88L24.5154 27.14C24.0354 26.77 23.6354 26.24 23.3154 25.56C23.2554 25.39 23.1354 25.27 22.9554 25.21C22.8554 25.18 22.6454 25.2 22.6454 25.2L21.4754 25.46C21.2754 25.5 21.1554 25.6 21.1054 25.76C21.0754 25.86 21.0854 25.97 21.1254 26.08C21.2654 26.52 21.4954 26.97 21.8154 27.44C22.3354 28.2 23.0154 28.79 23.8354 29.21L23.5454 30.1C23.4554 30.39 23.6054 30.7 23.8954 30.79L24.8554 31.1C25.1454 31.2 25.4554 31.04 25.5454 30.75L25.8354 29.86C26.6454 30 27.3954 29.97 28.0854 29.78C29.1754 29.48 29.9054 28.81 30.2654 27.78C30.4854 27.13 30.4854 26.52 30.2654 25.95C30.0154 25.33 29.5554 24.79 28.9254 24.32H46.1654C46.7954 25.24 47.7154 25.98 48.8554 26.35L49.1754 26.45L46.0754 35.99L45.7554 35.89L45.7654 35.9Z" fill="#FFD600"/>
<path d="M8.19445 28.8098L38.6845 38.7298C39.5845 36.4298 41.7845 34.9698 44.1545 34.9698C44.6545 34.9698 45.1545 35.0498 45.6545 35.1798L48.3645 26.8498C47.0745 26.3498 46.0645 25.4398 45.4145 24.3198H36.4245C36.4245 25.3398 36.2745 26.3698 35.9445 27.3898C34.5844 31.5798 30.6945 34.2398 26.5145 34.2398C25.4945 34.2398 24.4645 34.0798 23.4445 33.7498C19.2545 32.3898 16.5945 28.4998 16.5945 24.3198H7.56445C8.09445 25.2198 8.40445 26.2398 8.40445 27.3098C8.40445 27.8098 8.32445 28.3098 8.19445 28.8098Z" fill="#0E0F11"/>
<path d="M48.8749 26.3498C47.7349 25.9798 46.8149 25.2398 46.1849 24.3198H45.4149C46.0649 25.4398 47.0849 26.3498 48.3649 26.8498L45.6549 35.1798C45.1549 35.0498 44.6549 34.9698 44.1549 34.9698C41.7849 34.9698 39.5849 36.4298 38.6849 38.7298L8.19492 28.8098C8.32492 28.3098 8.40492 27.8098 8.40492 27.3098C8.40492 26.2398 8.09492 25.2198 7.56492 24.3198H6.79492C7.39492 25.1898 7.74492 26.2298 7.74492 27.3098C7.74492 27.8498 7.66492 28.3898 7.48492 28.9298L7.38492 29.2498L39.0849 39.5698L39.1849 39.2498C39.9049 37.0398 41.9549 35.6398 44.1549 35.6398C44.6849 35.6398 45.2349 35.7198 45.7749 35.8998L46.0949 35.9998L49.1949 26.4598L48.8749 26.3598V26.3498Z" fill="#0E0F11"/>
<path d="M26.5449 27.7698C26.6249 27.7698 26.7149 27.7498 26.7949 27.7298C27.2449 27.6198 27.5349 27.3598 27.6749 26.9498C27.8249 26.5098 27.6549 26.1198 27.1949 25.7798L26.5449 27.7698Z" fill="white"/>
<path d="M23.9659 32.1198C24.7959 32.3898 25.6459 32.5198 26.5059 32.5198C30.0659 32.5198 33.1959 30.2398 34.3059 26.8598C34.5759 26.0198 34.7059 25.1598 34.7059 24.3198H28.9559C29.5959 24.7898 30.0459 25.3298 30.2959 25.9498C30.5259 26.5298 30.5259 27.1398 30.2959 27.7798C29.9359 28.8198 29.2059 29.4798 28.1159 29.7798C27.4259 29.9698 26.6759 29.9898 25.8659 29.8598L25.5759 30.7498C25.4859 31.0398 25.1659 31.1998 24.8859 31.0998L23.9259 30.7898C23.6359 30.6998 23.4759 30.3798 23.5759 30.0998L23.8659 29.2098C23.0359 28.7898 22.3659 28.1998 21.8459 27.4398C21.5259 26.9698 21.2959 26.5198 21.1559 26.0798C21.1059 25.9698 21.0959 25.8698 21.1359 25.7598C21.1859 25.5998 21.3059 25.4998 21.5059 25.4598L22.6759 25.1998C22.6759 25.1998 22.8959 25.1798 22.9859 25.2098C23.1659 25.2698 23.2859 25.3798 23.3459 25.5598C23.6659 26.2398 24.0559 26.7698 24.5459 27.1398L25.2859 24.8798C24.9459 24.7098 24.6459 24.5198 24.3759 24.3198H18.3359C18.3359 27.7698 20.5359 30.9898 23.9959 32.1198H23.9659Z" fill="white"/>
<path d="M23.4362 33.7601C24.4562 34.0901 25.4862 34.2501 26.5062 34.2501C30.6862 34.2501 34.5762 31.5901 35.9362 27.4001C36.2662 26.3801 36.4162 25.3501 36.4162 24.3301H34.6962C34.6962 25.1701 34.5762 26.0201 34.2962 26.8701C33.1962 30.2601 30.0662 32.5301 26.4962 32.5301C25.6362 32.5301 24.7862 32.3901 23.9562 32.1301C20.4962 31.0101 18.2962 27.7901 18.2962 24.3301H16.5762C16.5762 28.5101 19.2362 32.4001 23.4262 33.7601H23.4362Z" fill="#0E0F11"/>
<path d="M7.8857 22.07H23.6957C18.3157 21.95 13.9957 17.57 13.9957 12.16C13.9957 6.75 18.3157 2.37 23.6957 2.25H7.8857C7.7157 5.24 5.3357 7.62 2.3457 7.79V16.53C5.3357 16.7 7.7157 19.08 7.8857 22.07Z" fill="#0E0F11"/>
<path d="M33.825 12.16C33.825 17.57 29.495 21.95 24.125 22.07H39.935C40.105 19.08 42.485 16.7 45.475 16.53V7.79C42.485 7.62 40.105 5.24 39.935 2.25H24.125C29.505 2.37 33.825 6.76 33.825 12.16Z" fill="#0E0F11"/>
<path d="M5.71531 18.7098C6.66531 19.6598 7.24531 20.9598 7.24531 22.3998V22.7298H40.5853V22.3998C40.5853 20.9598 41.1653 19.6498 42.1153 18.7098C43.0653 17.7598 44.3653 17.1798 45.8053 17.1798H46.1353V7.13984H45.8053C44.3653 7.13984 43.0553 6.55984 42.1153 5.60984C41.1653 4.65984 40.5853 3.35984 40.5853 1.91984V1.58984H7.24531V1.91984C7.24531 3.35984 6.66531 4.66984 5.71531 5.60984C4.76531 6.54984 3.46531 7.13984 2.02531 7.13984H1.69531V17.1698H2.02531C3.46531 17.1698 4.77531 17.7498 5.71531 18.6998V18.7098ZM7.88531 2.24984H23.6953C18.3153 2.36984 13.9953 6.75984 13.9953 12.1598C13.9953 17.5598 18.3253 21.9498 23.6953 22.0698H7.88531C7.71531 19.0798 5.33531 16.6998 2.34531 16.5298V7.78984C5.33531 7.61984 7.71531 5.23984 7.88531 2.24984ZM45.4753 7.78984V16.5298C42.4853 16.6998 40.1053 19.0798 39.9353 22.0698H24.1253C29.5053 21.9498 33.8253 17.5698 33.8253 12.1598C33.8253 6.74984 29.5053 2.36984 24.1253 2.24984H39.9353C40.1053 5.23984 42.4853 7.61984 45.4753 7.78984ZM15.7153 12.1598C15.7153 7.63984 19.3953 3.95984 23.9153 3.95984C28.4353 3.95984 32.1153 7.63984 32.1153 12.1598C32.1153 16.6798 28.4353 20.3598 23.9153 20.3598C19.3953 20.3598 15.7153 16.6798 15.7153 12.1598Z" fill="#0E0F11"/>
<path d="M22.9063 10.8399V9.1499L22.8263 9.1799C22.4263 9.3699 22.2363 9.6299 22.2363 9.9799C22.2363 10.3899 22.4663 10.6699 22.9063 10.8399Z" fill="white"/>
<path d="M25.2454 15.3001C25.6354 15.0601 25.8354 14.7201 25.8454 14.2901C25.8454 13.8201 25.5754 13.5001 25.0254 13.3301V15.4201C25.1054 15.3901 25.1754 15.3501 25.2454 15.3001Z" fill="white"/>
<path d="M32.1051 12.16C32.1051 7.63996 28.4251 3.95996 23.9051 3.95996C19.3851 3.95996 15.7051 7.63996 15.7051 12.16C15.7051 16.68 19.3851 20.36 23.9051 20.36C28.4251 20.36 32.1051 16.68 32.1051 12.16ZM22.9051 18.57V17.63C21.9851 17.48 21.1651 17.14 20.4351 16.57C19.9851 16.23 19.6251 15.87 19.3551 15.49C19.2751 15.4 19.2351 15.3 19.2351 15.19C19.2351 15.02 19.3151 14.89 19.4951 14.79L20.5251 14.18C20.5251 14.18 20.7251 14.09 20.8251 14.09C21.0151 14.09 21.1551 14.16 21.2751 14.31C21.7851 14.86 22.3251 15.24 22.9051 15.44V13.06C21.5751 12.85 20.6151 12.36 20.0251 11.56C19.6751 11.09 19.4951 10.56 19.4751 9.94996C19.4551 8.71996 20.1251 7.78996 21.4851 7.16996C21.9051 6.97996 22.3851 6.84996 22.9051 6.76996V5.72996C22.9051 5.41996 23.1551 5.17996 23.4551 5.17996H24.4651C24.7751 5.17996 25.0151 5.42996 25.0151 5.72996V6.79996C26.1251 6.98996 27.0451 7.48996 27.7451 8.29996C27.8451 8.38996 27.8951 8.49996 27.8951 8.61996C27.8951 8.76996 27.8151 8.89996 27.6551 8.99996L26.5251 9.70996C26.5251 9.70996 26.3251 9.80996 26.1851 9.80996C26.0051 9.80996 25.8451 9.74996 25.7151 9.63996C25.4951 9.44996 25.2651 9.29996 25.0251 9.18996V11.09C26.3751 11.28 27.3751 11.76 28.0151 12.52C28.4151 13 28.6051 13.58 28.5851 14.26C28.5651 15.36 28.0751 16.21 27.1351 16.84C26.5351 17.23 25.8251 17.49 25.0251 17.61V18.55C25.0251 18.85 24.7751 19.1 24.4751 19.1H23.4651C23.1551 19.1 22.9151 18.85 22.9151 18.55L22.9051 18.57Z" fill="white"/>
<path d="M24.4646 19.1202C24.7746 19.1202 25.0146 18.8702 25.0146 18.5702V17.6302C25.8246 17.5102 26.5346 17.2602 27.1246 16.8602C28.0646 16.2402 28.5546 15.3802 28.5746 14.2802C28.5846 13.6002 28.3946 13.0102 28.0046 12.5402C27.3646 11.7802 26.3646 11.3002 25.0146 11.1102V9.2102C25.2546 9.3202 25.4846 9.4702 25.7046 9.6602C25.8446 9.7702 25.9946 9.8302 26.1746 9.8302C26.3246 9.8302 26.5146 9.7302 26.5146 9.7302L27.6446 9.0202C27.7946 8.9202 27.8746 8.8002 27.8846 8.6402C27.8846 8.5202 27.8346 8.4102 27.7346 8.3202C27.0246 7.5202 26.1146 7.0202 25.0046 6.8202V5.7502C25.0046 5.4402 24.7546 5.2002 24.4546 5.2002H23.4446C23.1346 5.2002 22.8946 5.4502 22.8946 5.7502V6.7902C22.3746 6.8602 21.8946 6.9902 21.4746 7.1902C20.1146 7.8102 19.4446 8.7402 19.4646 9.9702C19.4746 10.5802 19.6546 11.1102 20.0146 11.5802C20.6046 12.3702 21.5646 12.8702 22.8946 13.0802V15.4602C22.3246 15.2602 21.7846 14.8802 21.2646 14.3302C21.1546 14.1802 21.0046 14.1102 20.8146 14.1102C20.7146 14.1102 20.5146 14.2002 20.5146 14.2002L19.4846 14.8102C19.3046 14.9102 19.2246 15.0502 19.2246 15.2102C19.2246 15.3202 19.2646 15.4202 19.3446 15.5102C19.6146 15.8802 19.9746 16.2402 20.4246 16.5902C21.1546 17.1502 21.9746 17.5002 22.8946 17.6502V18.5902C22.8946 18.8902 23.1446 19.1402 23.4446 19.1402H24.4546L24.4646 19.1202ZM22.2346 9.9802C22.2346 9.64019 22.4246 9.3702 22.8246 9.1802L22.9046 9.1502V10.8402C22.4646 10.6702 22.2446 10.3802 22.2346 9.9802ZM25.0146 13.3302C25.5646 13.5002 25.8346 13.8202 25.8346 14.2902C25.8346 14.7202 25.6346 15.0602 25.2346 15.3002C25.1646 15.3502 25.0846 15.3802 25.0146 15.4202V13.3302Z" fill="#FFD600"/>
</g>
<defs>
<clipPath id="clip0_1017_1949">
<rect width="52.95" height="43.28" fill="white" transform="translate(0.0253906)"/>
</clipPath>
</defs>
</svg>
