<svg width="11" height="10" viewBox="0 0 11 10" fill="none" xmlns="http://www.w3.org/2000/svg">
<path d="M9.62495 5.55082C9.55286 6.24445 9.26006 6.90548 8.78082 7.45656C8.30158 8.00763 7.65572 8.42597 6.91882 8.66262C6.18192 8.89926 5.38445 8.94443 4.61973 8.79283C3.855 8.64123 3.15466 8.29914 2.60064 7.80658C2.04662 7.31402 1.66184 6.69137 1.49133 6.01149C1.32081 5.3316 1.37162 4.6226 1.63779 3.96745C1.90396 3.3123 2.3745 2.73809 2.99434 2.31201C3.61419 1.88594 4.35769 1.62562 5.13787 1.56152C4.6811 2.11093 4.4613 2.78784 4.51845 3.46914C4.57559 4.15044 4.90589 4.79088 5.44926 5.27398C5.99264 5.75707 6.71299 6.05072 7.47931 6.10153C8.24562 6.15234 9.007 5.95692 9.62495 5.55082Z" fill="#0E0F11" stroke="#0E0F11" stroke-width="1.5" stroke-linecap="round" stroke-linejoin="round"/>
</svg>
