<svg width="11" height="11" viewBox="0 0 11 11" fill="none" xmlns="http://www.w3.org/2000/svg">
<g clip-path="url(#clip0_571_6848)">
<path d="M9.62495 5.86208C9.55286 6.64226 9.26006 7.38577 8.78082 8.00561C8.30158 8.62545 7.65572 9.09599 6.91882 9.36216C6.18192 9.62834 5.38445 9.67914 4.61973 9.50863C3.855 9.33811 3.15466 8.95333 2.60064 8.39931C2.04662 7.84529 1.66184 7.14495 1.49133 6.38023C1.32081 5.61551 1.37162 4.81804 1.63779 4.08114C1.90396 3.34423 2.3745 2.69838 2.99434 2.21914C3.61419 1.7399 4.35769 1.4471 5.13787 1.375C4.6811 1.99296 4.4613 2.75433 4.51845 3.52065C4.57559 4.28697 4.90589 5.00732 5.44926 5.55069C5.99264 6.09406 6.71299 6.42436 7.47931 6.48151C8.24562 6.53865 9.007 6.31885 9.62495 5.86208Z" fill="#A6A6A6" stroke="#A6A6A6" stroke-width="1.5" stroke-linecap="round" stroke-linejoin="round"/>
</g>
<defs>
<clipPath id="clip0_571_6848">
<rect width="11" height="11" fill="white"/>
</clipPath>
</defs>
</svg>
