<svg width="14" height="14" viewBox="0 0 14 14" fill="none" xmlns="http://www.w3.org/2000/svg">
<path d="M13.6663 6.99337C13.6663 3.31671 10.6797 0.333374 6.99967 0.333374C3.31967 0.333374 0.333008 3.31671 0.333008 6.99337C0.333008 9.01837 1.25301 10.8434 2.69301 12.0684C2.70634 12.0817 2.71967 12.0817 2.71967 12.095C2.83967 12.1884 2.95967 12.2817 3.09301 12.375C3.15967 12.415 3.21301 12.4675 3.27967 12.5209C4.3814 13.2678 5.68193 13.667 7.01301 13.6667C8.34408 13.667 9.64462 13.2678 10.7463 12.5209C10.813 12.4809 10.8663 12.4284 10.933 12.3875C11.053 12.295 11.1863 12.2017 11.3063 12.1084C11.3197 12.095 11.333 12.095 11.333 12.0817C12.7463 10.8425 13.6663 9.01837 13.6663 6.99337ZM6.99967 12.8275C5.74634 12.8275 4.59967 12.4275 3.65301 11.7617C3.66634 11.655 3.69301 11.5492 3.71967 11.4425C3.79912 11.1535 3.91565 10.8759 4.06634 10.6167C4.21301 10.3634 4.38634 10.1367 4.59967 9.93671C4.79967 9.73671 5.03967 9.55087 5.27967 9.40421C5.53301 9.25754 5.79967 9.15087 6.09301 9.07087C6.38862 8.99119 6.69351 8.95112 6.99967 8.95171C7.90855 8.94527 8.78403 9.29391 9.43967 9.92337C9.74634 10.23 9.98634 10.59 10.1597 11.0025C10.253 11.2425 10.3197 11.4959 10.3597 11.7617C9.37565 12.4535 8.20254 12.8256 6.99967 12.8275ZM4.95967 6.66087C4.84219 6.39189 4.78311 6.10104 4.78634 5.80754C4.78634 5.51504 4.83967 5.22171 4.95967 4.95504C5.07967 4.68837 5.23967 4.44921 5.43967 4.24921C5.63967 4.04921 5.87967 3.89004 6.14634 3.77004C6.41301 3.65004 6.70634 3.59671 6.99967 3.59671C7.30634 3.59671 7.58634 3.65004 7.85301 3.77004C8.11967 3.89004 8.35967 4.05004 8.55967 4.24921C8.75967 4.44921 8.91967 4.68921 9.03967 4.95504C9.15967 5.22171 9.21301 5.51504 9.21301 5.80754C9.21301 6.11421 9.15967 6.39421 9.03967 6.66004C8.92386 6.92276 8.76121 7.16222 8.55967 7.36671C8.35512 7.56795 8.11566 7.73031 7.85301 7.84587C7.30203 8.0723 6.68398 8.0723 6.13301 7.84587C5.87035 7.73031 5.6309 7.56795 5.42634 7.36671C5.22452 7.1652 5.06575 6.92478 4.95967 6.66004V6.66087ZM11.1463 11.0825C11.1463 11.0559 11.133 11.0425 11.133 11.0159C11.0019 10.5987 10.8086 10.2037 10.5597 9.84421C10.3105 9.48202 10.0043 9.16261 9.65301 8.89837C9.38469 8.69652 9.09386 8.5265 8.78634 8.39171C8.92624 8.29941 9.05587 8.19241 9.17301 8.07254C9.37179 7.87629 9.54637 7.65695 9.69301 7.41921C9.98831 6.93405 10.1408 6.37545 10.133 5.80754C10.1371 5.38714 10.0555 4.97031 9.89301 4.58254C9.73261 4.20891 9.50173 3.86967 9.21301 3.58337C8.92471 3.30007 8.58541 3.07387 8.21301 2.91671C7.8246 2.75454 7.40723 2.67316 6.98634 2.67754C6.5654 2.67342 6.14803 2.75508 5.75967 2.91754C5.38405 3.07436 5.04393 3.30536 4.75967 3.59671C4.47638 3.8847 4.25017 4.22372 4.09301 4.59587C3.93055 4.98364 3.84888 5.40047 3.85301 5.82087C3.85301 6.11421 3.89301 6.39421 3.97301 6.66004C4.05301 6.94004 4.15967 7.19337 4.30634 7.43254C4.43967 7.67254 4.62634 7.88587 4.82634 8.08587C4.94634 8.20587 5.07967 8.31171 5.22634 8.40504C4.91787 8.54342 4.62694 8.71798 4.35967 8.92504C4.01301 9.19171 3.70634 9.51087 3.45301 9.85754C3.20156 10.2156 3.00807 10.611 2.87967 11.0292C2.86634 11.0559 2.86634 11.0825 2.86634 11.0959C1.81301 10.03 1.15967 8.59171 1.15967 6.99337C1.15967 3.78337 3.78634 1.15921 6.99967 1.15921C10.213 1.15921 12.8397 3.78337 12.8397 6.99337C12.8379 8.52667 12.2291 9.99689 11.1463 11.0825Z" fill="#151515"/>
</svg>
