<svg width="33" height="33" viewBox="0 0 33 33" fill="none" xmlns="http://www.w3.org/2000/svg">
<path d="M15.0562 17.4623L13.1656 15.5373C12.8906 15.2623 12.5643 15.1248 12.1866 15.1248C11.808 15.1248 11.4812 15.2623 11.2062 15.5373C10.9312 15.8123 10.7882 16.1386 10.7772 16.5163C10.7653 16.8949 10.8969 17.2217 11.1719 17.4967L14.0938 20.4186C14.3687 20.6936 14.6896 20.8311 15.0562 20.8311C15.4229 20.8311 15.7437 20.6936 16.0187 20.4186L21.8625 14.5748C22.1375 14.2998 22.275 13.973 22.275 13.5944C22.275 13.2168 22.1375 12.8904 21.8625 12.6154C21.5875 12.3404 21.2612 12.2029 20.8835 12.2029C20.5049 12.2029 20.1781 12.3404 19.9031 12.6154L15.0562 17.4623ZM16.5 30.1467H16.1562C16.0417 30.1467 15.9385 30.1238 15.8469 30.0779C12.8448 29.1383 10.3698 27.2761 8.42188 24.4913C6.47396 21.7074 5.5 18.6311 5.5 15.2623V8.76543C5.5 8.19251 5.66637 7.67689 5.99912 7.21855C6.33096 6.76022 6.76042 6.42793 7.2875 6.22168L15.5375 3.12793C15.8583 3.01335 16.1792 2.95605 16.5 2.95605C16.8208 2.95605 17.1417 3.01335 17.4625 3.12793L25.7125 6.22168C26.2396 6.42793 26.6695 6.76022 27.0023 7.21855C27.3341 7.67689 27.5 8.19251 27.5 8.76543V15.2623C27.5 18.6311 26.526 21.7074 24.5781 24.4913C22.6302 27.2761 20.1552 29.1383 17.1531 30.0779C17.0385 30.1238 16.8208 30.1467 16.5 30.1467ZM16.5 27.3623C18.8833 26.6061 20.8542 25.0936 22.4125 22.8248C23.9708 20.5561 24.75 18.0352 24.75 15.2623V8.76543L16.5 5.67168L8.25 8.76543V15.2623C8.25 18.0352 9.02917 20.5561 10.5875 22.8248C12.1458 25.0936 14.1167 26.6061 16.5 27.3623Z" fill="#27AE60"/>
</svg>
