<svg width="33" height="33" viewBox="0 0 33 33" fill="none" xmlns="http://www.w3.org/2000/svg">
<circle cx="16.5" cy="16.5" r="16" stroke="#00AE31"/>
<path d="M16.5005 16.0001C18.9858 16.0001 21.0006 13.9853 21.0006 11.5C21.0006 9.01474 18.9858 7 16.5005 7C14.0152 7 12.0005 9.01474 12.0005 11.5C12.0005 13.9853 14.0152 16.0001 16.5005 16.0001Z" fill="#22EE5B"/>
<path fill-rule="evenodd" clip-rule="evenodd" d="M16.5 17.0002C19.3545 17.0002 21.8915 17.7577 23.4605 18.9468C24.4115 19.6668 25 20.5393 25 21.5003C25 22.4613 24.4115 23.3338 23.4605 24.0538C21.8915 25.2428 19.3545 26.0003 16.5 26.0003C13.6454 26.0003 11.1084 25.2428 9.53939 24.0538C8.58838 23.3338 7.99988 22.4613 7.99988 21.5003C7.99988 20.5393 8.58838 19.6668 9.53939 18.9468C11.1084 17.7577 13.6454 17.0002 16.5 17.0002Z" fill="#22EE5B"/>
</svg>
