<svg width="30" height="30" viewBox="0 0 30 30" fill="none" xmlns="http://www.w3.org/2000/svg">
<path fill-rule="evenodd" clip-rule="evenodd" d="M21 16.2222C20.6685 16.2222 20.3505 16.351 20.1161 16.5802C19.8817 16.8094 19.75 17.1203 19.75 17.4444C19.75 17.7686 19.8817 18.0795 20.1161 18.3087C20.3505 18.5379 20.6685 18.6667 21 18.6667C21.3315 18.6667 21.6495 18.5379 21.8839 18.3087C22.1183 18.0795 22.25 17.7686 22.25 17.4444C22.25 17.1203 22.1183 16.8094 21.8839 16.5802C21.6495 16.351 21.3315 16.2222 21 16.2222ZM18.5 17.4444C18.5 16.7961 18.7634 16.1744 19.2322 15.716C19.7011 15.2575 20.337 15 21 15C21.663 15 22.2989 15.2575 22.7678 15.716C23.2366 16.1744 23.5 16.7961 23.5 17.4444C23.5 18.0928 23.2366 18.7145 22.7678 19.1729C22.2989 19.6313 21.663 19.8889 21 19.8889C20.337 19.8889 19.7011 19.6313 19.2322 19.1729C18.7634 18.7145 18.5 18.0928 18.5 17.4444ZM17.4338 22.8632C17.2569 23.0373 17.25 23.1327 17.25 23.1669V24.7778H24.75V23.1669C24.75 23.1327 24.7438 23.0373 24.5663 22.8632C24.3788 22.678 24.0631 22.4757 23.625 22.2887C22.7425 21.9104 21.6625 21.7222 21 21.7222C20.3375 21.7222 19.2575 21.9117 18.375 22.2881C17.9369 22.4751 17.6219 22.678 17.4338 22.8632ZM21 20.5C19.3312 20.5 16 21.3934 16 23.1669V26H26V23.1669C26 21.3934 22.6687 20.5 21 20.5Z" fill="#949494"/>
<path fill-rule="evenodd" clip-rule="evenodd" d="M9.50005 23.5556C9.50005 23.8837 9.61005 24.1917 9.80378 24.4099C9.98772 24.6171 10.2768 24.7778 10.7223 24.7778H16.8334V26H10.7223C9.94555 26 9.31794 25.7024 8.89078 25.2221C8.47339 24.7527 8.27783 24.1441 8.27783 23.5556V20.5H9.50005V23.5556Z" fill="#949494"/>
<path fill-rule="evenodd" clip-rule="evenodd" d="M8.72727 18.7328L12.0996 22.1527L11.264 23L8.72727 20.4275L6.1905 23L5.35495 22.1527L8.72727 18.7328ZM6.36364 5.79771C6.36364 5.32093 6.55041 4.86367 6.88286 4.52654C7.21531 4.1894 7.66621 4 8.13636 4H12.8636C13.3338 4 13.7847 4.1894 14.1171 4.52654C14.4496 4.86367 14.6364 5.32093 14.6364 5.79771V6.39695H17V17.7824H4V6.39695H6.36364V5.79771ZM6.36364 7.59542H5.18182V8.79389H6.36364V7.59542ZM6.36364 9.99237H5.18182V16.584H8.13636V12.9886H12.8636V16.584H15.8182V9.99237H14.6364V10.5916C14.6364 11.0684 14.4496 11.5256 14.1171 11.8628C13.7847 12.1999 13.3338 12.3893 12.8636 12.3893H8.13636C7.66621 12.3893 7.21531 12.1999 6.88286 11.8628C6.55041 11.5256 6.36364 11.0684 6.36364 10.5916V9.99237ZM14.6364 8.79389H15.8182V7.59542H14.6364V8.79389ZM11.6818 16.584V14.187H9.31818V16.584H11.6818ZM8.13636 5.19847C7.97964 5.19847 7.82934 5.26161 7.71853 5.37399C7.60771 5.48636 7.54545 5.63878 7.54545 5.79771V10.5916C7.54545 10.7505 7.60771 10.903 7.71853 11.0153C7.82934 11.1277 7.97964 11.1908 8.13636 11.1908H12.8636C13.0204 11.1908 13.1707 11.1277 13.2815 11.0153C13.3923 10.903 13.4545 10.7505 13.4545 10.5916V5.79771C13.4545 5.63878 13.3923 5.48636 13.2815 5.37399C13.1707 5.26161 13.0204 5.19847 12.8636 5.19847H8.13636ZM9.90909 7.59542V5.79771H11.0909V7.59542H12.8636V8.79389H11.0909V10.5916H9.90909V8.79389H8.13636V7.59542H9.90909Z" fill="#949494"/>
</svg>
