<svg width="65" height="37" viewBox="0 0 65 37" fill="none" xmlns="http://www.w3.org/2000/svg">
<g clip-path="url(#clip0_1927_1985)">
<path d="M60.9313 17.45C60.9313 13.2 57.4813 9.75 53.2313 9.75C48.9813 9.75 45.5312 13.2 45.5312 17.45C45.5312 21.7 48.9813 25.15 53.2313 25.15C57.4813 25.15 60.9313 21.7 60.9313 17.45Z" fill="#FFD600"/>
<path d="M51.4429 35.3797L52.3329 29.5196H52.3629L51.4829 27.9096H54.9929L54.1129 29.5196H54.1429L55.0329 35.3797H56.1029L57.7629 26.6596C57.6029 26.6496 57.4429 26.6396 57.2729 26.6396H49.2029C49.0329 26.6396 48.8729 26.6496 48.7129 26.6596L50.3729 35.3797H51.4429Z" fill="#0E0F11"/>
<path d="M19.3922 17.45C19.3922 13.2 15.9422 9.75 11.6922 9.75C7.44219 9.75 3.99219 13.2 3.99219 17.45C3.99219 21.7 7.44219 25.15 11.6922 25.15C15.9422 25.15 19.3922 21.7 19.3922 17.45Z" fill="#FFD600"/>
<path d="M0.00195312 33.1097V36.6197H15.362C15.392 34.9397 15.822 33.3497 16.532 31.9297V36.6197H48.402V31.8797C49.122 33.3097 49.562 34.9197 49.592 36.6197H64.922V33.1097C64.922 29.1097 61.682 25.8697 57.682 25.8697H48.772C48.022 25.8697 47.312 25.9997 46.632 26.2097C44.852 23.6497 41.892 21.9697 38.532 21.9697H26.382C23.022 21.9697 20.062 23.6497 18.282 26.2097C17.602 25.9997 16.892 25.8697 16.142 25.8697H7.23195C3.24195 25.8697 0.00195312 29.1097 0.00195312 33.1097ZM49.202 26.6397H57.272C57.442 26.6397 57.602 26.6497 57.762 26.6597L56.102 35.3797H55.032L54.142 29.5197H54.112L54.992 27.9097H51.482L52.362 29.5197H52.332L51.442 35.3797H50.372L48.712 26.6597C48.872 26.6497 49.042 26.6397 49.202 26.6397ZM26.962 23.0197H37.962C38.182 23.0197 38.412 23.0397 38.632 23.0497L36.372 34.9297H28.552L26.292 23.0497C26.512 23.0297 26.732 23.0197 26.962 23.0197ZM7.65195 26.6397H15.722C15.892 26.6397 16.052 26.6497 16.212 26.6597L14.552 35.3797H13.482L12.592 29.5197H12.562L13.442 27.9097H9.94195L10.812 29.5197H10.782L9.89195 35.3797H8.82195L7.16195 26.6597C7.32195 26.6497 7.48195 26.6397 7.65195 26.6397Z" fill="#FFD600"/>
<path d="M9.89188 35.3797L10.7819 29.5196H10.8119L9.94187 27.9096H13.4419L12.5619 29.5196H12.5919L13.4819 35.3797H14.5519L16.2119 26.6596C16.0519 26.6496 15.8819 26.6396 15.7219 26.6396H7.66187C7.49187 26.6396 7.33187 26.6496 7.17188 26.6596L8.83187 35.3797H9.90187H9.89188Z" fill="#0E0F11"/>
<path d="M42.9624 10.49C42.9624 4.7 38.2624 0 32.4724 0C26.6824 0 21.9824 4.7 21.9824 10.49C21.9824 16.28 26.6824 20.98 32.4724 20.98C38.2624 20.98 42.9624 16.28 42.9624 10.49Z" fill="#FFD600"/>
<path d="M30.0115 34.9295L31.2215 26.9395H31.2615L30.0715 24.7495H34.8415L33.6415 26.9395H33.6815L34.8915 34.9295H36.3515L38.6115 23.0495C38.3915 23.0295 38.1715 23.0195 37.9415 23.0195H26.9415C26.7115 23.0195 26.4915 23.0395 26.2715 23.0495L28.5315 34.9295H29.9915H30.0115Z" fill="#0E0F11"/>
<path d="M33.7017 26.94H33.6617L34.8517 24.75H30.0817L31.2717 26.94H31.2317L30.0117 34.93H34.9217L33.7017 26.94Z" fill="#0E0F11"/>
</g>
<defs>
<clipPath id="clip0_1927_1985">
<rect width="64.93" height="36.63" fill="white" transform="translate(0.00195312)"/>
</clipPath>
</defs>
</svg>
