<svg width="13" height="13" viewBox="0 0 13 13" fill="none" xmlns="http://www.w3.org/2000/svg">
<path d="M12.7238 12.6557L12.6672 12.7123C12.2429 13.1372 11.9035 13.0239 11.5923 12.7123L6.5006 7.64221L1.43719 12.7123C1.09774 13.0522 0.786583 13.1372 0.362275 12.7123L0.277414 12.6557C-0.146895 12.2308 -0.0337459 11.8909 0.277414 11.5793L5.36911 6.48089L0.305701 1.41077C-0.0337458 1.07087 -0.118607 0.759301 0.305701 0.33443L0.362275 0.277781C0.786583 -0.147089 1.12603 -0.0337906 1.43719 0.277781L6.5006 5.34791L11.564 0.277781C11.9035 -0.0621154 12.2429 -0.118765 12.6389 0.277781L12.6955 0.33443C13.1198 0.759301 13.0067 1.0992 12.6955 1.41077L7.63209 6.48089L12.7238 11.5793C13.0632 11.9192 13.1198 12.2591 12.7238 12.6557Z" fill="#292929"/>
</svg>
