<svg width="12" height="12" viewBox="0 0 12 12" fill="none" xmlns="http://www.w3.org/2000/svg">
<path d="M9.33415 11.3334H2.00081C1.64719 11.3334 1.30805 11.1929 1.058 10.9429C0.807956 10.6928 0.66748 10.3537 0.66748 10.0001V2.66675C0.66748 2.31313 0.807956 1.97399 1.058 1.72394C1.30805 1.47389 1.64719 1.33341 2.00081 1.33341H4.66748V2.66675H2.00081V10.0001H9.33415V7.33341H10.6675V10.0001C10.6675 10.3537 10.527 10.6928 10.277 10.9429C10.0269 11.1929 9.68777 11.3334 9.33415 11.3334ZM5.80081 7.13808L4.86081 6.19541L9.05615 2.00008H6.66748V0.666748H11.3341V5.33341H10.0008V2.94341L5.80081 7.13808Z" fill="#151515"/>
</svg>
