<svg width="121" height="61" viewBox="0 0 121 61" fill="none" xmlns="http://www.w3.org/2000/svg">
<path d="M87.6197 34.572C84.9917 34.587 82.7167 35.2181 80.8077 36.1581C80.1027 34.7631 79.3977 33.545 79.2807 32.635C79.1487 31.5781 78.9867 30.9321 79.1487 29.6691C79.3107 28.406 80.0447 26.6151 80.0447 26.4691C80.0297 26.3371 79.8847 25.691 78.3707 25.6761C76.8567 25.6611 75.5507 25.9701 75.4047 26.3761C75.1427 27.1092 74.9319 27.8597 74.7737 28.6221C74.5097 30.0021 71.7497 34.892 70.1787 37.46C69.6647 36.462 69.2247 35.58 69.1367 34.876C69.0047 33.819 68.8427 33.1731 69.0047 31.9101C69.1667 30.6471 69.9007 28.8561 69.9007 28.7101C69.8857 28.5781 69.7407 27.9321 68.2267 27.9171C66.7127 27.9021 65.4067 28.2111 65.2607 28.6171C65.1147 29.0231 64.9527 29.9531 64.6307 30.8631C64.3227 31.7631 60.6527 39.9361 59.6977 42.063C59.2137 43.149 58.7977 44.016 58.4777 44.6031C58.1577 45.1901 58.4627 44.6471 58.4337 44.7061L58.0237 45.4841V45.4991C57.8177 45.8661 57.5977 46.219 57.4937 46.219C57.4207 46.219 57.2737 45.235 57.5237 43.885C58.0667 41.052 59.3877 36.633 59.3737 36.4711C59.3737 36.398 59.6237 35.621 58.5237 35.223C57.4517 34.827 57.0707 35.487 56.9837 35.487C56.8967 35.487 56.8237 35.722 56.8237 35.722C56.8237 35.722 58.0137 30.7451 54.5477 30.7451C52.3747 30.7451 49.3797 33.109 47.8977 35.267L40.4107 39.363L40.2507 39.187C36.0507 34.709 28.2857 31.5371 28.6087 25.5191C28.7257 23.3321 29.4887 17.562 43.5247 10.574C55.0197 4.84905 64.2247 6.41905 65.8247 9.91405C68.1007 14.9041 60.9067 24.184 48.9567 25.5201C44.4067 26.034 42.0127 24.2721 41.4107 23.6121C40.7807 22.9121 40.6907 22.8921 40.4567 23.0251C40.0747 23.2311 40.3097 23.8471 40.4567 24.2151C40.8087 25.1401 42.2767 26.7851 44.7727 27.6051C46.9597 28.3251 52.3027 28.7211 58.7627 26.225C65.9957 23.39 71.6477 15.6201 69.9897 9.11505C68.2997 2.49405 57.3197 0.322051 46.9397 4.00705C40.7597 6.21005 34.0657 9.64405 29.2497 14.1501C23.5247 19.494 22.6137 24.1621 22.9957 26.1C24.3317 33.015 33.8597 37.522 37.6757 40.854L37.1457 41.148C35.2377 42.088 27.9707 45.89 26.1497 49.912C24.0947 54.462 26.4727 57.737 28.0577 58.177C32.9607 59.542 37.9817 57.091 40.6977 53.053C43.3977 49.016 43.0757 43.775 41.8277 41.383L41.7837 41.295L43.2807 40.4151C44.1914 39.8801 45.1116 39.3614 46.0407 38.8591C45.5707 40.1361 45.2337 41.649 45.0567 43.849C44.8507 46.433 45.9067 49.779 47.3027 51.101C47.9197 51.674 48.6527 51.688 49.1087 51.688C50.7237 51.688 51.4587 50.352 52.2647 48.752C53.2627 46.799 54.1447 44.539 54.1447 44.539C54.1447 44.539 53.0447 50.661 56.0527 50.661C57.1527 50.661 58.2547 49.237 58.7527 48.503V48.518C58.7527 48.518 58.7827 48.474 58.8407 48.371C58.9577 48.195 59.0167 48.091 59.0167 48.091V48.0611C59.4567 47.298 60.4407 45.5611 61.9087 42.6581C63.8027 38.9281 65.6227 34.261 65.6227 34.261C65.6227 34.261 65.7987 35.406 66.3427 37.285C66.6657 38.4011 67.3707 39.619 67.9127 40.808L67.2077 41.778L67.2227 41.793C66.8707 42.2631 66.4727 42.763 66.0627 43.261C64.5657 45.051 62.7747 47.093 62.5397 47.681C62.2597 48.3811 62.3197 48.885 62.8627 49.296C63.2587 49.59 63.9627 49.648 64.7127 49.59C66.0627 49.502 67.0127 49.164 67.4727 48.96C68.3201 48.658 69.1207 48.2379 69.8507 47.712C71.3187 46.626 72.2147 45.084 72.1267 43.029C72.0827 41.899 71.7167 40.783 71.2607 39.726L71.6567 39.139C73.9767 35.7491 75.7667 32.0191 75.7667 32.0191C75.7667 32.0191 75.9427 33.164 76.4867 35.043C76.7667 35.997 77.3237 37.04 77.8227 38.067C75.6497 39.843 74.2847 41.8991 73.8147 43.2491C72.9487 45.745 73.6247 46.875 74.9007 47.149C75.4737 47.266 76.2957 47.002 76.9107 46.739C77.6737 46.489 78.5987 46.064 79.4507 45.432C80.9187 44.3461 82.3277 42.834 82.2547 40.792C82.2107 39.8521 81.9607 38.9281 81.6247 38.0471C83.4747 37.284 85.8677 36.843 88.9067 37.21C95.4397 37.973 96.7317 42.055 96.4817 43.758C96.2317 45.461 94.8667 46.4011 94.4117 46.694C93.9567 46.974 93.8097 47.076 93.8537 47.281C93.9137 47.589 94.1177 47.575 94.5137 47.516C95.0567 47.428 97.9487 46.121 98.0667 42.98C98.2427 38.9431 94.4107 34.5401 87.6137 34.583L87.6197 34.572ZM37.2367 51.557C35.0787 53.921 32.0397 54.817 30.7467 54.053C29.3517 53.246 29.8967 49.766 32.5527 47.2561C34.1677 45.729 36.2667 44.32 37.6467 43.454L38.9827 42.647C39.0707 42.587 39.1297 42.559 39.1297 42.559C39.2327 42.499 39.3497 42.4271 39.4677 42.3531C40.4517 45.9351 39.5117 49.077 37.2377 51.558L37.2367 51.557ZM53.0187 40.8251C52.2687 42.66 50.6847 47.373 49.7307 47.108C48.9087 46.888 48.4107 43.32 49.5707 39.798C50.1577 38.022 51.4057 35.898 52.1407 35.085C53.3307 33.765 54.6207 33.3231 54.9447 33.8671C55.3267 34.5721 53.4917 39.681 53.0217 40.827L53.0187 40.8251ZM66.0397 47.05C65.7167 47.21 65.4227 47.33 65.2897 47.24C65.1867 47.18 65.4217 46.96 65.4217 46.96C65.4217 46.96 67.0517 45.213 67.6977 44.406L68.9747 42.7761V42.952C68.9747 45.066 66.9487 46.475 66.0387 47.048L66.0397 47.05ZM76.0817 44.75C75.8467 44.5741 75.8757 44.03 76.6687 42.328C76.9767 41.653 77.6817 40.522 78.8987 39.451C79.0457 39.891 79.1337 40.3171 79.1187 40.7141C79.1037 43.3571 77.2247 44.34 76.0787 44.751L76.0817 44.75Z" fill="#CF649A"/>
</svg>
