<svg width="18" height="18" viewBox="0 0 18 18" fill="none" xmlns="http://www.w3.org/2000/svg">
<path d="M16.9874 15.8806L11.7703 10.6634C12.5799 9.61674 13.0178 8.33705 13.0178 6.99107C13.0178 5.37991 12.389 3.8692 11.252 2.73013C10.1149 1.59107 8.60017 0.964287 6.99102 0.964287C5.38187 0.964287 3.86714 1.59308 2.73008 2.73013C1.59102 3.86719 0.964233 5.37991 0.964233 6.99107C0.964233 8.60022 1.59303 10.115 2.73008 11.252C3.86714 12.3911 5.37986 13.0179 6.99102 13.0179C8.337 13.0179 9.61468 12.5799 10.6613 11.7723L15.8785 16.9875C15.8938 17.0028 15.912 17.0149 15.932 17.0232C15.952 17.0315 15.9734 17.0358 15.995 17.0358C16.0167 17.0358 16.0381 17.0315 16.0581 17.0232C16.0781 17.0149 16.0963 17.0028 16.1116 16.9875L16.9874 16.1136C17.0028 16.0983 17.0149 16.0802 17.0232 16.0602C17.0315 16.0402 17.0357 16.0187 17.0357 15.9971C17.0357 15.9755 17.0315 15.954 17.0232 15.934C17.0149 15.914 17.0028 15.8959 16.9874 15.8806ZM10.1732 10.1732C9.32138 11.023 8.19236 11.4911 6.99102 11.4911C5.78968 11.4911 4.66066 11.023 3.80888 10.1732C2.9591 9.32143 2.49102 8.19241 2.49102 6.99107C2.49102 5.78973 2.9591 4.65871 3.80888 3.80893C4.66066 2.95915 5.78968 2.49107 6.99102 2.49107C8.19236 2.49107 9.32339 2.95714 10.1732 3.80893C11.0229 4.66072 11.491 5.78973 11.491 6.99107C11.491 8.19241 11.0229 9.32344 10.1732 10.1732Z" fill="black" fill-opacity="0.45"/>
</svg>
