<svg width="15" height="15" viewBox="0 0 15 15" fill="none" xmlns="http://www.w3.org/2000/svg">
<path d="M6.55647 13.1119C7.97732 13.1127 9.35954 12.649 10.4928 11.7914L13.4309 14.7313C13.5827 14.883 13.7828 14.9767 13.9965 14.9962C14.2102 15.0157 14.4239 14.9598 14.6007 14.8381C14.6866 14.7661 14.766 14.6866 14.838 14.6007C14.9597 14.4238 15.0157 14.2099 14.9962 13.996C14.9767 13.7822 14.883 13.5819 14.7314 13.4299L11.7933 10.4901C12.6792 9.30856 13.1403 7.86229 13.102 6.38572C13.0636 4.90914 12.5281 3.48878 11.5821 2.35483C10.6361 1.22088 9.3352 0.439799 7.8901 0.138163C6.44501 -0.163473 4.94045 0.0320177 3.62028 0.692953C2.30011 1.35389 1.24168 2.44153 0.61653 3.77962C-0.00861714 5.11771 -0.163849 6.62782 0.175994 8.06522C0.515836 9.50263 1.33084 10.7831 2.48891 11.6991C3.64699 12.615 5.08027 13.1129 6.55647 13.1119ZM6.55647 1.65611C7.52413 1.65611 8.47006 1.94322 9.27464 2.48114C10.0792 3.01906 10.7063 3.78363 11.0766 4.67815C11.4469 5.57268 11.5438 6.55699 11.355 7.50662C11.1663 8.45625 10.7003 9.32853 10.0161 10.0132C9.33181 10.6978 8.46004 11.1641 7.51098 11.353C6.56191 11.5419 5.57818 11.4449 4.68418 11.0744C3.79018 10.7039 3.02606 10.0764 2.48846 9.27134C1.95085 8.46629 1.66391 7.5198 1.66391 6.55157C1.66541 5.25368 2.18135 4.00937 3.09856 3.09162C4.01577 2.17387 5.25934 1.65762 6.55647 1.65611Z" fill="#22EE5B"/>
</svg>
