<svg width="37" height="37" viewBox="0 0 37 37" fill="none" xmlns="http://www.w3.org/2000/svg">
<path fill-rule="evenodd" clip-rule="evenodd" d="M18.5 0C8.28295 0 0 8.28295 0 18.5C0 28.717 8.28295 37 18.5 37C28.717 37 37 28.717 37 18.5C37 8.28295 28.717 0 18.5 0ZM26.5189 15.3718C26.6666 15.203 26.779 15.0064 26.8495 14.7936C26.9201 14.5807 26.9474 14.3559 26.9297 14.1323C26.9121 13.9087 26.85 13.6909 26.7469 13.4918C26.6439 13.2926 26.5021 13.116 26.3298 12.9724C26.1575 12.8289 25.9583 12.7212 25.7438 12.6558C25.5293 12.5904 25.3038 12.5685 25.0808 12.5915C24.8577 12.6145 24.6415 12.6818 24.4448 12.7896C24.2481 12.8974 24.075 13.0434 23.9356 13.2191L16.7038 21.8956L12.9618 18.1519C12.6446 17.8455 12.2197 17.676 11.7788 17.6798C11.3378 17.6837 10.916 17.8605 10.6042 18.1723C10.2923 18.4842 10.1155 18.906 10.1116 19.347C10.1078 19.7879 10.2773 20.2128 10.5837 20.53L15.6291 25.5754C15.7944 25.7406 15.9922 25.8695 16.2101 25.9539C16.4279 26.0384 16.6609 26.0765 16.8943 26.0659C17.1277 26.0553 17.3563 25.9962 17.5656 25.8923C17.7749 25.7885 17.9602 25.6422 18.1098 25.4627L26.5189 15.3718Z" fill="#219653"/>
</svg>
