<svg width="31" height="21" viewBox="0 0 31 21" fill="none" xmlns="http://www.w3.org/2000/svg">
<path d="M29.7414 2.42357C29.2794 2.60226 28.8043 2.7531 28.3189 2.87559C28.8936 2.3088 29.3317 1.64191 29.5992 0.912157C29.6591 0.748592 29.597 0.569547 29.4428 0.462541C29.2888 0.355485 29.0749 0.34266 28.9053 0.430279C27.8745 0.963456 26.7624 1.34664 25.5962 1.57068C24.4215 0.569697 22.8261 0 21.1768 0C17.6953 0 14.8628 2.47006 14.8628 5.50611C14.8628 5.74522 14.8802 5.98302 14.9145 6.21753C10.5943 5.88674 6.57792 4.03492 3.81988 1.08449C3.72159 0.979337 3.57016 0.922627 3.41512 0.933498C3.26002 0.944069 3.1206 1.02037 3.04225 1.13764C2.48285 1.9747 2.18712 2.9321 2.18712 3.90622C2.18712 5.23298 2.73026 6.49175 3.68976 7.4754C3.398 7.38728 3.11491 7.27717 2.84469 7.14637C2.69965 7.07593 2.5226 7.07703 2.37847 7.14907C2.23428 7.22116 2.14387 7.35367 2.14002 7.49854C2.13933 7.52294 2.13933 7.54734 2.13933 7.57209C2.13933 9.55245 3.36152 11.3354 5.23015 12.3072C5.06959 12.2932 4.9092 12.2729 4.74979 12.2464C4.58544 12.219 4.4165 12.2692 4.30569 12.3785C4.1947 12.4878 4.15794 12.64 4.20912 12.779C4.90076 14.6622 6.68149 16.0473 8.83424 16.4696C7.04874 17.4449 5.00692 17.9557 2.86348 17.9557C2.41621 17.9557 1.96642 17.9328 1.52622 17.8874C1.30753 17.8647 1.09843 17.9773 1.02392 18.1587C0.949416 18.3402 1.0284 18.5425 1.21441 18.6465C3.96803 20.1862 7.15196 21 10.4219 21C16.8501 21 20.8715 18.3565 23.113 16.1388C25.908 13.3735 27.511 9.71336 27.511 6.09689C27.511 5.9458 27.5084 5.79326 27.5031 5.64117C28.6058 4.91662 29.5552 4.03973 30.3278 3.03189C30.4452 2.87885 30.4325 2.67651 30.2965 2.53563C30.1609 2.39451 29.9345 2.34892 29.7414 2.42357Z" fill="#50ABF1"/>
</svg>
