<svg width="42" height="42" viewBox="0 0 42 42" fill="none" xmlns="http://www.w3.org/2000/svg">
<rect width="42" height="42" rx="8" fill="#FFD600"/>
<path d="M33 13.3161C32.1174 13.6968 31.157 13.9708 30.1676 14.0775C31.1948 13.4673 31.9639 12.5033 32.3308 11.3663C31.367 11.9397 30.3111 12.3417 29.2101 12.5546C28.7499 12.0627 28.1933 11.6707 27.575 11.4033C26.9567 11.1358 26.2899 10.9985 25.6163 11C22.8906 11 20.6986 13.2094 20.6986 15.9206C20.6986 16.3013 20.7447 16.682 20.8197 17.0483C16.7385 16.8349 13.0985 14.8851 10.6786 11.8999C10.2377 12.653 10.0066 13.5106 10.0095 14.3833C10.0095 16.0907 10.8777 17.5963 12.2015 18.4818C11.4214 18.4511 10.6594 18.2366 9.97777 17.8559V17.9165C9.97777 20.3075 11.6679 22.289 13.9206 22.7448C13.4976 22.8546 13.0625 22.9108 12.6255 22.912C12.3054 22.912 12.0025 22.8803 11.6968 22.8371C12.3198 24.7868 14.134 26.203 16.2943 26.2491C14.6041 27.573 12.4871 28.3518 10.1883 28.3518C9.77587 28.3518 9.39514 28.3374 9 28.2912C11.1805 29.6901 13.7677 30.4977 16.5539 30.4977C25.599 30.4977 30.5484 23.0043 30.5484 16.5003C30.5484 16.2869 30.5484 16.0734 30.534 15.86C31.4915 15.1591 32.3308 14.291 33 13.3161Z" fill="#0E0F11"/>
</svg>
