<svg width="34" height="32" viewBox="0 0 34 32" fill="none" xmlns="http://www.w3.org/2000/svg">
<rect x="0.25" y="0.25" width="33.1" height="31.5" rx="4.75" fill="#151515" stroke="#FCD704" stroke-width="0.5"/>
<path d="M13.6841 22.9997C14.9744 23.0092 16.2536 22.755 17.4474 22.2521C18.6411 21.7492 19.7256 21.0076 20.6376 20.0704C21.5497 19.1332 22.2712 18.0191 22.7602 16.7929C23.2492 15.5667 23.4958 14.253 23.4859 12.928C23.4859 12.7738 23.4859 12.6215 23.4751 12.4692C24.1518 11.9676 24.7359 11.3461 25.1999 10.6338C24.5709 10.92 23.9037 11.1078 23.2204 11.1908C23.9394 10.7512 24.4786 10.0586 24.7379 9.24163C24.0616 9.65404 23.3218 9.94484 22.5502 10.1015C22.0291 9.53944 21.3429 9.16834 20.5968 9.04506C19.8506 8.92177 19.0857 9.05312 18.4192 9.41896C17.7527 9.78481 17.2215 10.365 16.9068 11.0705C16.5921 11.7761 16.5114 12.5682 16.677 13.3254C15.3056 13.2555 13.9638 12.8901 12.7389 12.253C11.5139 11.6158 10.4332 10.7211 9.56703 9.62706C9.12667 10.4077 8.99245 11.3313 9.19167 12.2099C9.39088 13.0886 9.90857 13.8563 10.6394 14.3569C10.0908 14.3389 9.55435 14.1856 9.07551 13.91C9.07551 13.9256 9.07551 13.9393 9.07551 13.9549C9.07555 14.7719 9.3507 15.5636 9.85432 16.196C10.3579 16.8284 11.059 17.2625 11.8387 17.4247C11.3311 17.5666 10.7985 17.587 10.282 17.4844C10.5029 18.1881 10.9325 18.8034 11.5105 19.2441C12.0886 19.6849 12.7864 19.9292 13.5063 19.9429C12.2848 20.9278 10.776 21.4618 9.22297 21.4589C8.9479 21.459 8.67307 21.4425 8.3999 21.4094C9.9762 22.4491 11.8107 23.0009 13.6841 22.9988" fill="white"/>
</svg>
