<svg width="59" height="60" viewBox="0 0 59 60" fill="none" xmlns="http://www.w3.org/2000/svg">
<g filter="url(#filter0_d_2470_2033)">
<circle cx="29.5" cy="29.5938" r="23" stroke="#FFD600" stroke-opacity="0.2"/>
</g>
<path opacity="0.5" d="M23.1432 37.0938C20.3028 37.0938 18 35.0793 18 32.5941C18 30.1078 20.3028 28.0933 23.1432 28.0933C23.484 28.0933 23.8176 28.1231 24.1392 28.1783M24.1392 28.1783C23.8573 27.5117 23.7134 26.8055 23.7144 26.0937C23.7144 22.7798 26.784 20.0938 30.5712 20.0938C34.0992 20.0938 37.0044 22.4249 37.3872 25.4222M24.1392 28.1783C24.8032 28.2925 25.4352 28.5214 25.9992 28.8519M32.8572 25.4349C33.5921 25.2082 34.365 25.0929 35.1432 25.0939C35.928 25.0939 36.6828 25.2097 37.3872 25.4222M37.3872 25.4222C40.0704 26.235 42 28.4673 42 31.0938C42 33.97 39.6876 36.3744 36.6 36.9588" stroke="#FFD600" stroke-width="1.5" stroke-linecap="round"/>
<path d="M30.0833 33.7603V40.0103M30.0833 33.7603L32.1667 35.8436M30.0833 33.7603L28 35.8436" stroke="#FFD600" stroke-opacity="0.6" stroke-width="1.5" stroke-linecap="round" stroke-linejoin="round"/>
<defs>
<filter id="filter0_d_2470_2033" x="0" y="0.09375" width="59" height="59" filterUnits="userSpaceOnUse" color-interpolation-filters="sRGB">
<feFlood flood-opacity="0" result="BackgroundImageFix"/>
<feColorMatrix in="SourceAlpha" type="matrix" values="0 0 0 0 0 0 0 0 0 0 0 0 0 0 0 0 0 0 127 0" result="hardAlpha"/>
<feOffset/>
<feGaussianBlur stdDeviation="3"/>
<feComposite in2="hardAlpha" operator="out"/>
<feColorMatrix type="matrix" values="0 0 0 0 0 0 0 0 0 0 0 0 0 0 0 0 0 0 0.02 0"/>
<feBlend mode="normal" in2="BackgroundImageFix" result="effect1_dropShadow_2470_2033"/>
<feBlend mode="normal" in="SourceGraphic" in2="effect1_dropShadow_2470_2033" result="shape"/>
</filter>
</defs>
</svg>
