<svg width="17" height="17" viewBox="0 0 17 17" fill="none" xmlns="http://www.w3.org/2000/svg">
<path fill-rule="evenodd" clip-rule="evenodd" d="M8.40698 1.09277C4.31622 1.09277 1 4.40899 1 8.49975C1 10.1484 1.53817 11.6706 2.44901 12.9013C3.3786 11.4836 4.77148 10.4335 6.31349 9.9243C5.36483 9.26237 4.74419 8.16284 4.74419 6.91835C4.74419 4.89545 6.38407 3.25556 8.40698 3.25556C10.4299 3.25556 12.0698 4.89545 12.0698 6.91835C12.0698 8.16283 11.4491 9.26235 10.5005 9.92428C12.0425 10.4334 13.4354 11.4836 14.365 12.9013C15.2758 11.6706 15.814 10.1484 15.814 8.49975C15.814 4.40899 12.4977 1.09277 8.40698 1.09277ZM13.6835 13.698C12.5506 11.7813 10.4663 10.5811 8.40702 10.5811C6.34768 10.5811 4.26336 11.7813 3.1305 13.698C4.47443 15.0621 6.34164 15.9067 8.40698 15.9067C10.4723 15.9067 12.3396 15.062 13.6835 13.698ZM0 8.49975C0 3.85671 3.76393 0.0927734 8.40698 0.0927734C13.05 0.0927734 16.814 3.85671 16.814 8.49975C16.814 10.7692 15.9141 12.8295 14.4527 14.3415C12.9247 15.9226 10.7803 16.9067 8.40698 16.9067C6.03365 16.9067 3.8893 15.9226 2.36125 14.3415C0.899896 12.8295 0 10.7692 0 8.49975ZM8.40698 4.25556C6.93636 4.25556 5.74419 5.44774 5.74419 6.91835C5.74419 8.38897 6.93636 9.58115 8.40698 9.58115C9.8776 9.58115 11.0698 8.38897 11.0698 6.91835C11.0698 5.44774 9.8776 4.25556 8.40698 4.25556Z" fill="#0E0F11"/>
</svg>
