<svg width="12" height="14" viewBox="0 0 12 14" fill="none" xmlns="http://www.w3.org/2000/svg">
<path d="M10.5947 0.0302734H2.48066C2.41405 0.0302734 2.35956 0.086281 2.35956 0.154735V1.02596C2.35956 1.09442 2.41405 1.15042 2.48066 1.15042H9.98918V11.8541C9.98918 11.9225 10.0437 11.9785 10.1103 11.9785H10.958C11.0246 11.9785 11.0791 11.9225 11.0791 11.8541V0.528118C11.0791 0.252748 10.8626 0.0302734 10.5947 0.0302734ZM8.65702 2.02165H0.906295C0.63835 2.02165 0.421875 2.24413 0.421875 2.5195V10.7759C0.421875 10.9082 0.473345 11.0342 0.564173 11.1275L3.18761 13.8237C3.22092 13.8579 3.25876 13.8859 3.29964 13.9093V13.9388H3.36321C3.4162 13.959 3.47221 13.9699 3.52973 13.9699H8.65702C8.92497 13.9699 9.14144 13.7475 9.14144 13.4721V2.5195C9.14144 2.24413 8.92497 2.02165 8.65702 2.02165ZM3.78254 12.9742H3.77951L1.51182 10.6437V10.6406H3.78254V12.9742Z" fill="#FFD600"/>
</svg>
