<svg width="12" height="14" viewBox="0 0 12 14" fill="none" xmlns="http://www.w3.org/2000/svg">
<path d="M10.5947 0.03125H2.48066C2.41405 0.03125 2.35956 0.0872575 2.35956 0.155711V1.02694C2.35956 1.09539 2.41405 1.1514 2.48066 1.1514H9.98918V11.8551C9.98918 11.9235 10.0437 11.9795 10.1103 11.9795H10.958C11.0246 11.9795 11.0791 11.9235 11.0791 11.8551V0.529095C11.0791 0.253724 10.8626 0.03125 10.5947 0.03125ZM8.65702 2.02263H0.906295C0.63835 2.02263 0.421875 2.2451 0.421875 2.52047V10.7769C0.421875 10.9092 0.473345 11.0352 0.564173 11.1285L3.18761 13.8247C3.22092 13.8589 3.25876 13.8869 3.29964 13.9102V13.9398H3.36321C3.4162 13.96 3.47221 13.9709 3.52973 13.9709H8.65702C8.92497 13.9709 9.14144 13.7484 9.14144 13.4731V2.52047C9.14144 2.2451 8.92497 2.02263 8.65702 2.02263ZM3.78254 12.9752H3.77951L1.51182 10.6447V10.6416H3.78254V12.9752Z" fill="#0E0F11"/>
</svg>
