<svg width="24" height="24" viewBox="0 0 24 24" fill="none" xmlns="http://www.w3.org/2000/svg">
<path d="M23.998 11.9985V11.9925C23.998 8.44166 22.4521 5.25279 19.9973 3.05989L19.9853 3.04989C19.955 3.01721 19.9212 2.98802 19.8843 2.96289L19.8823 2.96189C17.7021 1.04751 14.8984 -0.00563145 11.997 2.2649e-05C8.96525 2.2649e-05 6.19748 1.12597 4.08766 2.98389L4.10066 2.97289C4.07523 2.99218 4.05178 3.01396 4.03067 3.03789V3.03889C2.7623 4.16203 1.74705 5.54187 1.05217 7.08701C0.357296 8.63214 -0.00134678 10.3073 3.80035e-06 12.0015C3.80035e-06 15.5513 1.54387 18.7402 3.99667 20.9341L4.00867 20.9441C4.04043 20.9801 4.07596 21.0127 4.11466 21.0411L4.11666 21.0421C6.29631 22.9537 9.09793 24.0052 11.997 24C14.9096 24.0045 17.7232 22.9431 19.9073 21.0161L19.8943 21.0271C21.1847 19.9052 22.219 18.5192 22.9273 16.963C23.6357 15.4067 24.0015 13.7164 24 12.0065V11.9995L23.998 11.9985ZM19.5364 19.8032C18.942 19.3223 18.3028 18.8997 17.6275 18.5412L17.5625 18.5092C18.1755 16.7423 18.5445 14.7054 18.5794 12.5865V12.5705H22.8401C22.6964 15.3118 21.5166 17.896 19.5394 19.8002L19.5364 19.8032ZM12.571 18.2982C13.8538 18.3672 15.0527 18.6492 16.1587 19.1082L16.0867 19.0822C15.2007 21.1021 13.9538 22.49 12.571 22.795V18.2982ZM12.571 17.1543V12.5705H17.4385C17.3999 14.4687 17.0708 16.3497 16.4626 18.1482L16.5016 18.0172C15.2602 17.507 13.9398 17.2154 12.5989 17.1553L12.572 17.1543H12.571ZM12.571 11.4265V6.84272C13.948 6.77987 15.3037 6.47841 16.5776 5.95176L16.4986 5.98076C17.0536 7.59969 17.3945 9.46561 17.4385 11.4055V11.4265H12.571ZM12.571 5.69877V1.20397C13.9538 1.50896 15.2007 2.8909 16.0867 4.91681C15.0527 5.34679 13.8538 5.62778 12.5999 5.69777L12.571 5.69877ZM15.4247 1.69895C16.603 2.09197 17.7049 2.68457 18.6824 3.45087L18.6594 3.43287C18.2165 3.78086 17.7195 4.10884 17.1956 4.39383L17.1396 4.42183C16.7162 3.4226 16.1341 2.49839 15.4157 1.68495L15.4247 1.69595V1.69895ZM11.425 1.20697V5.69877C10.1916 5.63585 8.97816 5.36189 7.83735 4.88881L7.90934 4.91481C8.79927 2.8949 10.0442 1.50796 11.427 1.20297L11.425 1.20697ZM6.85743 4.41883C6.3154 4.1272 5.79895 3.79035 5.31356 3.41187L5.33756 3.42987C6.28661 2.68606 7.35411 2.10733 8.49529 1.71795L8.57129 1.69495C7.87176 2.48635 7.30177 3.38339 6.88243 4.35283L6.85743 4.41783V4.41883ZM11.427 6.84173V11.4255H6.55945C6.60345 9.46461 6.94442 7.59869 7.53837 5.84877L7.49938 5.97976C8.74033 6.48921 10.06 6.78048 11.4001 6.84073L11.427 6.84173ZM11.427 12.5695V17.1533C10.05 17.2161 8.69431 17.5176 7.42038 18.0442L7.49938 18.0152C6.94442 16.3973 6.60345 14.5304 6.55945 12.5905V12.5695H11.427ZM11.427 18.2972V22.792C10.0442 22.487 8.79727 21.1051 7.91134 19.0792C8.94526 18.6492 10.1442 18.3692 11.3981 18.2992L11.427 18.2982V18.2972ZM8.57729 22.2971C7.39934 21.9052 6.29742 21.314 5.31956 20.5491L5.34356 20.5671C5.78652 20.2191 6.28348 19.8912 6.80743 19.6062L6.86343 19.5782C7.28328 20.5778 7.8654 21.5012 8.58628 22.3111L8.57729 22.3011V22.2971ZM17.1406 19.5772C17.7205 19.8922 18.2175 20.2191 18.6844 20.5841L18.6604 20.5661C17.7114 21.3099 16.6439 21.8887 15.5027 22.2781L15.4267 22.3011C16.1262 21.51 16.6962 20.6133 17.1156 19.6442L17.1406 19.5792V19.5772ZM22.8401 11.4265H18.5794C18.5488 9.35757 18.1918 7.30641 17.5215 5.34879L17.5625 5.48678C18.2689 5.11486 18.9376 4.6755 19.5594 4.17484L19.5354 4.19284C21.5085 6.08979 22.6887 8.66448 22.8381 11.3975L22.8391 11.4255L22.8401 11.4265ZM4.46163 4.19384C5.03758 4.66182 5.68453 5.0908 6.37047 5.45579L6.43546 5.48778C5.82252 7.25471 5.45355 9.29162 5.41855 11.4105V11.4265H1.15691C1.30059 8.68525 2.48044 6.10096 4.45763 4.19684L4.46063 4.19384H4.46163ZM1.15791 12.5705H5.41855C5.4492 14.6394 5.80623 16.6906 6.47646 18.6482L6.43546 18.5102C5.68453 18.9092 5.03858 19.3382 4.43863 19.8222L4.46263 19.8042C2.48953 17.9072 1.30926 15.3325 1.15991 12.5995L1.15891 12.5715L1.15791 12.5705Z" fill="black"/>
</svg>
