<svg width="18" height="20" viewBox="0 0 18 20" fill="none" xmlns="http://www.w3.org/2000/svg">
<path d="M12.8097 10.1684C12.8341 10.1484 12.8539 10.1229 12.8675 10.0937C12.8811 10.0645 12.8881 10.0325 12.8881 10C12.8881 9.96754 12.8811 9.9355 12.8675 9.90631C12.8539 9.87713 12.8341 9.85156 12.8097 9.83155L9.18665 6.8369C9.05369 6.72727 8.85682 6.8262 8.85682 7.00535V8.98663H0.204545C0.0920454 8.98663 0 9.08289 0 9.20053L0 10.8048C0 10.9225 0.0920454 11.0187 0.204545 11.0187H8.85426V12.9947C8.85426 13.1738 9.05114 13.2727 9.18409 13.1631L12.8097 10.1684ZM11.9148 0.213903V1.81818C11.9148 1.93583 12.0068 2.03209 12.1193 2.03209H16.0568V17.9679H12.1193C12.0068 17.9679 11.9148 18.0642 11.9148 18.1818V19.7861C11.9148 19.9037 12.0068 20 12.1193 20H17.1818C17.6344 20 18 19.6176 18 19.1444V0.855616C18 0.382353 17.6344 0 17.1818 0H12.1193C12.0068 0 11.9148 0.0962563 11.9148 0.213903Z" fill="#FFD600"/>
</svg>
