<svg width="16" height="16" viewBox="0 0 16 16" fill="none" xmlns="http://www.w3.org/2000/svg">
<path d="M0.899721 14.1159L5.53722 9.47836C4.81758 8.54801 4.42829 7.41051 4.42829 6.21408C4.42829 4.78193 4.98722 3.43908 5.99794 2.42658C7.00865 1.41408 8.35508 0.856934 9.78544 0.856934C11.2158 0.856934 12.5622 1.41586 13.5729 2.42658C14.5854 3.43729 15.1426 4.78193 15.1426 6.21408C15.1426 7.64443 14.5836 8.99086 13.5729 10.0016C12.5622 11.0141 11.2176 11.5712 9.78544 11.5712C8.58901 11.5712 7.45329 11.1819 6.52293 10.4641L1.88543 15.0998C1.87184 15.1134 1.85569 15.1242 1.83792 15.1316C1.82015 15.1389 1.8011 15.1427 1.78186 15.1427C1.76263 15.1427 1.74358 15.1389 1.72581 15.1316C1.70804 15.1242 1.69189 15.1134 1.67829 15.0998L0.899721 14.323C0.886114 14.3094 0.87532 14.2933 0.867956 14.2755C0.860592 14.2577 0.856801 14.2387 0.856801 14.2194C0.856801 14.2002 0.860592 14.1811 0.867956 14.1634C0.87532 14.1456 0.886114 14.1295 0.899721 14.1159ZM6.95686 9.04265C7.71401 9.79801 8.71758 10.2141 9.78544 10.2141C10.8533 10.2141 11.8569 9.79801 12.614 9.04265C13.3694 8.28551 13.7854 7.28193 13.7854 6.21408C13.7854 5.14622 13.3694 4.14086 12.614 3.38551C11.8569 2.63015 10.8533 2.21408 9.78544 2.21408C8.71758 2.21408 7.71222 2.62836 6.95686 3.38551C6.20151 4.14265 5.78543 5.14622 5.78543 6.21408C5.78543 7.28193 6.20151 8.28729 6.95686 9.04265Z" fill="#FCD704"/>
</svg>
