<svg width="24" height="24" viewBox="0 0 24 24" fill="none" xmlns="http://www.w3.org/2000/svg">
<g id="Frame 237644">
<g id="Group">
<path id="Vector" d="M12.0913 3.00339C12.0028 3.01337 11.9171 3.0403 11.8389 3.08273L2.37608 8.16033C2.26611 8.21965 2.17424 8.30761 2.11021 8.4149C2.04617 8.5222 2.01236 8.64483 2.01236 8.76978C2.01236 8.89473 2.04617 9.01735 2.11021 9.12464C2.17424 9.23194 2.26611 9.31992 2.37608 9.37924L11.8389 14.4568C11.9388 14.5099 12.0503 14.5376 12.1634 14.5376C12.2766 14.5376 12.388 14.5099 12.488 14.4568L21.9508 9.37924C22.0607 9.31992 22.1526 9.23194 22.2166 9.12464C22.2807 9.01735 22.3145 8.89473 22.3145 8.76978C22.3145 8.64483 22.2807 8.5222 22.2166 8.4149C22.1526 8.30761 22.0607 8.21965 21.9508 8.16033L12.488 3.08273C12.3666 3.01739 12.2285 2.98977 12.0913 3.00339ZM12.1634 4.47474L20.1693 8.77339L12.1634 13.0648L4.15756 8.77339L12.1634 4.47474ZM21.6262 11.2905C21.5113 11.2967 21.3998 11.3314 21.3017 11.3915L12.1634 16.296L3.02518 11.3915C2.90458 11.3237 2.76641 11.2935 2.62851 11.305C2.47929 11.3188 2.33859 11.3807 2.22754 11.4813C2.11648 11.5819 2.04107 11.7159 2.01262 11.863C1.98417 12.0102 2.00422 12.1626 2.06975 12.2973C2.13529 12.4321 2.24278 12.542 2.37608 12.6104L11.8389 17.688C11.9388 17.7411 12.0503 17.7688 12.1634 17.7688C12.2766 17.7688 12.388 17.7411 12.488 17.688L21.9508 12.6104C22.0965 12.5429 22.2141 12.4268 22.2837 12.282C22.3532 12.1372 22.3702 11.9728 22.3319 11.8169C22.2936 11.6609 22.2022 11.5232 22.0735 11.4271C21.9447 11.3311 21.7866 11.2828 21.6262 11.2905ZM21.6262 14.5217C21.5113 14.5279 21.3998 14.5626 21.3017 14.6227L12.1634 19.5272L3.02518 14.6227C2.90458 14.5549 2.76641 14.5247 2.62851 14.5362C2.47928 14.55 2.33858 14.6119 2.22752 14.7125C2.11646 14.8131 2.04104 14.9471 2.01259 15.0942C1.98414 15.2413 2.00419 15.3937 2.06974 15.5285C2.13528 15.6633 2.24278 15.7732 2.37608 15.8416L11.8389 20.9192C11.9388 20.9723 12.0503 21 12.1634 21C12.2766 21 12.388 20.9723 12.488 20.9192L21.9508 15.8416C22.0965 15.7741 22.2142 15.658 22.2837 15.5132C22.3532 15.3685 22.3703 15.204 22.3319 15.0481C22.2936 14.8921 22.2022 14.7543 22.0735 14.6583C21.9447 14.5623 21.7866 14.514 21.6262 14.5217Z" fill="white"/>
</g>
</g>
</svg>
